<?xml version="1.0" standalone="no"?>
<!DOCTYPE svg PUBLIC "-//W3C//DTD SVG 20010904//EN"
 "http://www.w3.org/TR/2001/REC-SVG-20010904/DTD/svg10.dtd">
<svg version="1.0" xmlns="http://www.w3.org/2000/svg"
 width="500.000000pt" height="500.000000pt" viewBox="0 0 500.000000 500.000000"
 preserveAspectRatio="xMidYMid meet">
<metadata>
Created by potrace 1.14, written by Peter Selinger 2001-2017
</metadata>
<g transform="translate(0.000000,500.000000) scale(0.100000,-0.100000)"
fill="#000000" stroke="none">
<path d="M1697 4974 c15 -23 22 -26 61 -21 33 3 45 1 49 -10 3 -8 0 -19 -8
-24 -9 -6 2 -7 29 -3 31 5 47 3 60 -9 20 -18 48 -26 117 -32 28 -3 71 -7 97
-11 39 -5 49 -4 54 10 4 10 18 16 38 16 20 0 26 3 18 9 -7 4 -12 14 -10 22 2
8 -16 23 -44 37 -27 12 -48 27 -48 32 0 6 -81 10 -215 10 l-215 0 17 -26z
m386 -71 c-7 -2 -19 -2 -25 0 -7 3 -2 5 12 5 14 0 19 -2 13 -5z m47 -13 c0 -5
-4 -10 -10 -10 -5 0 -10 5 -10 10 0 6 5 10 10 10 6 0 10 -4 10 -10z"/>
<path d="M2741 4941 c-8 -5 -41 -13 -73 -16 -32 -4 -60 -11 -63 -15 -3 -5 -31
-14 -61 -20 -40 -8 -58 -17 -61 -30 -3 -10 -15 -21 -26 -24 -31 -8 -39 -7 -33
3 9 14 -25 23 -40 10 -17 -14 -8 -33 12 -25 7 3 16 1 20 -5 3 -5 15 -7 26 -3
16 5 20 3 15 -9 -4 -11 1 -18 15 -23 11 -3 28 -12 37 -19 63 -51 145 -122 197
-172 70 -66 346 -395 389 -463 119 -188 223 -482 228 -645 1 -33 5 -62 8 -65
4 -3 14 -57 23 -120 9 -63 18 -116 20 -118 2 -1 21 6 42 17 96 48 187 82 243
89 58 8 62 11 130 83 67 70 71 73 88 57 16 -17 16 -20 0 -53 -30 -62 -22 -68
42 -30 68 40 110 45 118 15 3 -11 11 -20 17 -20 18 0 82 -70 105 -117 19 -39
26 -43 98 -66 43 -14 111 -37 151 -51 54 -19 94 -26 148 -26 90 0 154 -21 134
-45 -11 -14 -15 -14 -37 1 -28 18 -42 11 -27 -13 13 -20 32 -24 168 -29 60 -2
125 -8 145 -14 20 -5 42 -10 49 -10 17 0 18 1280 0 1298 -7 7 -38 12 -69 12
-40 0 -58 4 -62 14 -3 8 -32 20 -64 26 -138 28 -153 32 -148 41 4 5 -1 6 -10
3 -9 -4 -25 2 -38 13 -30 28 -120 43 -260 44 -96 1 -121 -2 -136 -15 -10 -9
-23 -16 -29 -16 -7 0 -12 -7 -12 -15 0 -13 -24 -15 -154 -15 -154 0 -155 0
-211 31 -53 29 -63 31 -139 28 -145 -5 -213 0 -219 15 -3 8 -1 30 5 50 9 29
16 36 36 36 14 0 34 8 45 18 12 11 36 17 65 17 27 0 47 5 49 13 3 8 -7 12 -34
12 -30 0 -40 5 -48 23 -7 16 -17 21 -35 18 -63 -9 -167 -4 -190 9 -14 8 -31
13 -37 12 -7 -2 -13 7 -13 19 0 18 -4 20 -25 15 -30 -8 -34 10 -4 19 13 4 25
2 29 -5 6 -10 13 -9 31 4 13 9 41 16 62 16 41 0 77 15 90 36 4 8 15 14 22 14
20 0 19 12 -2 49 l-18 31 -155 0 c-144 0 -157 -2 -173 -20 -9 -11 -17 -25 -17
-30 0 -15 -77 -12 -83 3 -3 7 -9 1 -15 -14 -6 -15 -18 -29 -27 -33 -24 -9
-213 -8 -219 2 -2 4 13 22 35 40 32 28 45 32 69 27 22 -5 32 -3 36 9 3 9 15
16 25 16 15 0 19 7 19 40 0 33 -4 40 -19 40 -10 0 -21 7 -25 15 -4 12 -23 15
-83 15 -43 0 -84 -4 -92 -9z"/>
<path d="M842 4928 c-6 -6 -29 -11 -51 -10 -24 1 -43 -3 -48 -12 -4 -7 -18
-18 -30 -25 -34 -17 -29 -41 7 -41 28 0 30 -2 30 -40 0 -29 -4 -40 -15 -40 -8
0 -15 -4 -15 -9 0 -12 -171 -51 -225 -51 -24 0 -47 -4 -50 -10 -9 -15 -56 -12
-69 5 -20 26 -265 20 -282 -6 -3 -5 -18 -9 -34 -9 -57 0 -60 -5 -60 -101 0
-49 2 -89 5 -89 3 0 21 7 40 14 19 8 35 11 35 5 0 -5 7 -9 15 -9 8 0 15 -4 15
-10 0 -15 -36 -30 -74 -30 l-36 0 0 -775 0 -775 103 0 c56 0 125 3 154 6 l51
7 17 65 c17 67 13 81 -23 82 -7 0 -10 5 -7 10 3 6 17 10 30 10 17 0 38 20 81
76 50 65 56 78 46 94 -17 28 -1 34 82 32 60 -2 76 -6 106 -30 19 -15 47 -33
63 -40 17 -7 27 -19 27 -33 0 -12 8 -23 19 -26 26 -7 33 -47 9 -62 -10 -6 -17
-16 -15 -22 1 -6 -4 -14 -12 -17 -10 -3 -12 0 -8 12 10 24 -9 19 -31 -9 -13
-16 -26 -23 -36 -19 -19 7 -22 -12 -3 -20 8 -3 7 -8 -6 -16 -12 -8 -16 -18
-12 -31 11 -33 -25 -130 -60 -163 -11 -10 -18 -23 -16 -30 10 -32 11 -66 2
-64 -14 4 -81 -61 -81 -78 0 -23 38 -54 66 -54 16 0 23 -4 18 -11 -4 -8 0 -8
15 0 35 19 43 49 43 160 0 58 2 109 4 113 3 4 18 -2 34 -13 26 -20 30 -20 51
-5 14 9 43 16 71 16 52 0 53 1 118 84 19 25 41 45 49 45 34 2 102 54 127 97
35 60 43 162 20 250 -9 34 -16 67 -16 73 0 19 27 12 59 -15 33 -27 39 -26 20
5 -19 29 -3 71 26 71 14 0 25 6 25 13 3 113 55 362 89 426 15 28 41 155 41
201 0 87 200 422 316 529 72 66 183 147 221 162 13 5 23 10 23 13 0 6 -58 1
-65 -6 -7 -7 -70 -1 -135 13 -25 5 -62 10 -83 11 -21 1 -40 4 -42 8 -2 4 -70
7 -150 8 -136 0 -148 2 -166 21 -11 12 -29 21 -39 21 -11 0 -20 5 -20 10 0 6
-24 10 -54 10 -30 0 -58 5 -61 10 -3 6 -24 10 -45 10 -21 0 -42 -4 -45 -10
-11 -19 -57 -11 -62 10 -4 15 -14 20 -42 20 -20 0 -42 -5 -49 -12z m-32 -1828
c0 -5 -4 -10 -10 -10 -5 0 -10 5 -10 10 0 6 5 10 10 10 6 0 10 -4 10 -10z m62
-100 c4 0 8 -7 8 -15 0 -7 8 -19 18 -24 14 -9 15 -10 1 -11 -9 0 -30 15 -47
34 -17 19 -40 37 -51 41 -12 3 -21 12 -21 20 0 7 -3 22 -7 32 -4 10 15 -3 42
-29 26 -27 52 -48 57 -48z"/>
<path d="M2200 4870 c0 -5 21 -10 47 -10 55 0 54 5 -4 14 -27 4 -43 2 -43 -4z"/>
<path d="M4512 4589 c2 -6 8 -10 13 -10 5 0 11 4 13 10 2 6 -4 11 -13 11 -9 0
-15 -5 -13 -11z"/>
<path d="M3721 4531 c-8 -14 -7 -22 5 -32 21 -18 144 -15 155 3 14 22 10 28
-13 19 -26 -9 -46 -4 -66 16 -20 20 -69 16 -81 -6z"/>
<path d="M2373 4514 c3 -3 23 -8 44 -10 31 -3 34 -2 13 5 -30 11 -66 14 -57 5z"/>
<path d="M2223 4500 c-32 -13 -29 -21 5 -10 56 18 58 18 37 19 -11 0 -30 -4
-42 -9z"/>
<path d="M2558 4483 c7 -3 16 -2 19 1 4 3 -2 6 -13 5 -11 0 -14 -3 -6 -6z"/>
<path d="M3688 4443 c6 -2 18 -2 25 0 6 3 1 5 -13 5 -14 0 -19 -2 -12 -5z"/>
<path d="M2910 4190 c20 -13 33 -13 25 0 -3 6 -14 10 -23 10 -15 0 -15 -2 -2
-10z"/>
<path d="M2283 4055 c-18 -19 -19 -24 -7 -29 25 -10 64 19 64 48 0 15 -37 2
-57 -19z"/>
<path d="M2873 3988 c3 -32 25 -54 39 -40 9 9 8 18 -2 37 -17 31 -41 33 -37 3z"/>
<path d="M2651 3972 c-7 -13 -6 -23 1 -30 9 -9 6 -12 -12 -12 l-25 -1 26 -14
c20 -11 28 -24 31 -52 6 -48 0 -73 -18 -73 -11 0 -11 -6 -3 -27 6 -16 12 -35
13 -43 4 -23 17 -50 26 -50 14 0 21 51 10 65 -8 10 -8 15 0 20 6 4 8 14 5 24
-11 27 -14 100 -5 106 5 3 7 18 6 33 -2 19 -10 28 -25 30 -17 3 -19 7 -11 23
7 12 7 19 1 19 -6 0 -15 -8 -20 -18z"/>
<path d="M2610 3950 c-13 -8 -12 -10 3 -10 9 0 17 5 17 10 0 12 -1 12 -20 0z"/>
<path d="M2394 3915 c3 -8 0 -15 -7 -15 -7 0 -23 -6 -37 -13 -44 -23 -72 -26
-99 -12 -36 18 -95 28 -120 20 -30 -9 -44 -40 -31 -65 11 -20 4 -24 -37 -23
-30 1 1 -83 42 -115 26 -21 26 -22 6 -22 -11 0 -21 -6 -21 -12 0 -7 -5 -5 -11
5 -8 14 -14 16 -25 6 -8 -6 -17 -9 -20 -6 -4 3 -12 1 -18 -6 -16 -14 5 -38 52
-58 61 -26 25 -39 -51 -18 -43 11 -77 4 -77 -16 0 -8 -18 -48 -40 -90 -22 -42
-40 -82 -40 -90 0 -8 -11 -17 -25 -21 -29 -7 -30 -13 -10 -40 8 -10 14 -23 14
-29 0 -5 -6 -2 -14 9 -7 10 -18 15 -24 11 -14 -8 -11 -95 3 -95 6 0 0 -10 -13
-22 -16 -16 -25 -19 -28 -10 -8 21 -23 13 -23 -14 0 -14 4 -23 10 -19 6 3 10
1 10 -4 0 -6 -4 -11 -10 -11 -5 0 -10 -4 -10 -10 0 -5 7 -10 16 -10 9 0 12 -5
8 -12 -5 -8 -2 -9 10 -5 10 4 20 7 22 7 2 0 4 7 4 15 0 23 17 18 23 -7 4 -15
1 -26 -9 -31 -8 -4 -12 -12 -9 -17 3 -5 1 -19 -5 -30 -7 -13 -7 -20 0 -20 5 0
10 -5 10 -12 0 -6 10 -23 23 -36 l22 -25 -31 16 c-17 9 -36 23 -43 31 -8 9
-20 16 -27 16 -8 0 -14 5 -14 10 0 6 -6 10 -14 10 -8 0 -16 6 -19 13 -3 9 -7
9 -20 -2 -10 -8 -27 -11 -44 -7 -24 5 -25 5 -10 -5 11 -6 31 -9 45 -6 33 6 82
-21 82 -45 0 -23 -9 -23 -35 2 -21 19 -65 35 -65 24 0 -10 45 -43 58 -44 6 0
12 -7 12 -16 0 -13 -7 -15 -35 -10 -42 8 -43 3 -10 -30 24 -24 32 -54 18 -67
-3 -4 -21 9 -40 28 -36 37 -56 46 -47 20 7 -17 -9 -19 -37 -5 -10 6 -19 7 -19
3 0 -5 -14 -14 -31 -22 -23 -10 -28 -16 -18 -22 8 -5 15 -4 17 1 6 16 18 12
50 -14 26 -23 31 -24 56 -11 21 11 33 12 54 3 21 -9 23 -12 10 -15 -10 -3 -18
-10 -18 -16 0 -8 -4 -7 -12 1 -18 18 -32 14 -17 -5 12 -15 12 -16 -8 -11 -35
9 -47 -14 -28 -51 17 -34 25 -37 44 -18 10 10 11 9 6 -4 -4 -11 2 -25 16 -38
17 -15 23 -34 24 -65 2 -62 22 -103 51 -109 13 -2 27 0 30 5 8 13 24 -11 24
-35 0 -10 -14 -31 -31 -46 -26 -24 -29 -32 -20 -49 14 -27 14 -32 -4 -32 -16
0 -30 -47 -39 -135 -13 -122 -24 -150 -62 -165 -20 -8 -34 -21 -34 -31 0 -9
-7 -20 -16 -23 -23 -9 -24 -8 -24 14 0 23 -25 27 -34 5 -3 -8 -1 -15 4 -15 18
0 10 -29 -11 -40 -17 -10 -21 -8 -26 9 -6 24 -16 27 -32 8 -8 -10 -7 -17 1
-25 8 -8 3 -10 -23 -8 -19 2 -24 1 -11 -1 12 -2 22 -9 22 -14 0 -13 -14 -11
-58 6 -22 9 -43 15 -48 14 -29 -5 -37 2 -18 16 19 14 18 14 -3 15 -13 0 -23
-4 -23 -10 0 -24 -57 -2 -127 48 -41 29 -43 28 -24 -13 12 -26 32 -43 84 -69
58 -31 78 -36 150 -38 45 -1 92 2 105 6 21 8 22 6 22 -37 0 -53 7 -57 90 -57
47 0 64 5 87 24 43 36 92 59 78 37 -3 -5 -1 -13 5 -16 13 -8 42 14 34 26 -3 5
4 9 16 9 21 0 46 -42 29 -48 -18 -7 -9 -19 14 -18 14 1 22 -5 22 -16 0 -32 19
-41 61 -29 48 14 85 15 65 2 -8 -5 -9 -11 -3 -15 6 -4 9 -16 7 -28 -3 -12 -1
-26 4 -32 5 -6 12 -24 15 -41 9 -54 17 -71 38 -84 14 -9 23 -10 27 -2 4 6 40
13 81 17 46 3 70 2 62 -3 -7 -5 -10 -16 -7 -25 3 -8 -1 -21 -10 -28 -8 -7 -15
-19 -15 -27 0 -9 -6 -13 -13 -10 -8 3 -20 1 -28 -3 -8 -6 -16 -4 -21 3 -5 8
-10 9 -17 2 -7 -7 -2 -20 15 -40 17 -20 27 -26 30 -17 7 16 29 15 43 -2 17
-21 24 -68 11 -76 -9 -5 -8 -13 1 -29 16 -24 39 -28 39 -6 0 25 18 17 35 -14
8 -17 23 -36 33 -43 26 -19 45 -73 38 -108 -3 -19 -1 -30 5 -30 6 0 9 -9 6
-20 -3 -11 -1 -23 4 -26 5 -3 7 -26 5 -52 -2 -26 0 -51 4 -57 14 -18 29 -110
19 -113 -5 -2 -9 -11 -9 -21 0 -9 -5 -22 -12 -29 -8 -8 -8 -15 1 -26 7 -8 10
-19 7 -24 -3 -5 4 -26 16 -47 15 -29 18 -43 10 -55 -8 -13 -2 -27 24 -61 57
-73 78 -111 81 -143 1 -17 4 -42 7 -56 2 -14 5 -33 5 -42 1 -10 6 -18 12 -18
6 0 8 8 5 18 -5 17 -12 79 -22 212 -2 36 -7 85 -9 110 -3 25 -7 70 -10 100 -3
30 -10 91 -16 135 -7 44 -13 98 -14 120 -4 67 -27 209 -37 229 -7 13 -6 21 2
26 8 5 9 24 2 71 -6 35 -10 80 -11 99 -4 107 -7 140 -13 140 -12 0 -9 38 3 46
8 5 8 8 0 14 -7 3 -13 30 -14 58 -1 29 -5 52 -9 52 -4 0 -3 12 2 26 7 16 7 32
0 44 -14 26 -13 60 3 60 9 0 9 2 -1 9 -7 4 -15 30 -17 57 -2 27 -6 56 -9 64
-3 8 -7 43 -9 76 -3 34 -7 65 -10 70 -3 5 -8 41 -11 79 -3 39 -15 129 -26 200
-11 72 -20 148 -20 171 0 33 -6 46 -28 65 -32 27 -48 74 -32 94 8 10 4 14 -15
17 -14 3 -25 1 -25 -5 0 -8 -3 -8 -10 -1 -6 6 -13 47 -17 92 -3 45 -9 82 -13
82 -4 0 -11 11 -14 25 -7 29 -26 34 -26 8 -1 -25 -29 25 -30 52 0 11 -16 31
-36 45 -19 14 -51 37 -70 52 -19 15 -52 32 -72 39 -20 6 -43 16 -49 22 -21 16
-16 117 7 159 11 21 17 43 14 51 -2 7 6 22 18 33 l23 19 -19 -23 c-30 -34 -11
-38 27 -5 19 17 55 35 81 42 37 9 46 16 47 34 1 17 2 18 6 5 5 -21 19 -23 26
-5 4 8 8 8 14 2 14 -17 52 -35 73 -35 11 0 20 -4 20 -10 0 -5 -7 -7 -15 -4
-22 9 -30 -39 -11 -69 9 -13 15 -35 14 -48 -2 -19 4 -26 32 -35 53 -18 53 -38
-1 -31 -24 3 -55 9 -69 12 -18 5 -21 4 -11 -3 20 -14 -1 -39 -43 -50 -21 -6
-32 -15 -34 -30 -4 -27 2 -28 28 -2 22 22 81 27 124 10 19 -7 26 -17 26 -35 0
-14 6 -25 13 -25 8 0 7 -3 -3 -10 -22 -14 34 -32 76 -24 38 7 84 -16 84 -41 0
-19 -8 -19 -26 0 -16 16 -39 21 -30 6 3 -4 -5 -6 -18 -4 -13 3 -27 0 -30 -6
-5 -7 4 -11 24 -11 42 0 74 -23 110 -81 34 -56 37 -71 15 -89 -9 -8 -13 -21
-10 -34 5 -16 0 -14 -23 12 -29 32 -29 32 -47 12 -16 -18 -17 -22 -3 -37 9
-10 19 -28 22 -40 6 -19 3 -23 -13 -23 -12 0 -21 -4 -21 -10 0 -5 4 -10 9 -10
17 0 82 -73 77 -86 -3 -7 -1 -16 4 -19 12 -8 13 -52 1 -59 -7 -5 -13 9 -27 73
-5 24 -19 31 -49 22 l-30 -8 26 -7 c21 -6 25 -12 21 -31 -2 -13 -14 -26 -25
-30 -21 -7 -21 -7 -2 -12 35 -9 37 -20 4 -27 -36 -7 -32 -18 9 -24 15 -2 32
-8 37 -14 7 -8 5 -9 -6 -5 -26 9 -42 -14 -21 -29 16 -12 15 -13 -5 -14 -12 0
-25 -4 -28 -10 -4 -6 5 -10 19 -10 28 0 33 -9 14 -28 -9 -9 -6 -14 13 -21 l24
-10 -27 0 c-41 -1 -45 -21 -4 -21 39 0 51 -19 14 -21 -22 -1 -22 -1 2 -9 22
-7 20 -8 -15 -9 -30 -1 -36 -4 -25 -11 8 -5 29 -10 45 -10 27 -1 28 -2 10 -12
-19 -11 -19 -11 0 -19 16 -6 12 -8 -15 -9 l-35 -2 28 -12 c29 -13 27 -26 -5
-26 -29 0 -13 -16 24 -25 29 -7 30 -9 10 -12 -33 -6 -21 -27 17 -31 30 -3 32
-2 22 17 -6 11 -7 22 -2 25 10 7 23 -19 25 -51 2 -21 -18 -33 -26 -15 -1 4
-21 4 -43 1 l-40 -5 52 -8 c57 -9 88 -31 59 -42 -9 -3 -22 -2 -29 3 -6 5 -25
6 -42 3 -27 -6 -25 -8 23 -15 69 -10 67 -25 -5 -25 -31 0 -54 -2 -52 -4 3 -4
58 -12 102 -15 4 -1 6 -13 6 -28 -2 -24 -2 -25 -6 -5 -5 25 -23 30 -23 7 0
-11 -11 -15 -37 -15 -42 0 -41 -7 2 -11 17 -2 36 -7 43 -12 6 -5 12 -6 12 -1
0 15 20 -20 20 -35 0 -10 -10 -12 -40 -7 -25 4 -40 2 -40 -4 0 -5 20 -10 45
-10 38 0 45 -3 45 -20 0 -23 -15 -27 -23 -6 -3 8 -15 12 -31 9 -36 -7 -21 -31
22 -35 27 -2 38 -8 40 -22 4 -18 3 -18 -12 -3 -13 13 -22 14 -47 5 -35 -12
-32 -18 13 -28 l33 -7 -37 -8 c-55 -11 -47 -28 11 -23 65 4 56 -14 -17 -34
l-57 -16 53 -1 c63 -1 68 -15 10 -26 l-43 -9 45 -6 c43 -6 41 -13 -5 -23 -12
-3 -7 -5 13 -6 39 -1 34 -21 -6 -22 l-27 -1 29 -8 c16 -5 34 -6 39 -3 5 3 7 0
5 -8 -3 -8 -11 -13 -18 -11 -8 2 -10 -3 -7 -13 5 -10 0 -15 -13 -15 -10 0 -22
-5 -25 -10 -4 -6 8 -10 30 -10 32 0 36 3 30 20 -4 12 -2 20 5 20 7 0 10 -13 8
-32 -3 -30 -6 -33 -35 -31 -17 2 -35 -2 -38 -7 -4 -6 6 -11 22 -11 57 -3 58
-3 61 -42 3 -38 3 -38 -27 -34 -17 3 -33 1 -36 -3 -3 -5 12 -10 32 -12 42 -3
47 -19 11 -30 -13 -3 -17 -6 -10 -7 19 -2 14 -21 -5 -22 -10 -1 -3 -6 15 -11
24 -8 32 -17 32 -34 0 -21 -4 -23 -30 -17 -18 3 -30 1 -30 -5 0 -6 14 -12 32
-14 32 -3 53 -28 24 -28 -9 0 -16 -7 -16 -15 0 -8 -7 -15 -15 -15 -8 0 -15 -4
-15 -10 0 -5 14 -10 30 -10 25 0 30 -4 30 -25 0 -21 -5 -25 -32 -25 -34 0 -31
-12 5 -16 12 -1 25 -3 30 -3 14 -2 7 -20 -10 -24 -17 -4 -17 -5 0 -6 27 -2 20
-21 -7 -21 -14 0 -28 -4 -31 -10 -4 -6 7 -10 24 -10 17 0 31 -4 31 -10 0 -5
-7 -10 -16 -10 -8 0 -12 -5 -9 -10 3 -5 -2 -11 -12 -11 -10 -1 -4 -4 12 -8 38
-8 41 -41 5 -58 l-25 -11 28 -1 c28 -1 39 -20 12 -22 -8 -1 -19 -3 -25 -4 -5
-1 -16 -3 -22 -4 -24 -2 16 -21 45 -21 15 0 27 -5 27 -10 0 -6 -6 -10 -12 -9
-25 3 -38 -1 -38 -12 0 -5 4 -8 8 -5 4 2 14 1 22 -5 11 -6 11 -9 3 -10 -7 -1
-17 -2 -23 -3 -12 -1 -14 -16 -2 -17 4 -1 15 -6 26 -11 14 -8 16 -12 6 -18 -7
-5 -20 -6 -29 -2 -9 3 -13 1 -8 -3 4 -5 17 -9 29 -10 12 -1 24 -7 26 -14 2 -6
0 -11 -5 -10 -4 1 -19 0 -33 -1 -24 -2 -24 -2 5 -11 36 -10 47 -49 14 -49 -19
0 -28 -19 -9 -21 6 -1 15 -2 22 -3 6 0 13 -7 16 -13 3 -12 -9 -17 -35 -14 -7
1 -13 -3 -13 -9 0 -9 21 -15 43 -11 4 0 7 -4 7 -9 0 -6 -9 -10 -19 -10 -31 0
-34 -18 -4 -22 36 -4 44 -35 11 -41 l-23 -4 23 -2 c27 -1 30 -31 3 -31 -11 0
-23 -4 -26 -10 -3 -6 5 -10 19 -10 32 0 44 -19 23 -35 -21 -15 -22 -25 -2 -25
20 0 19 -17 -2 -29 -17 -10 -17 -10 0 -11 22 0 22 -16 0 -28 -14 -9 -14 -10 5
-16 28 -9 28 -33 2 -41 -24 -8 -17 -25 11 -25 10 0 19 -5 19 -11 0 -5 -4 -8
-9 -5 -5 3 -11 0 -14 -8 -3 -8 1 -17 10 -20 12 -5 13 -9 3 -21 -11 -13 -10
-18 6 -30 18 -14 18 -16 2 -28 -15 -12 -15 -14 0 -25 13 -9 14 -14 5 -18 -18
-8 -16 -24 2 -24 21 0 19 -30 -2 -46 -17 -13 -17 -14 5 -20 24 -7 30 -29 10
-37 -7 -3 0 -6 15 -6 27 -1 28 0 23 42 -3 23 -7 69 -8 102 l-3 60 60 29 c46
22 56 31 42 35 -17 6 -17 7 1 24 18 16 20 16 37 -3 16 -18 16 -20 2 -20 -21 0
-22 -14 -2 -30 23 -19 19 -60 -5 -60 -29 0 -24 -19 8 -30 15 -6 35 -15 44 -20
26 -15 43 -12 62 9 29 31 52 31 82 0 22 -23 24 -29 11 -29 -22 0 -22 -24 0
-57 13 -19 14 -28 5 -31 -19 -6 -14 -21 7 -19 12 1 17 7 13 19 -2 10 0 18 6
18 13 0 33 -25 26 -33 -3 -3 73 -6 170 -7 163 -1 176 1 176 17 1 17 1 17 11 1
9 -17 52 -18 674 -18 659 0 663 0 658 20 -3 11 0 27 7 35 10 12 8 16 -14 25
-26 10 -35 35 -15 42 9 3 9 10 2 23 -6 11 -16 53 -24 93 -9 51 -18 77 -32 87
-12 8 -17 20 -13 30 3 9 -1 27 -10 40 -8 13 -14 29 -12 37 1 7 -2 14 -7 16 -6
1 -12 -14 -15 -35 -8 -61 -36 -51 -70 27 -28 64 -29 65 -69 66 -49 1 -69 16
-93 71 -21 47 -21 133 0 133 7 0 15 -6 18 -14 3 -8 13 -17 22 -21 13 -5 13 -3
-2 14 -10 11 -19 35 -21 53 -2 21 -8 34 -19 36 -11 2 -15 10 -11 22 4 12 -1
19 -13 22 -33 9 -50 58 -45 132 2 36 1 66 -2 66 -18 0 -36 -81 -36 -159 l0
-86 -30 -14 c-20 -9 -34 -10 -41 -3 -16 16 -58 201 -58 256 0 57 -38 176 -66
208 -13 15 -14 19 -4 14 8 -4 6 0 -5 8 -11 9 -26 14 -33 11 -8 -3 -23 -5 -34
-5 -17 0 -19 -2 -7 -16 11 -13 9 -14 -15 -8 -22 5 -28 3 -33 -14 -4 -18 -8
-19 -29 -10 -13 6 -25 15 -25 20 -1 4 -2 13 -3 20 0 6 -7 13 -15 16 -8 3 -11
0 -7 -7 4 -6 2 -11 -4 -11 -6 0 -8 -4 -5 -10 3 -5 -3 -10 -13 -10 -11 0 -23 7
-26 16 -3 8 -10 12 -16 9 -7 -4 -7 -13 0 -26 12 -21 6 -39 -13 -39 -8 0 -12
13 -12 34 1 29 -3 36 -22 41 -24 6 -65 -10 -60 -23 1 -4 -2 -7 -8 -7 -5 0 -9
3 -7 8 3 9 3 9 -58 -4 -27 -6 -50 -15 -50 -20 0 -14 -26 -11 -40 6 -7 8 -27
16 -44 16 -30 2 -30 2 -3 6 15 2 27 9 27 14 0 5 5 9 10 9 6 0 10 -6 10 -14 0
-21 27 -27 45 -10 8 8 19 13 25 9 6 -3 7 1 4 9 -3 9 -11 16 -17 16 -5 0 0 8
11 19 12 10 19 21 15 25 -3 3 -2 6 4 6 6 0 16 -7 23 -15 10 -12 10 -15 -1 -16
-8 0 -3 -5 11 -10 25 -10 70 5 70 23 0 5 14 1 31 -7 17 -9 37 -14 45 -11 8 3
14 2 14 -2 0 -4 4 -13 9 -21 8 -12 11 -12 24 1 9 8 17 24 19 34 3 17 -3 19
-47 16 -27 -1 -57 2 -65 8 -12 9 -10 10 8 5 20 -6 22 -4 16 19 -4 16 -2 26 5
26 6 0 11 -7 11 -16 0 -11 6 -14 23 -10 12 3 16 3 10 0 -23 -10 -14 -25 11
-18 15 3 29 0 39 -11 11 -10 34 -16 67 -17 27 0 50 -3 50 -8 0 -4 9 -10 20
-13 11 -3 20 -1 20 4 0 4 7 6 15 3 17 -7 21 21 5 31 -6 4 -8 10 -6 14 3 4 -8
7 -24 6 -17 -1 -30 2 -30 7 0 4 15 8 33 8 33 0 67 -24 67 -47 0 -6 7 -16 15
-23 16 -13 20 -1 16 45 -1 11 -2 43 -2 72 -1 48 -2 51 -19 41 -15 -10 -23 -9
-39 6 -11 10 -17 24 -14 32 3 9 -5 18 -26 25 -28 10 -43 29 -23 29 4 0 12 12
19 26 10 21 10 24 -2 14 -11 -9 -16 -7 -24 9 -6 11 -10 30 -10 43 1 13 -2 32
-6 43 -8 19 -8 19 12 2 26 -23 38 -22 60 6 10 13 24 22 32 19 7 -2 16 -1 20 4
14 21 53 34 79 28 15 -4 23 -3 19 2 -5 5 -12 9 -15 9 -4 1 -17 6 -28 13 -12 6
-24 8 -28 5 -3 -3 -6 2 -6 13 -1 18 -1 18 -14 2 -20 -27 -54 -21 -87 14 -27
31 -29 31 -29 10 0 -31 -29 -40 -49 -16 -21 25 -103 47 -113 31 -4 -7 -6 1 -5
16 1 19 19 43 57 78 30 28 47 48 37 45 -10 -3 -16 -2 -13 3 3 4 -4 18 -15 29
-23 26 -18 27 21 7 l29 -15 -6 52 c-4 36 -3 49 5 44 11 -6 28 -72 24 -88 -5
-18 16 -6 36 21 13 18 18 32 12 36 -6 4 -7 11 -4 17 4 6 -1 8 -14 4 -15 -5
-24 -1 -31 13 -17 32 -13 44 12 37 18 -4 23 -1 23 14 0 11 -4 20 -8 20 -4 0
-10 15 -13 33 -11 58 -12 62 -18 77 -4 8 -8 24 -10 35 -1 11 -6 26 -10 32 -5
7 -5 28 -1 47 5 28 12 36 35 41 22 5 29 12 29 31 0 26 18 32 39 12 10 -11 10
-8 2 13 -9 26 -8 27 32 32 52 7 128 40 151 66 16 18 16 20 -8 46 -15 16 -30
24 -37 19 -9 -5 -7 -11 7 -22 18 -13 18 -14 -3 -7 -14 4 -23 2 -23 -4 0 -7 -8
-7 -22 -2 -15 6 -30 3 -45 -6 -26 -17 -41 -11 -54 24 -8 23 -13 24 -47 18 -20
-4 -39 -11 -42 -15 -7 -12 -25 1 -33 23 -5 13 -13 16 -27 12 -10 -3 -28 -1
-40 5 -16 9 -20 8 -20 -5 0 -19 -2 -19 -46 7 l-36 21 7 -24 c4 -13 10 -29 12
-35 7 -18 -17 -29 -69 -30 -34 -1 -49 3 -53 15 -6 16 29 50 52 51 21 0 25 21
8 40 -9 10 -24 19 -33 18 -10 0 -27 3 -39 7 -20 6 -23 4 -23 -17 0 -13 -9 -31
-20 -41 -11 -9 -20 -23 -20 -30 0 -18 40 -54 64 -59 10 -1 26 -14 34 -27 16
-23 15 -23 -7 -16 -16 5 -27 2 -37 -12 -11 -13 -17 -14 -20 -5 -3 6 -15 12
-26 12 -14 0 -19 -6 -17 -22 1 -13 -1 -31 -5 -40 -5 -10 -1 -26 8 -40 26 -36
19 -41 -18 -11 -34 26 -34 27 -15 44 43 37 10 89 -58 89 -49 0 -60 18 -28 47
17 14 27 17 34 10 8 -8 16 -6 28 6 15 14 15 20 3 42 -16 29 -40 33 -40 7 0
-29 -12 -34 -28 -11 -19 28 -46 6 -38 -32 4 -21 1 -28 -14 -32 -19 -5 -25 -25
-21 -69 1 -9 -8 -23 -20 -32 -21 -14 -24 -14 -37 7 -8 12 -22 28 -31 35 -14
11 -13 16 4 48 12 23 24 34 35 31 15 -4 15 -1 3 37 -8 22 -18 43 -21 46 -4 3
-13 15 -20 28 -10 18 -10 22 3 22 8 0 15 8 15 18 0 9 9 31 20 49 13 22 15 30
5 27 -7 -3 -16 -12 -19 -20 -3 -8 -12 -14 -20 -14 -8 0 -22 -8 -32 -17 -13
-13 -19 -14 -22 -5 -2 6 -10 12 -18 12 -8 0 -14 9 -14 20 0 11 7 20 15 20 8 0
15 -4 15 -10 0 -5 4 -10 10 -10 6 0 6 9 0 25 -8 20 -6 27 10 35 10 5 25 8 32
5 21 -7 49 21 54 54 5 28 2 30 -30 37 -35 6 -50 24 -21 24 8 0 15 6 15 14 0 8
7 16 15 20 8 3 15 18 15 33 0 17 8 33 20 41 11 7 20 19 20 27 0 10 6 12 18 8
14 -6 15 -4 5 9 -7 8 -10 18 -6 21 13 13 -39 7 -68 -8 -16 -8 -43 -22 -60 -31
-24 -13 -33 -14 -39 -4 -4 6 -11 11 -16 10 -22 -4 -12 18 11 24 27 7 35 36 10
36 -8 0 -15 8 -15 17 0 24 -17 4 -23 -27 -4 -24 -5 -25 -12 -3 -4 14 -12 20
-22 16 -12 -5 -14 -1 -8 15 4 13 2 22 -4 22 -6 0 -11 -4 -11 -10 0 -5 -7 -7
-15 -4 -8 4 -15 2 -15 -4 0 -7 -10 -6 -30 1 -17 6 -30 19 -30 28 0 20 -16 34
-67 60 -37 19 -38 19 -57 -1 -13 -13 -16 -20 -7 -20 7 0 24 -9 38 -20 l25 -19
-39 -18 c-21 -9 -46 -23 -55 -31 -9 -8 -22 -11 -27 -7 -18 11 -12 39 11 54
l22 13 -27 15 c-31 16 -33 25 -12 43 22 18 18 40 -7 41 -13 0 -17 3 -10 6 19
7 14 20 -10 28 -20 7 -18 9 15 12 24 3 37 9 37 19 0 20 4 19 72 -26 67 -43 78
-47 78 -27 0 20 -41 55 -70 59 -20 4 -22 6 -9 12 9 4 33 1 52 -8 28 -11 38
-23 47 -53 6 -21 24 -54 40 -73 l30 -35 -6 55 c-3 30 -10 61 -16 67 -14 17 -3
42 24 53 l23 9 -22 7 c-13 3 -23 10 -23 14 0 4 -12 8 -27 9 -88 5 -126 10
-136 20 -8 8 -5 11 11 11 30 0 40 29 17 46 -18 13 -18 14 5 14 13 0 20 3 17 7
-4 3 -20 6 -37 5 -42 -1 -37 10 15 32 64 26 117 90 113 136 -2 26 -7 34 -19
32 -11 -1 -19 7 -23 23 -9 37 -40 49 -91 36 -80 -20 -142 -11 -188 28 -15 13
-19 12 -32 -5 -21 -28 -19 -54 5 -54 21 0 29 -33 10 -45 -17 -10 11 -58 63
-107 90 -85 18 -49 -86 42 -28 24 -44 30 -60 22 -13 -6 13 -31 28 -26 8 4 23
-15 41 -53 15 -32 30 -61 32 -66 2 -4 -3 -4 -12 -1 -11 4 -16 0 -16 -12 0 -16
-2 -17 -10 -4 -9 13 -10 13 -11 0 -3 -42 5 -87 18 -105 15 -20 15 -20 9 0 -8
22 31 111 51 119 8 3 5 -10 -7 -32 -28 -51 -26 -64 8 -56 l27 6 -28 -20 c-28
-19 -22 -42 6 -26 8 5 8 2 -2 -9 -10 -13 -11 -20 -2 -30 6 -8 8 -17 4 -20 -3
-4 -1 -7 5 -7 21 0 8 -39 -15 -45 -13 -3 -23 -10 -23 -15 0 -6 -7 -10 -15 -10
-8 0 -15 -5 -15 -11 0 -8 -5 -8 -15 1 -11 9 -15 9 -15 1 0 -7 -4 -9 -10 -6
-14 8 -12 -10 5 -75 8 -30 15 -56 15 -57 0 -2 -6 -3 -12 -3 -16 -1 -48 -63
-48 -95 0 -31 -18 -42 -22 -13 -2 13 10 45 25 71 28 46 29 49 11 62 -11 7 -16
17 -12 21 4 4 3 13 -3 20 -7 8 -7 14 1 19 13 8 13 58 -1 72 -6 6 -17 9 -24 7
-11 -4 -24 23 -25 49 0 4 16 7 36 7 28 0 35 3 32 18 -2 9 -10 18 -18 18 -43 4
-45 5 -25 15 17 8 16 9 -6 4 -33 -6 -86 19 -94 45 -4 12 -15 20 -27 20 -12 0
-18 -3 -15 -7 4 -3 0 -14 -9 -24 -15 -17 -15 -19 10 -31 21 -9 29 -9 35 0 3 6
7 -11 8 -38 2 -28 -2 -50 -7 -50 -6 0 -10 5 -10 10 0 6 -9 10 -20 10 -34 0
-23 -37 18 -59 15 -8 22 -21 22 -41 0 -30 -8 -35 -52 -31 -25 3 -23 -20 2 -26
18 -5 20 -14 21 -97 1 -50 4 -79 6 -63 3 17 11 27 21 27 13 0 14 2 3 9 -9 6
-10 10 -2 16 7 4 9 19 5 40 -3 18 -1 42 5 52 8 13 11 -20 10 -134 -1 -124 -4
-153 -15 -153 -17 0 -19 -17 -2 -22 13 -5 20 -38 8 -38 -5 0 -11 8 -13 18 -4
13 -5 11 -6 -5 -1 -16 5 -23 17 -23 15 -1 15 -2 -3 -16 -16 -12 -17 -17 -6
-23 9 -6 4 -12 -21 -20 -19 -7 -28 -15 -22 -19 12 -7 13 -40 1 -58 -3 -6 -4
-14 -1 -17 10 -9 12 -187 3 -187 -12 0 -17 48 -24 200 -7 149 -13 237 -21 320
-2 30 -5 69 -4 86 0 17 -9 60 -20 97 -13 43 -18 79 -14 104 5 32 2 40 -17 52
-17 10 -24 10 -27 2 -5 -14 -32 -15 -32 -1 0 6 -7 10 -15 10 -8 0 -15 5 -15
10 0 14 -63 13 -77 -1 -18 -18 -45 44 -37 86 6 34 10 37 59 40 21 1 22 6 12
69 -6 35 -5 37 8 20 8 -11 15 -27 15 -36 0 -20 15 -24 25 -8 9 15 25 12 25 -5
0 -8 4 -15 10 -15 5 0 7 14 4 33 l-6 32 20 -25 c23 -28 35 -23 35 15 0 19 4
25 14 21 8 -3 17 -6 19 -6 2 0 4 -7 4 -15 0 -8 9 -24 20 -35 l21 -21 29 30
c34 34 33 31 20 66 -9 23 -13 25 -25 15 -12 -10 -15 -10 -15 0 0 9 -10 11 -30
6 l-31 -6 18 30 c9 16 14 32 11 35 -10 10 -64 -22 -109 -65 -65 -62 -71 -47
-7 18 50 51 78 89 78 107 0 8 -35 -12 -55 -32 -10 -9 -33 -18 -51 -19 -19 -2
-43 -8 -55 -14 -11 -7 -23 -9 -27 -6 -7 7 -8 6 51 34 34 16 56 35 78 69 40 63
44 86 24 117 -19 29 -72 38 -61 11z m-19 -235 c-3 -5 -12 -10 -18 -10 -7 0 -6
4 3 10 19 12 23 12 15 0z m-295 -145 c10 -12 8 -16 -15 -25 -14 -5 -37 -7 -49
-4 -15 3 -29 -1 -40 -11 -24 -24 -33 -10 -11 15 16 18 60 37 91 39 6 1 17 -6
24 -14z m210 1 c0 -3 -4 -8 -10 -11 -5 -3 -10 -1 -10 4 0 6 5 11 10 11 6 0 10
-2 10 -4z m590 -226 c0 -5 -2 -10 -4 -10 -3 0 -8 5 -11 10 -3 6 -1 10 4 10 6
0 11 -4 11 -10z m-1027 -53 c6 -16 -20 -41 -28 -27 -3 6 -2 10 4 10 6 0 8 7 5
15 -4 8 -2 15 4 15 5 0 12 -6 15 -13z m524 -18 c14 -5 24 -12 21 -15 -11 -11
-58 16 -57 33 0 12 2 13 6 5 3 -7 16 -18 30 -23z m761 -101 l-13 -23 -3 22
c-4 26 21 61 26 38 2 -8 -3 -24 -10 -37z m-1108 -23 c14 -16 10 -18 -14 -9 -9
3 -16 10 -16 15 0 14 16 11 30 -6z m975 -22 c23 -24 28 -26 38 -13 7 8 23 21
36 28 19 11 22 11 19 0 -2 -7 -14 -17 -25 -23 -26 -11 -63 -74 -63 -104 0 -14
-4 -20 -11 -15 -9 5 -10 -2 -6 -22 3 -16 4 -23 1 -16 -6 13 -36 17 -47 5 -4
-3 -1 -16 6 -27 8 -12 17 -36 20 -54 7 -36 2 -34 -53 21 -17 16 -31 23 -35 17
-3 -5 -11 -10 -16 -10 -6 0 -7 5 -4 10 9 14 -24 25 -37 12 -8 -8 -6 -18 6 -36
15 -24 15 -27 -4 -46 -27 -27 -40 -25 -40 4 0 13 -11 34 -24 47 -19 19 -22 27
-14 45 12 27 47 47 82 47 37 0 32 5 -16 17 -49 14 -108 5 -108 -15 0 -8 -5
-15 -11 -15 -6 0 -8 7 -5 16 3 9 6 22 6 31 0 8 6 13 13 10 6 -2 27 2 46 9 18
8 49 14 68 14 32 0 100 36 89 47 -8 8 28 41 46 42 9 1 29 -11 43 -26z m265 -9
c0 -4 -18 -26 -40 -50 -22 -24 -40 -48 -40 -54 0 -5 -4 -10 -10 -10 -18 0 -10
25 25 73 20 26 42 47 50 47 8 0 15 -3 15 -6z m-1190 -25 c0 -6 -4 -7 -10 -4
-5 3 -10 11 -10 16 0 6 5 7 10 4 6 -3 10 -11 10 -16z m1300 -121 c0 -5 -7 -8
-15 -8 -8 0 -15 -5 -15 -11 0 -5 -4 -7 -10 -4 -5 3 -10 -4 -10 -16 0 -18 -2
-19 -15 -9 -8 7 -22 10 -30 6 -20 -7 -19 13 2 36 11 13 28 17 55 16 21 -2 38
-6 38 -10z m-1520 -74 c0 -8 -7 -14 -15 -14 -10 0 -15 10 -15 26 0 22 2 25 15
14 8 -7 15 -19 15 -26z m1254 -3 c6 -10 -39 -32 -48 -24 -8 9 14 33 30 33 7 0
15 -4 18 -9z m76 -10 c0 -10 -30 -24 -37 -17 -3 3 -2 9 2 15 8 13 35 15 35 2z
m57 -28 c-9 -9 -19 -14 -23 -11 -10 10 6 28 24 28 15 0 15 -1 -1 -17z m-69
-58 c0 -36 -6 -39 -45 -29 -19 5 -21 10 -12 25 9 18 5 23 -13 20 -18 -3 -6 20
15 28 34 13 55 -3 55 -44z m-685 33 c7 -22 -4 -36 -24 -31 -29 8 -23 43 7 43
7 0 14 -6 17 -12z m-743 -29 c0 -14 -16 -11 -29 5 -10 12 -8 13 8 9 12 -3 21
-9 21 -14z m1552 -14 c0 -5 -5 -11 -11 -13 -6 -2 -11 4 -11 13 0 9 5 15 11 13
6 -2 11 -8 11 -13z m-1432 -10 c0 -8 -4 -15 -10 -15 -5 0 -10 7 -10 15 0 8 5
15 10 15 6 0 10 -7 10 -15z m743 8 c-7 -2 -13 -16 -13 -30 0 -33 -13 -22 -15
12 0 19 4 25 20 24 11 0 14 -3 8 -6z m267 -11 c0 -29 35 -55 67 -49 34 6 53
-1 53 -20 0 -11 -11 -14 -47 -11 -46 3 -48 2 -47 -22 1 -14 -4 -29 -10 -33 -6
-5 1 -6 16 -3 27 6 28 6 22 -36 -3 -27 0 -59 10 -87 9 -24 15 -45 14 -47 -2
-1 -21 1 -43 5 -35 6 -37 8 -18 15 13 4 28 4 34 0 7 -4 10 -2 7 6 -2 7 -12 14
-22 16 -46 7 -61 35 -34 62 16 16 4 25 -32 24 -39 -1 -39 17 1 52 l31 28 -28
15 c-51 26 -54 42 -17 78 33 30 43 31 43 7z m-690 -7 c0 -8 -10 -20 -22 -26
-13 -7 -27 -17 -31 -23 -5 -6 -5 0 -1 14 3 14 11 31 16 38 14 17 38 15 38 -3z
m-366 -88 c10 -26 16 -53 14 -59 -5 -14 -58 96 -58 120 0 27 24 -6 44 -61z
m942 31 c2 -18 7 -42 10 -53 4 -14 3 -17 -5 -10 -6 6 -13 33 -16 60 -4 27 -3
47 1 43 3 -4 8 -22 10 -40z m-146 -9 c0 -5 -7 -9 -15 -9 -8 0 -15 7 -15 15 0
9 6 12 15 9 8 -4 15 -10 15 -15z m-520 -30 c0 -15 -33 -18 -52 -5 -18 13 -17
14 16 13 20 -1 36 -4 36 -8z m850 -5 c0 -8 -5 -12 -10 -9 -6 4 -8 11 -5 16 9
14 15 11 15 -7z m381 -34 c5 0 9 -4 9 -10 0 -5 -9 -10 -20 -10 -13 0 -20 7
-20 18 0 25 14 38 18 18 2 -9 8 -16 13 -16z m-1533 -45 l1 -20 -9 20 c-5 11
-8 31 -8 45 l0 25 8 -25 c4 -14 8 -34 8 -45z m2180 7 c2 -7 -3 -12 -12 -12 -9
0 -16 7 -16 16 0 17 22 14 28 -4z m103 -4 c17 -10 23 -10 26 -1 3 10 10 10 25
2 11 -6 26 -8 34 -5 17 6 44 -3 44 -15 0 -5 -16 -9 -35 -9 -48 0 -135 20 -135
31 0 13 16 11 41 -3z m-2212 -37 c-2 -6 -10 2 -17 17 -11 25 -11 25 4 10 9 -9
15 -21 13 -27z m641 18 c0 -6 -4 -7 -10 -4 -5 3 -10 11 -10 16 0 6 5 7 10 4 6
-3 10 -11 10 -16z m1543 -6 c6 -11 -31 -44 -38 -34 -8 14 6 41 20 41 8 0 16
-3 18 -7z m-1885 -20 c33 -4 42 -9 40 -22 -4 -19 -71 -25 -102 -9 -12 7 -16 7
-12 0 3 -5 -1 -12 -9 -16 -11 -4 -15 2 -15 23 0 35 9 44 35 35 11 -3 39 -9 63
-11z m417 -43 c3 -5 -1 -10 -9 -10 -9 0 -16 5 -16 10 0 6 4 10 9 10 6 0 13 -4
16 -10z m-5 -40 c0 -5 -4 -10 -10 -10 -5 0 -10 5 -10 10 0 6 5 10 10 10 6 0
10 -4 10 -10z m980 3 c0 -5 -5 -15 -10 -23 -8 -12 -10 -11 -10 8 0 12 5 22 10
22 6 0 10 -3 10 -7z m-980 -33 c0 -5 -4 -10 -10 -10 -5 0 -10 5 -10 10 0 6 5
10 10 10 6 0 10 -4 10 -10z m390 -5 c16 -19 7 -28 -28 -32 -15 -1 -21 0 -14 3
19 9 14 24 -9 24 -11 0 -17 5 -14 10 9 15 51 12 65 -5z m-390 -19 c0 -3 -4 -8
-10 -11 -5 -3 -10 -1 -10 4 0 6 5 11 10 11 6 0 10 -2 10 -4z m595 -6 c3 -5 2
-10 -4 -10 -5 0 -13 5 -16 10 -3 6 -2 10 4 10 5 0 13 -4 16 -10z m-184 -57 c7
-20 5 -23 -18 -23 -21 0 -24 2 -13 15 10 13 9 15 -9 15 -13 0 -19 4 -16 11 11
17 47 5 56 -18z m633 -51 c14 3 26 1 26 -3 0 -5 -4 -9 -9 -9 -5 0 -11 -13 -14
-30 -6 -25 -11 -30 -36 -30 -23 0 -30 -6 -36 -27 l-8 -28 -7 25 c-3 14 -6 41
-6 60 1 28 5 36 24 38 12 2 22 9 22 15 0 8 3 7 9 -2 5 -8 19 -12 35 -9z
m-1099 -10 c-3 -3 -11 0 -18 7 -9 10 -8 11 6 5 10 -3 15 -9 12 -12z m483 1 c2
-8 -5 -13 -17 -13 -21 0 -35 13 -24 24 10 10 36 3 41 -11z m11 -65 c11 -29 5
-38 -22 -38 -21 1 -21 1 -3 15 17 13 17 14 -10 21 -25 6 -26 8 -9 15 31 12 35
11 44 -13z m26 -83 c0 -16 -8 -21 -35 -23 l-35 -2 25 15 25 14 -35 1 c-29 1
-32 3 -15 10 34 15 70 7 70 -15z m-1101 -28 c9 9 7 -10 -3 -26 -11 -17 -27 -8
-34 19 -4 16 -2 18 13 10 9 -5 20 -6 24 -3z m1116 -22 c7 -8 9 -15 4 -16 -5 0
-18 -2 -28 -4 -10 -2 -25 2 -32 10 -12 11 -11 14 4 18 31 8 39 7 52 -8z m-103
-21 c-3 -3 -12 -4 -19 -1 -8 3 -5 6 6 6 11 1 17 -2 13 -5z m-1049 -39 c-3 -3
-9 2 -12 12 -6 14 -5 15 5 6 7 -7 10 -15 7 -18z m1162 4 c0 -5 -13 -9 -30 -9
-32 0 -41 16 -12 22 21 5 42 -1 42 -13z m463 -16 c-7 -2 -19 -2 -25 0 -7 3 -2
5 12 5 14 0 19 -2 13 -5z m-454 -22 c21 -13 4 -31 -30 -31 -46 0 -38 29 11 39
3 0 11 -3 19 -8z m-69 -47 c0 -19 -4 -34 -10 -34 -5 0 -12 0 -15 0 -3 0 -7 6
-9 14 -2 7 -7 23 -11 35 -5 16 -3 20 9 15 9 -3 16 -1 16 6 0 6 5 8 10 5 6 -3
10 -22 10 -41z m705 6 c-11 -4 -23 -6 -27 -3 -9 5 -11 -9 -9 -43 2 -23 -20
-37 -43 -28 -10 4 -16 -2 -18 -18 -2 -15 -9 -22 -21 -20 -11 2 -21 -6 -27 -22
-14 -37 -70 -57 -134 -50 -41 5 -55 3 -65 -10 -11 -14 -11 -16 3 -16 20 0 59
-38 51 -50 -3 -5 -20 -7 -37 -3 -22 4 -33 2 -40 -10 -5 -9 -29 -30 -53 -47
-42 -29 -44 -29 -50 -10 -4 12 0 26 9 36 9 8 16 25 16 37 0 28 32 77 62 93 13
8 45 13 71 14 33 0 49 5 53 15 4 8 16 15 27 15 11 0 38 18 58 40 21 22 42 40
48 40 9 0 38 13 61 28 2 2 -1 7 -8 11 -7 4 11 8 40 8 35 1 46 -2 33 -7z m-625
-21 c0 -5 -16 -9 -35 -9 -19 0 -35 4 -35 9 0 5 16 9 35 9 19 0 35 -4 35 -9z
m8 -47 c2 -7 -9 -11 -32 -10 -40 1 -48 14 -13 21 29 6 40 3 45 -11z m-86 -15
c-5 -7 -11 -19 -14 -27 -3 -9 -7 -5 -10 12 -3 15 -1 25 3 22 5 -3 9 0 9 6 0 6
5 8 10 5 7 -4 7 -11 2 -18z m83 -17 c-3 -5 -10 -10 -16 -10 -5 0 -9 5 -9 10 0
6 7 10 16 10 8 0 12 -4 9 -10z m-75 -51 c0 -11 -4 -18 -10 -14 -5 3 -7 12 -3
20 7 21 13 19 13 -6z m100 11 c0 -13 -30 -13 -50 0 -11 7 -7 10 18 10 17 0 32
-4 32 -10z m-1014 -27 c-8 -8 -36 5 -36 17 0 7 6 7 21 0 11 -7 18 -14 15 -17z
m1014 -23 c0 -5 -10 -10 -22 -10 -19 0 -20 2 -8 10 19 13 30 13 30 0z m330
-35 c0 -8 -4 -15 -10 -15 -5 0 -10 7 -10 15 0 8 5 15 10 15 6 0 10 -7 10 -15z
m-320 -5 c0 -5 -15 -10 -32 -9 -31 1 -32 1 -8 9 35 11 40 11 40 0z m20 -74 c0
-2 -15 -6 -34 -8 -19 -2 -32 0 -30 4 5 8 64 12 64 4z m-7 -33 c-7 -2 -19 -2
-25 0 -7 3 -2 5 12 5 14 0 19 -2 13 -5z m-68 -13 c3 -5 1 -10 -4 -10 -6 0 -11
5 -11 10 0 6 2 10 4 10 3 0 8 -4 11 -10z m-755 -21 c0 -5 -7 -9 -15 -9 -8 0
-15 7 -15 15 0 9 6 12 15 9 8 -4 15 -10 15 -15z m840 1 c0 -5 -10 -10 -22 -9
-22 0 -22 1 -3 9 11 5 21 9 23 9 1 1 2 -3 2 -9z m825 -20 c3 -5 1 -10 -4 -10
-6 0 -11 5 -11 10 0 6 2 10 4 10 3 0 8 -4 11 -10z m-805 -30 c0 -13 -11 -13
-30 0 -12 8 -11 10 8 10 12 0 22 -4 22 -10z m-80 -14 c0 -3 -4 -8 -10 -11 -5
-3 -10 -1 -10 4 0 6 5 11 10 11 6 0 10 -2 10 -4z m1010 -11 c10 -13 10 -19 -5
-34 -24 -27 -53 -24 -47 6 3 15 -1 23 -9 24 -8 0 -5 4 6 9 30 13 41 12 55 -5z
m-1110 -32 c-8 -3 -18 -11 -22 -17 -4 -6 -10 -7 -15 -3 -9 10 16 27 37 26 13
-1 13 -1 0 -6z m195 -13 c4 -6 -5 -10 -20 -10 -15 0 -24 4 -20 10 3 6 12 10
20 10 8 0 17 -4 20 -10z m-275 -30 c-20 -13 -33 -13 -25 0 3 6 14 10 23 10 15
0 15 -2 2 -10z m275 0 c3 -6 -4 -10 -17 -10 -18 0 -20 2 -8 10 19 12 18 12 25
0z m884 1 c12 -8 9 -11 -11 -16 -34 -9 -61 5 -32 16 25 10 27 10 43 0z m-85
-13 c-2 -3 -1 -8 3 -11 5 -2 2 -2 -5 0 -8 1 -25 3 -38 3 -14 0 -23 4 -19 10 3
5 19 8 34 7 16 -1 27 -5 25 -9z m-794 -28 c0 -5 -5 -10 -11 -10 -5 0 -7 5 -4
10 3 6 8 10 11 10 2 0 4 -4 4 -10z m830 -19 c0 -4 -11 -6 -25 -3 -14 2 -25 6
-25 8 0 2 11 4 25 4 14 0 25 -4 25 -9z m-1160 -11 c0 -5 -4 -10 -10 -10 -5 0
-10 5 -10 10 0 6 5 10 10 10 6 0 10 -4 10 -10z m-145 -45 c33 -19 102 -55 153
-80 93 -47 124 -69 55 -39 -21 9 -72 30 -113 47 -93 38 -173 82 -178 96 -6 18
20 11 83 -24z m489 21 c-3 -8 -12 -12 -21 -9 -12 5 -12 7 -1 14 20 13 28 11
22 -5z m906 -7 c0 -14 -27 -10 -33 5 -4 10 0 12 14 9 10 -3 19 -9 19 -14z
m-1662 -36 c-2 -10 -9 -24 -16 -32 -11 -11 -16 -11 -32 4 -25 23 -15 45 22 45
22 0 28 -4 26 -17z m1379 -29 c-3 -3 -12 -4 -19 -1 -8 3 -5 6 6 6 11 1 17 -2
13 -5z m-607 -18 c0 -2 -7 -7 -16 -10 -8 -3 -12 -2 -9 4 6 10 25 14 25 6z
m-50 -15 c0 -5 -7 -14 -15 -21 -13 -10 -15 -9 -15 9 0 12 6 21 15 21 8 0 15
-4 15 -9z m442 -11 c19 -17 19 -20 5 -20 -9 0 -17 -6 -17 -12 -1 -17 -30 22
-30 39 0 19 18 16 42 -7z m458 10 c0 -5 -4 -10 -10 -10 -5 0 -10 5 -10 10 0 6
5 10 10 10 6 0 10 -4 10 -10z m-272 -32 c-27 -20 -38 -23 -38 -7 0 7 -10 9
-27 4 -22 -5 -25 -4 -14 8 7 9 29 15 57 14 l46 -1 -24 -18z m132 2 c0 -5 -2
-10 -4 -10 -3 0 -8 5 -11 10 -3 6 -1 10 4 10 6 0 11 -4 11 -10z m-987 -47 c29
-4 41 -12 52 -33 8 -16 19 -31 25 -33 6 -3 7 -5 3 -4 -15 4 -223 108 -223 111
0 3 24 -5 53 -16 28 -11 69 -23 90 -25z m752 37 c3 -6 -1 -7 -9 -4 -18 7 -21
14 -7 14 6 0 13 -4 16 -10z m415 0 c-8 -5 -22 -7 -32 -4 -9 2 -19 0 -23 -6 -3
-5 -21 -9 -38 -9 -30 2 -31 2 -4 6 15 2 27 9 27 14 0 5 19 9 43 9 30 0 38 -3
27 -10z m-503 -32 c-20 -13 -34 -9 -40 11 -4 16 -1 17 24 8 19 -8 24 -14 16
-19z m60 12 c10 -13 8 -16 -8 -17 -10 -1 -19 4 -19 11 0 11 12 30 14 24 1 -2
7 -10 13 -18z m-117 -24 c0 -3 -4 -8 -10 -11 -5 -3 -10 -1 -10 4 0 6 5 11 10
11 6 0 10 -2 10 -4z m86 -51 c13 -22 28 -48 35 -59 9 -14 8 -17 -3 -14 -7 3
-17 13 -23 24 -5 11 -20 34 -32 51 -25 34 -29 47 -12 41 6 -2 22 -22 35 -43z
m64 35 c0 -5 -8 -10 -17 -10 -15 0 -16 2 -3 10 19 12 20 12 20 0z m-30 -30 c9
-16 8 -18 -5 -14 -8 4 -15 12 -15 20 0 20 7 17 20 -6z m466 -27 c-10 -10 -19
5 -10 18 6 11 8 11 12 0 2 -7 1 -15 -2 -18z m-1006 -9 c0 -8 -6 -11 -15 -8 -8
4 -15 12 -15 20 0 8 6 11 15 8 8 -4 15 -12 15 -20z m60 -4 c0 -5 -5 -10 -11
-10 -5 0 -7 5 -4 10 3 6 8 10 11 10 2 0 4 -4 4 -10z m278 -8 c2 -7 -5 -12 -17
-12 -14 0 -19 5 -14 15 6 17 25 15 31 -3z m262 14 c0 -3 -4 -8 -10 -11 -5 -3
-10 -1 -10 4 0 6 5 11 10 11 6 0 10 -2 10 -4z m-25 -36 c3 -5 1 -10 -4 -10 -6
0 -11 5 -11 10 0 6 2 10 4 10 3 0 8 -4 11 -10z m-62 -17 c-4 -11 -3 -14 5 -9
7 4 12 2 12 -3 0 -6 -7 -11 -15 -11 -8 0 -15 6 -15 14 0 8 -6 17 -12 19 -7 3
-3 6 9 6 17 1 21 -3 16 -16z m-108 -3 c7 -12 -12 -40 -27 -40 -6 0 -8 6 -5 14
3 7 0 19 -6 25 -8 8 -5 11 10 11 12 0 25 -5 28 -10z m233 -21 c1 -9 -7 -15
-23 -15 -26 -2 -35 20 -12 29 18 8 32 2 35 -14z m-64 -25 c22 -48 14 -55 -13
-11 -23 37 -25 47 -13 47 5 0 16 -16 26 -36z m-79 -4 c3 -5 1 -10 -4 -10 -6 0
-11 -6 -11 -14 0 -8 -13 -19 -30 -25 -25 -8 -30 -7 -30 5 0 8 -4 13 -9 10 -5
-3 -11 3 -14 14 -4 16 -1 18 23 14 15 -4 31 -1 34 5 9 14 33 14 41 1z m-927
-23 c7 -8 7 -17 -2 -30 -20 -26 -36 -20 -36 13 0 32 19 40 38 17z m73 -30 c-1
-12 -15 -9 -19 4 -3 6 1 10 8 8 6 -3 11 -8 11 -12z m859 -18 c0 -5 -7 -9 -15
-9 -15 0 -20 12 -9 23 8 8 24 -1 24 -14z m-390 7 c0 -3 -4 -8 -10 -11 -5 -3
-10 -1 -10 4 0 6 5 11 10 11 6 0 10 -2 10 -4z m506 -10 c22 -22 17 -38 -6 -19
-19 17 -26 33 -14 33 3 0 12 -6 20 -14z m-138 -18 c18 -18 14 -26 -13 -24 -24
1 -33 15 -18 29 9 10 17 9 31 -5z m252 -30 c0 -6 -6 -5 -15 2 -8 7 -15 14 -15
16 0 2 7 1 15 -2 8 -4 15 -11 15 -16z m-72 -9 c-2 -6 -8 -10 -13 -10 -5 0 -11
4 -13 10 -2 6 4 11 13 11 9 0 15 -5 13 -11z m153 -26 c13 -16 12 -17 -3 -4
-17 13 -22 21 -14 21 2 0 10 -8 17 -17z m-97 -19 c9 -23 7 -31 -4 -14 -5 8
-13 11 -17 6 -4 -4 0 -14 10 -21 13 -9 15 -15 7 -20 -8 -5 -9 -20 -5 -44 5
-28 4 -33 -6 -24 -6 6 -13 32 -15 58 -2 25 -7 51 -10 57 -4 7 -2 8 4 4 7 -4
12 -2 12 3 0 17 17 13 24 -5z m-49 -42 c0 -18 -1 -32 -1 -32 -9 0 -33 53 -28
61 12 19 29 2 29 -29z m-60 8 c3 -5 1 -10 -4 -10 -6 0 -11 5 -11 10 0 6 2 10
4 10 3 0 8 -4 11 -10z m152 -27 c-4 -3 -2 -12 5 -20 6 -7 8 -16 4 -20 -3 -4
-13 2 -20 13 -11 14 -11 21 -3 26 15 10 23 10 14 1z m-17 -59 c0 -8 -4 -12
-10 -9 -5 3 -10 13 -10 21 0 8 5 12 10 9 6 -3 10 -13 10 -21z m-1140 -15 c0
-5 34 -42 76 -82 83 -79 104 -110 104 -157 0 -37 -39 -62 -65 -40 -12 10 -15
10 -15 -4 0 -12 -5 -16 -18 -12 -13 5 -22 -1 -30 -19 -7 -15 -17 -23 -23 -20
-6 4 -13 -2 -16 -14 -3 -12 -9 -21 -13 -21 -12 0 -19 47 -25 170 -4 63 -11
136 -17 162 -12 56 -5 73 23 58 10 -6 19 -15 19 -21z m1119 -44 c0 -5 -4 -3
-9 5 -5 8 -9 22 -9 30 0 16 17 -16 18 -35z m11 -66 c0 -11 -4 -17 -10 -14 -5
3 -10 15 -10 26 0 11 5 17 10 14 6 -3 10 -15 10 -26z m841 -216 c-9 -16 -10
-16 -11 4 0 12 -4 25 -10 28 -16 10 -12 23 8 27 20 4 29 -32 13 -59z m-1570
-172 c13 -11 20 -23 16 -27 -4 -4 -20 4 -35 19 -30 31 -16 37 19 8z m346 -53
c-3 -8 -6 -5 -6 6 -1 11 2 17 5 13 3 -3 4 -12 1 -19z"/>
<path d="M2986 1915 c-3 -8 -1 -15 4 -15 6 0 10 7 10 15 0 8 -2 15 -4 15 -2 0
-6 -7 -10 -15z"/>
<path d="M2923 3895 c14 -29 37 -41 37 -18 0 15 -26 42 -42 43 -3 0 -1 -11 5
-25z"/>
<path d="M1950 3864 c0 -8 5 -12 10 -9 6 3 10 10 10 16 0 5 -4 9 -10 9 -5 0
-10 -7 -10 -16z"/>
<path d="M2596 3781 c-4 -5 3 -7 14 -4 23 6 26 13 6 13 -8 0 -17 -4 -20 -9z"/>
<path d="M1910 3620 c0 -5 4 -10 9 -10 6 0 13 5 16 10 3 6 -1 10 -9 10 -9 0
-16 -4 -16 -10z"/>
<path d="M2741 3607 c-6 -6 -11 -21 -11 -33 0 -13 -4 -26 -10 -29 -13 -8 -13
-35 -1 -35 5 0 28 16 50 37 30 26 38 39 31 48 -15 18 -47 24 -59 12z"/>
<path d="M2600 3544 c0 -8 5 -12 10 -9 6 3 10 10 10 16 0 5 -4 9 -10 9 -5 0
-10 -7 -10 -16z"/>
<path d="M2510 3512 c0 -15 11 -21 27 -15 12 5 12 7 1 14 -17 11 -28 11 -28 1z"/>
<path d="M2622 3500 c0 -14 2 -19 5 -12 2 6 2 18 0 25 -3 6 -5 1 -5 -13z"/>
<path d="M2452 3495 c-7 -8 -9 -15 -5 -15 4 0 1 -5 -7 -10 -13 -8 -12 -10 3
-10 9 0 17 4 17 9 0 5 8 8 18 7 21 -1 23 28 2 31 -8 1 -21 -4 -28 -12z"/>
<path d="M3300 3484 c0 -14 4 -23 9 -20 5 3 7 15 4 26 -7 28 -13 25 -13 -6z"/>
<path d="M2376 3486 c10 -8 21 -12 24 -10 5 6 -21 24 -34 24 -6 0 -1 -6 10
-14z"/>
<path d="M3200 3476 c0 -9 5 -16 10 -16 6 0 10 4 10 9 0 6 -4 13 -10 16 -5 3
-10 -1 -10 -9z"/>
<path d="M2700 3465 c-10 -12 -10 -15 3 -15 19 0 31 16 18 24 -5 3 -14 -1 -21
-9z"/>
<path d="M2740 3460 c0 -5 5 -10 10 -10 6 0 10 5 10 10 0 6 -4 10 -10 10 -5 0
-10 -4 -10 -10z"/>
<path d="M2775 3430 c3 -5 8 -10 11 -10 2 0 4 5 4 10 0 6 -5 10 -11 10 -5 0
-7 -4 -4 -10z"/>
<path d="M2100 3393 c-33 -6 -50 -21 -50 -44 0 -10 -10 -25 -22 -33 -19 -14
-19 -16 -5 -22 11 -4 17 -18 17 -41 0 -23 4 -33 13 -30 6 2 12 10 12 18 0 8
21 25 47 37 41 21 46 26 33 38 -7 8 -18 14 -24 14 -6 0 -11 5 -11 10 0 6 6 10
13 10 23 0 38 22 26 37 -7 7 -14 12 -18 12 -3 -1 -17 -4 -31 -6z"/>
<path d="M3303 3365 c0 -22 2 -30 4 -17 2 12 2 30 0 40 -3 9 -5 -1 -4 -23z"/>
<path d="M1195 3341 c-3 -5 -1 -12 5 -16 5 -3 10 1 10 9 0 18 -6 21 -15 7z"/>
<path d="M3966 3334 c-9 -23 -8 -24 13 -24 19 0 35 23 24 34 -12 11 -31 6 -37
-10z"/>
<path d="M3058 3323 c7 -3 16 -2 19 1 4 3 -2 6 -13 5 -11 0 -14 -3 -6 -6z"/>
<path d="M2566 3291 c-7 -10 22 -37 30 -28 4 3 -1 13 -9 22 -9 8 -18 11 -21 6z"/>
<path d="M3232 3275 c0 -16 2 -22 5 -12 2 9 2 23 0 30 -3 6 -5 -1 -5 -18z"/>
<path d="M1574 3224 c3 -9 6 -18 6 -20 0 -2 5 -4 10 -4 6 0 10 9 10 20 0 12
-7 20 -16 20 -11 0 -14 -5 -10 -16z"/>
<path d="M3862 3195 c-16 -34 -17 -32 18 -30 35 2 37 3 42 30 2 15 -3 21 -23
23 -19 2 -28 -3 -37 -23z"/>
<path d="M602 3198 c-13 -13 -4 -38 13 -38 21 0 28 19 12 34 -10 10 -17 12
-25 4z"/>
<path d="M3480 3200 c-8 -5 -12 -11 -9 -14 3 -3 14 1 25 9 21 16 8 20 -16 5z"/>
<path d="M3653 3198 c-28 -13 -30 -28 -5 -28 19 0 42 18 42 32 0 10 -10 9 -37
-4z"/>
<path d="M1644 3157 c-5 -14 0 -25 17 -38 49 -38 78 -15 41 32 -25 29 -50 32
-58 6z"/>
<path d="M3536 3165 c-19 -14 -18 -15 12 -15 24 0 30 4 26 15 -7 18 -14 18
-38 0z"/>
<path d="M3752 3140 c-14 -12 -18 -21 -12 -25 12 -7 50 21 50 37 0 13 -13 9
-38 -12z"/>
<path d="M3922 3142 c-15 -2 -22 -9 -20 -19 4 -23 20 -26 43 -9 24 18 11 34
-23 28z"/>
<path d="M3602 3120 c-30 -19 -44 -50 -22 -50 6 0 10 -10 10 -21 0 -22 18 -23
63 -4 12 5 17 3 17 -9 0 -22 16 -20 40 4 26 26 19 37 -25 46 -25 4 -35 12 -35
25 0 27 -13 30 -48 9z"/>
<path d="M3785 3110 c-10 -11 -16 -20 -14 -21 2 0 13 -2 24 -4 28 -6 47 8 39
28 -8 23 -27 21 -49 -3z"/>
<path d="M3503 3101 c-12 -10 -19 -22 -15 -26 4 -3 -1 -12 -10 -19 -18 -13
-36 -66 -22 -66 25 1 58 31 69 61 7 19 16 42 20 52 10 23 -13 22 -42 -2z"/>
<path d="M536 3061 c-3 -5 1 -11 9 -15 8 -3 15 -1 15 4 0 13 -18 22 -24 11z"/>
<path d="M1415 3051 c-3 -11 0 -29 7 -40 10 -16 10 -23 0 -33 -9 -9 -8 -16 5
-30 25 -28 45 -24 33 7 -8 20 -6 27 5 31 19 8 19 34 -1 62 -19 27 -41 28 -49
3z"/>
<path d="M4028 3043 c6 -2 18 -2 25 0 6 3 1 5 -13 5 -14 0 -19 -2 -12 -5z"/>
<path d="M2600 3020 c0 -5 5 -10 11 -10 5 0 7 5 4 10 -3 6 -8 10 -11 10 -2 0
-4 -4 -4 -10z"/>
<path d="M1606 2997 c2 -7 13 -18 24 -25 16 -10 20 -10 20 1 0 17 -20 37 -37
37 -7 0 -10 -6 -7 -13z"/>
<path d="M2415 2998 c11 -6 23 -16 27 -22 5 -8 8 -7 8 1 0 7 -9 17 -19 23 -27
14 -41 12 -16 -2z"/>
<path d="M1500 2991 c0 -6 4 -13 10 -16 6 -3 7 1 4 9 -7 18 -14 21 -14 7z"/>
<path d="M2602 2975 c0 -16 2 -22 5 -12 2 9 2 23 0 30 -3 6 -5 -1 -5 -18z"/>
<path d="M3670 2991 c0 -15 -32 -22 -46 -11 -9 9 -18 3 -37 -25 -31 -46 -21
-101 16 -78 6 4 19 6 28 5 20 -3 34 27 19 42 -14 14 -13 26 3 20 17 -6 51 31
42 45 -8 13 -25 14 -25 2z"/>
<path d="M2292 2978 c-19 -19 -14 -28 13 -28 18 0 25 -5 25 -20 0 -29 34 -44
55 -24 20 20 6 39 -35 48 -18 3 -30 12 -30 21 0 18 -12 19 -28 3z"/>
<path d="M3510 2949 c-19 -21 -43 -42 -52 -45 -21 -6 -34 -42 -20 -56 15 -15
52 0 63 25 5 12 21 37 34 56 24 33 32 61 18 61 -5 -1 -24 -19 -43 -41z"/>
<path d="M3733 2983 c-16 -6 -17 -33 -3 -33 11 0 26 28 19 34 -2 2 -10 1 -16
-1z"/>
<path d="M528 2949 c-28 -16 -21 -36 17 -49 39 -13 55 -7 55 19 0 36 -37 51
-72 30z"/>
<path d="M4542 2951 c-8 -5 -12 -21 -10 -40 l3 -32 35 30 c29 25 33 32 20 41
-18 12 -31 12 -48 1z"/>
<path d="M1294 2916 c-18 -14 -18 -15 -1 -21 24 -10 48 1 41 20 -8 19 -15 19
-40 1z"/>
<path d="M1460 2881 c0 -5 7 -14 15 -21 12 -10 15 -10 15 3 0 8 -7 17 -15 21
-8 3 -15 2 -15 -3z"/>
<path d="M2277 2883 c-16 -15 -6 -34 15 -31 29 4 38 38 10 38 -10 0 -22 -3
-25 -7z"/>
<path d="M4680 2859 c0 -5 8 -12 18 -16 9 -3 37 -15 61 -26 31 -13 58 -18 88
-14 77 8 73 23 -8 33 -29 3 -78 12 -106 19 -30 7 -53 9 -53 4z"/>
<path d="M1255 2830 c-3 -5 -17 -10 -30 -10 -13 0 -28 -6 -32 -13 -4 -8 -17
-17 -28 -21 -16 -6 -17 -9 -5 -16 21 -13 77 -12 86 1 3 6 1 15 -6 19 -7 5 -2
8 14 8 32 0 40 6 33 27 -7 17 -23 20 -32 5z"/>
<path d="M1327 2824 c-4 -4 0 -15 9 -25 13 -14 20 -16 40 -7 14 6 23 16 21 22
-4 13 -59 20 -70 10z"/>
<path d="M4510 2810 c0 -5 10 -10 23 -10 18 0 19 2 7 10 -19 13 -30 13 -30 0z"/>
<path d="M2570 2794 c0 -8 5 -12 10 -9 6 4 8 11 5 16 -9 14 -15 11 -15 -7z"/>
<path d="M2342 2788 c-14 -14 -16 -28 -2 -28 5 0 14 9 20 20 12 22 1 27 -18 8z"/>
<path d="M3533 2788 c-15 -25 -11 -39 13 -49 33 -12 34 -12 34 7 0 10 -6 14
-14 11 -9 -4 -12 0 -9 13 6 22 -12 35 -24 18z"/>
<path d="M1087 2783 c-12 -11 -8 -23 8 -23 8 0 15 7 15 15 0 16 -12 20 -23 8z"/>
<path d="M3424 2763 c-16 -26 -16 -78 1 -78 25 0 55 33 57 65 3 28 0 33 -19
35 -14 1 -29 -7 -39 -22z"/>
<path d="M1412 2758 c-7 -7 -24 -12 -40 -13 -43 0 -33 -28 16 -44 42 -13 43
-12 69 15 24 26 24 28 7 41 -22 16 -36 17 -52 1z"/>
<path d="M900 2740 c0 -5 5 -10 11 -10 5 0 7 5 4 10 -3 6 -8 10 -11 10 -2 0
-4 -4 -4 -10z"/>
<path d="M4823 2730 c-3 -11 -14 -20 -24 -20 -19 0 -25 -11 -13 -22 10 -11 64
27 64 45 0 24 -21 22 -27 -3z"/>
<path d="M1030 2730 c0 -5 7 -10 15 -10 8 0 15 5 15 10 0 6 -7 10 -15 10 -8 0
-15 -4 -15 -10z"/>
<path d="M1277 2734 c-11 -11 3 -24 18 -18 8 4 12 10 9 15 -6 11 -18 12 -27 3z"/>
<path d="M690 2721 c0 -14 28 -33 40 -26 20 12 10 35 -15 35 -14 0 -25 -4 -25
-9z"/>
<path d="M1178 2719 c-15 -8 -16 -13 -5 -29 13 -23 57 -27 57 -7 0 24 -33 47
-52 36z"/>
<path d="M1538 2685 c-3 -3 -3 -17 0 -30 3 -20 10 -25 33 -25 24 0 29 4 29 24
0 28 -43 49 -62 31z"/>
<path d="M148 2673 c7 -3 16 -2 19 1 4 3 -2 6 -13 5 -11 0 -14 -3 -6 -6z"/>
<path d="M1006 2633 c-12 -12 -5 -23 14 -23 11 0 20 4 20 9 0 11 -26 22 -34
14z"/>
<path d="M1408 2632 c-11 -5 -14 -12 -9 -20 11 -17 46 -11 46 7 0 17 -14 22
-37 13z"/>
<path d="M4240 2629 c0 -5 5 -7 10 -4 6 3 10 8 10 11 0 2 -4 4 -10 4 -5 0 -10
-5 -10 -11z"/>
<path d="M0 2595 c0 -17 18 -19 38 -6 11 7 10 10 -3 15 -26 10 -35 7 -35 -9z"/>
<path d="M153 2592 c-46 -3 -55 -15 -23 -32 24 -13 190 -21 190 -9 0 5 -11 9
-24 9 -13 0 -26 6 -29 14 -6 15 -51 23 -114 18z"/>
<path d="M1072 2538 c6 -18 28 -21 28 -4 0 9 -7 16 -16 16 -9 0 -14 -5 -12
-12z"/>
<path d="M4630 2541 c0 -15 16 -22 35 -15 13 5 14 8 3 15 -18 12 -38 11 -38 0z"/>
<path d="M934 2471 c4 -5 0 -12 -6 -15 -18 -7 28 -46 54 -46 10 0 16 -4 13
-10 -3 -5 1 -10 9 -10 19 0 16 50 -4 74 -13 17 -75 23 -66 7z"/>
<path d="M450 2448 c0 -13 44 -38 67 -38 13 0 18 32 6 43 -3 4 -12 2 -20 -5
-10 -8 -17 -8 -25 0 -16 16 -28 15 -28 0z"/>
<path d="M4550 2439 c0 -5 5 -7 10 -4 6 3 10 8 10 11 0 2 -4 4 -10 4 -5 0 -10
-5 -10 -11z"/>
<path d="M4695 2410 c-4 -6 5 -10 19 -10 14 0 26 5 26 10 0 6 -9 10 -19 10
-11 0 -23 -4 -26 -10z"/>
<path d="M1547 2399 c7 -7 15 -10 18 -7 3 3 -2 9 -12 12 -14 6 -15 5 -6 -5z"/>
<path d="M4160 2384 c0 -9 7 -14 17 -12 25 5 28 28 4 28 -12 0 -21 -6 -21 -16z"/>
<path d="M4480 2385 c0 -2 9 -9 20 -15 16 -9 18 -8 14 5 -5 13 -34 22 -34 10z"/>
<path d="M395 2369 c-10 -15 3 -25 16 -12 7 7 7 13 1 17 -6 3 -14 1 -17 -5z"/>
<path d="M1360 2370 c0 -5 4 -10 9 -10 6 0 13 5 16 10 3 6 -1 10 -9 10 -9 0
-16 -4 -16 -10z"/>
<path d="M4785 2370 c-11 -18 5 -30 41 -30 40 0 44 12 9 28 -32 15 -42 15 -50
2z"/>
<path d="M330 2340 c-8 -5 -12 -12 -8 -15 8 -8 58 5 58 16 0 12 -31 11 -50 -1z"/>
<path d="M4570 2335 c-7 -9 -10 -18 -7 -21 11 -11 57 6 57 21 0 20 -34 19 -50
0z"/>
<path d="M1435 2320 c3 -5 11 -10 16 -10 6 0 7 5 4 10 -3 6 -11 10 -16 10 -6
0 -7 -4 -4 -10z"/>
<path d="M4060 2311 c0 -29 21 -91 31 -91 10 0 35 43 33 58 -1 6 -2 17 -3 23
0 6 -10 8 -20 4 -13 -4 -23 0 -30 12 -9 16 -10 15 -11 -6z"/>
<path d="M285 2308 c-11 -6 -22 -14 -25 -17 -3 -4 -17 -12 -32 -18 -34 -15
-36 -33 -5 -33 13 0 38 15 57 35 36 37 38 51 5 33z"/>
<path d="M4523 2303 c-17 -6 -17 -43 0 -43 14 0 39 35 30 44 -7 7 -12 7 -30
-1z"/>
<path d="M4915 2297 c20 -16 20 -16 -2 -17 -29 0 -53 -10 -53 -22 0 -15 63
-37 93 -31 33 6 33 10 5 34 -19 17 -19 19 -3 19 27 0 7 17 -30 25 -29 7 -29 7
-10 -8z"/>
<path d="M1140 2289 c0 -5 5 -7 10 -4 6 3 10 8 10 11 0 2 -4 4 -10 4 -5 0 -10
-5 -10 -11z"/>
<path d="M4700 2285 c-7 -9 -10 -18 -6 -22 9 -10 58 16 51 27 -9 15 -31 12
-45 -5z"/>
<path d="M4601 2280 c-19 -11 5 -23 25 -12 14 8 14 10 2 15 -8 3 -21 2 -27 -3z"/>
<path d="M387 2264 c-15 -8 -32 -12 -37 -9 -6 4 -24 4 -40 0 -25 -6 -28 -9
-16 -20 11 -12 20 -12 46 -2 27 10 33 10 44 -6 15 -20 32 -22 40 -4 5 10 7 10
12 0 8 -17 24 -16 24 1 0 8 -7 16 -15 20 -8 3 -15 12 -15 21 0 19 -7 18 -43
-1z"/>
<path d="M1525 2270 c3 -5 8 -10 11 -10 2 0 4 5 4 10 0 6 -5 10 -11 10 -5 0
-7 -4 -4 -10z"/>
<path d="M997 2240 c-3 -12 2 -20 17 -24 18 -5 19 -8 6 -16 -10 -6 -11 -10 -2
-10 19 0 27 4 25 13 -2 4 2 7 7 7 21 0 5 -33 -20 -42 -11 -4 -6 -9 15 -18 17
-8 33 -14 37 -14 3 -1 10 -5 15 -9 4 -5 4 -7 -2 -5 -5 1 -21 -5 -35 -15 -24
-16 -24 -17 -3 -17 28 0 63 45 63 82 0 16 -4 27 -8 24 -4 -2 -14 0 -22 5 -12
7 -12 11 -2 17 8 5 -5 14 -37 24 -46 15 -50 15 -54 -2z"/>
<path d="M0 2236 c0 -9 5 -16 10 -16 6 0 10 4 10 9 0 6 -4 13 -10 16 -5 3 -10
-1 -10 -9z"/>
<path d="M4624 2221 c4 -6 13 -11 20 -11 8 0 26 -6 41 -14 27 -14 55 -12 55 4
0 13 -11 17 -69 25 -38 5 -52 4 -47 -4z"/>
<path d="M4817 2213 c-12 -3 -16 -11 -12 -23 3 -11 0 -20 -10 -24 -8 -3 -15
-17 -15 -31 0 -24 2 -25 47 -25 4 0 8 6 9 13 0 6 2 20 2 31 1 11 7 16 17 13 7
-3 24 2 37 13 l23 18 -28 11 c-29 11 -39 12 -70 4z"/>
<path d="M1182 2189 c-16 -6 -22 -15 -20 -30 4 -29 29 -43 61 -35 33 8 38 50
8 66 -23 12 -19 12 -49 -1z"/>
<path d="M266 2171 c-3 -5 1 -11 9 -15 8 -3 15 -11 15 -18 0 -7 9 -19 20 -26
22 -14 27 -34 7 -26 -8 3 -20 -2 -27 -11 -10 -13 -9 -15 7 -15 10 0 25 -6 32
-12 10 -11 14 -10 21 3 13 22 114 24 106 3 -3 -8 -1 -14 4 -14 10 0 23 37 16
48 -5 9 -70 7 -85 -3 -18 -10 -74 52 -68 75 4 16 0 20 -23 20 -16 0 -31 -4
-34 -9z"/>
<path d="M4520 2115 c0 -31 7 -31 45 0 l30 25 -37 0 c-34 0 -38 -3 -38 -25z"/>
<path d="M4255 2110 c3 -5 8 -10 11 -10 2 0 4 5 4 10 0 6 -5 10 -11 10 -5 0
-7 -4 -4 -10z"/>
<path d="M189 2084 c-1 -2 -2 -7 -3 -11 -1 -5 -5 -14 -10 -21 -13 -21 0 -25
30 -10 37 17 41 34 9 40 -14 3 -26 4 -26 2z"/>
<path d="M4100 2075 c7 -9 15 -13 17 -11 7 7 -7 26 -19 26 -6 0 -6 -6 2 -15z"/>
<path d="M99 2040 c-9 -5 -35 -8 -58 -6 -30 3 -41 0 -41 -10 0 -8 4 -14 9 -14
5 0 11 -9 14 -20 3 -11 10 -20 16 -20 7 0 9 9 6 23 -5 19 -2 22 30 24 63 4 75
7 75 20 0 15 -28 17 -51 3z"/>
<path d="M2468 2043 c6 -2 18 -2 25 0 6 3 1 5 -13 5 -14 0 -19 -2 -12 -5z"/>
<path d="M4585 2030 c-3 -5 3 -10 14 -10 11 0 23 5 26 10 3 6 -3 10 -14 10
-11 0 -23 -4 -26 -10z"/>
<path d="M4745 2020 c-4 -6 5 -10 20 -10 15 0 24 4 20 10 -3 6 -12 10 -20 10
-8 0 -17 -4 -20 -10z"/>
<path d="M175 1999 c-4 -6 -5 -12 -4 -14 7 -7 59 8 59 16 0 13 -47 11 -55 -2z"/>
<path d="M390 1999 c0 -6 9 -8 20 -4 14 4 20 2 20 -9 0 -19 14 -28 35 -20 15
6 14 8 -1 25 -18 20 -74 26 -74 8z"/>
<path d="M4180 1994 c0 -9 5 -14 12 -12 18 6 21 28 4 28 -9 0 -16 -7 -16 -16z"/>
<path d="M115 1980 c3 -5 13 -10 21 -10 8 0 12 5 9 10 -3 6 -13 10 -21 10 -8
0 -12 -4 -9 -10z"/>
<path d="M350 1976 c0 -9 -15 -15 -42 -18 -24 -3 -51 -8 -60 -12 -14 -6 -18
-3 -18 13 0 24 -15 28 -23 7 -4 -9 -14 -13 -29 -9 -21 4 -22 3 -6 -10 20 -16
14 -27 -16 -27 -12 0 -32 -6 -46 -13 -14 -7 -44 -11 -67 -9 -42 4 -43 3 -43
-25 0 -28 2 -30 38 -29 20 1 37 -3 37 -9 0 -11 -5 -12 -47 -14 -39 -1 -35 -21
3 -21 18 0 37 -7 44 -17 10 -13 16 -15 26 -6 18 14 69 5 69 -12 0 -13 -32 -22
-77 -23 -16 -1 -25 7 -29 24 -6 24 -19 25 -19 1 0 -5 -6 -12 -12 -14 -7 -3
-13 2 -13 11 0 9 -4 16 -10 16 -6 0 -10 -95 -10 -264 l0 -264 29 26 c30 26
127 62 168 62 18 0 23 9 33 58 6 31 18 80 27 107 18 60 87 193 112 214 9 9 18
27 18 40 2 31 7 34 55 37 35 1 42 5 42 21 0 34 -25 49 -79 47 -27 0 -60 -4
-72 -8 -18 -6 -21 -4 -16 15 6 20 5 20 -23 6 -20 -10 -46 -13 -79 -10 l-50 4
24 -19 24 -19 -24 -6 c-42 -12 -55 -9 -33 8 19 14 19 14 -3 15 -12 0 -25 4
-28 10 -3 5 -20 7 -38 3 -24 -4 -29 -3 -21 6 6 6 33 15 60 20 27 5 58 12 68
16 14 6 17 5 12 -3 -4 -7 -1 -12 7 -12 8 0 14 8 13 17 -1 14 8 18 44 19 25 0
48 -4 51 -9 8 -12 31 1 24 13 -3 5 7 12 22 16 50 11 60 18 31 22 -16 2 -28 8
-28 13 0 5 -4 9 -10 9 -5 0 -10 -6 -10 -14z"/>
<path d="M2515 1970 c3 -5 8 -10 11 -10 2 0 4 5 4 10 0 6 -5 10 -11 10 -5 0
-7 -4 -4 -10z"/>
<path d="M4518 1968 c-21 -6 -38 -14 -38 -19 0 -6 16 -7 38 -4 58 10 73 16 67
26 -7 11 -17 10 -67 -3z"/>
<path d="M4801 1960 c-39 -24 -35 -34 14 -32 19 0 56 1 81 1 52 1 57 21 8 32
-16 4 -38 10 -49 13 -12 4 -34 -2 -54 -14z"/>
<path d="M4970 1965 c7 -8 16 -15 21 -15 5 0 9 7 9 15 0 9 -9 15 -21 15 -18 0
-19 -2 -9 -15z"/>
<path d="M1027 1956 c7 -13 8 -27 1 -42 -7 -15 -7 -28 1 -43 14 -25 29 -26 57
-6 27 18 21 62 -10 71 -11 3 -30 14 -40 23 -18 15 -19 15 -9 -3z"/>
<path d="M950 1946 c23 -22 70 -25 70 -5 0 7 -10 9 -25 7 -14 -3 -28 -1 -31 3
-3 5 -10 9 -17 9 -7 0 -6 -5 3 -14z"/>
<path d="M4060 1945 c0 -8 5 -15 10 -15 6 0 10 7 10 15 0 8 -4 15 -10 15 -5 0
-10 -7 -10 -15z"/>
<path d="M410 1924 l-25 -14 27 0 c14 0 29 -6 31 -12 3 -8 6 -6 6 5 1 9 8 17
16 17 8 0 15 5 15 10 0 14 -40 11 -70 -6z"/>
<path d="M4598 1883 c7 -3 16 -2 19 1 4 3 -2 6 -13 5 -11 0 -14 -3 -6 -6z"/>
<path d="M4079 1878 c0 -2 -2 -11 -4 -21 -3 -15 -1 -16 11 -6 7 6 11 15 8 20
-5 9 -13 12 -15 7z"/>
<path d="M4921 1871 c-7 -5 -10 -14 -7 -20 10 -16 41 -14 56 4 8 9 8 15 2 15
-6 0 -16 2 -24 5 -7 3 -19 1 -27 -4z"/>
<path d="M4450 1850 c0 -5 5 -10 10 -10 6 0 10 5 10 10 0 6 -4 10 -10 10 -5 0
-10 -4 -10 -10z"/>
<path d="M4230 1836 c0 -22 19 -30 35 -16 22 18 18 30 -10 30 -15 0 -25 -6
-25 -14z"/>
<path d="M4145 1830 c3 -5 11 -10 16 -10 6 0 7 5 4 10 -3 6 -11 10 -16 10 -6
0 -7 -4 -4 -10z"/>
<path d="M770 1800 c0 -13 28 -25 38 -16 3 4 0 11 -8 16 -20 13 -30 12 -30 0z"/>
<path d="M1050 1785 c-10 -13 -9 -15 9 -15 11 0 21 4 21 9 0 18 -18 21 -30 6z"/>
<path d="M4943 1785 c-22 -24 -15 -35 23 -35 31 0 35 3 32 23 -4 26 -37 34
-55 12z"/>
<path d="M519 1764 c-13 -14 -38 -32 -56 -39 -34 -14 -62 -53 -45 -64 5 -3 11
-15 13 -26 5 -25 25 -21 22 4 -1 11 18 37 47 64 29 27 50 55 50 67 0 26 -2 25
-31 -6z"/>
<path d="M105 1760 c-7 -12 2 -12 30 0 19 8 19 9 -2 9 -12 1 -25 -3 -28 -9z"/>
<path d="M1113 1759 c-17 -17 -4 -39 23 -39 28 0 44 28 23 41 -19 12 -33 11
-46 -2z"/>
<path d="M4513 1762 c-25 -4 -31 -27 -10 -35 7 -3 19 4 26 15 15 23 13 25 -16
20z"/>
<path d="M921 1730 c-19 -16 -33 -31 -30 -32 2 -2 19 -9 37 -15 27 -10 34 -9
38 2 3 8 3 19 -1 26 -5 8 0 9 16 4 13 -3 19 -3 13 2 -6 4 -13 16 -17 26 -9 23
-16 21 -56 -13z"/>
<path d="M4757 1736 c-13 -10 -15 -15 -5 -19 9 -3 8 -9 -7 -21 -16 -12 -17
-15 -4 -16 13 0 59 50 59 65 0 10 -25 4 -43 -9z"/>
<path d="M1045 1730 c-3 -5 1 -10 10 -10 9 0 13 5 10 10 -3 6 -8 10 -10 10 -2
0 -7 -4 -10 -10z"/>
<path d="M1430 1720 c0 -5 9 -10 20 -10 11 0 20 5 20 10 0 6 -9 10 -20 10 -11
0 -20 -4 -20 -10z"/>
<path d="M4942 1709 c-27 -10 -28 -15 -2 -29 21 -11 60 1 60 19 0 13 -33 19
-58 10z"/>
<path d="M1209 1674 c-18 -22 -1 -34 54 -38 26 -2 56 -11 66 -20 9 -9 27 -16
39 -16 12 0 38 -9 58 -21 26 -14 40 -17 47 -10 14 14 -19 40 -49 41 -12 0 -27
7 -34 15 -8 9 -29 15 -56 15 -23 0 -46 5 -49 10 -3 6 -19 17 -35 25 -25 13
-29 13 -41 -1z"/>
<path d="M610 1640 c-6 -11 -7 -20 -2 -20 10 0 32 21 32 32 0 16 -19 8 -30
-12z"/>
<path d="M1160 1635 c0 -17 43 -65 58 -65 22 0 22 19 0 43 -29 30 -58 41 -58
22z"/>
<path d="M967 1620 c-21 -25 -22 -40 -3 -40 8 0 16 -5 18 -11 6 -18 38 2 38
25 0 20 -17 46 -30 46 -3 0 -13 -9 -23 -20z"/>
<path d="M4230 1614 c0 -8 5 -12 10 -9 6 3 10 10 10 16 0 5 -4 9 -10 9 -5 0
-10 -7 -10 -16z"/>
<path d="M865 1610 c-3 -5 -2 -10 4 -10 5 0 13 5 16 10 3 6 2 10 -4 10 -5 0
-13 -4 -16 -10z"/>
<path d="M520 1596 c0 -2 9 -6 20 -9 11 -3 20 -1 20 4 0 5 -9 9 -20 9 -11 0
-20 -2 -20 -4z"/>
<path d="M1697 1584 c-10 -11 3 -24 24 -24 23 0 25 15 3 24 -19 7 -19 7 -27 0z"/>
<path d="M537 1555 c6 -17 25 -15 31 3 2 7 -5 12 -17 12 -14 0 -19 -5 -14 -15z"/>
<path d="M930 1560 c0 -5 7 -10 16 -10 8 0 12 5 9 10 -3 6 -10 10 -16 10 -5 0
-9 -4 -9 -10z"/>
<path d="M4588 1563 c19 -8 14 -23 -9 -23 -11 0 -17 5 -14 10 3 6 1 10 -5 10
-7 0 -9 -7 -6 -16 3 -9 6 -18 6 -20 0 -2 14 -4 31 -4 24 0 30 3 25 16 -3 9 -6
20 -6 25 0 5 -8 9 -17 8 -11 0 -13 -3 -5 -6z"/>
<path d="M1059 1533 c9 -32 47 -45 57 -18 8 20 -3 32 -38 40 -25 7 -26 5 -19
-22z"/>
<path d="M1213 1530 c-12 -5 -28 -18 -35 -30 -7 -11 -18 -20 -25 -20 -7 0 -13
-9 -13 -21 0 -17 4 -20 28 -15 15 3 33 2 40 -2 16 -10 5 -42 -14 -42 -8 0 -15
-7 -15 -15 -3 -28 -4 -31 -22 -49 -9 -10 -17 -30 -16 -44 1 -15 0 -34 -2 -42
-3 -11 3 -14 26 -11 55 7 68 6 72 -6 3 -7 -7 -11 -26 -11 -39 1 -77 -24 -83
-56 -4 -19 5 -36 36 -71 41 -44 42 -45 89 -39 26 4 48 12 49 18 0 6 2 16 2 21
2 17 43 65 55 65 7 0 9 -9 6 -23 -7 -26 14 -70 35 -75 8 -2 18 -9 22 -15 6 -9
11 -8 18 3 5 8 10 20 10 25 0 6 20 31 45 57 l44 47 -55 7 c-31 3 -75 4 -98 1
-68 -10 -115 2 -122 28 -3 13 -1 32 4 42 7 12 7 25 1 36 -7 12 -6 17 3 17 9 0
9 3 -2 10 -10 6 -11 10 -2 10 17 0 15 40 -4 61 -32 35 11 48 65 20 24 -13 65
-5 82 15 9 11 6 15 -20 20 -17 4 -31 10 -31 15 0 5 -11 4 -24 -3 -36 -16 -53
-4 -61 41 -7 43 -18 49 -62 31z m47 -340 c0 -5 -2 -10 -4 -10 -3 0 -8 5 -11
10 -3 6 -1 10 4 10 6 0 11 -4 11 -10z"/>
<path d="M4250 1531 c0 -6 5 -13 10 -16 6 -3 10 1 10 9 0 9 -4 16 -10 16 -5 0
-10 -4 -10 -9z"/>
<path d="M1860 1516 c0 -9 5 -16 10 -16 6 0 10 4 10 9 0 6 -4 13 -10 16 -5 3
-10 -1 -10 -9z"/>
<path d="M1594 1509 c-3 -6 -17 -8 -31 -4 -29 7 -54 -10 -46 -31 3 -8 0 -14
-6 -14 -6 0 -11 -9 -11 -20 0 -24 22 -26 40 -5 7 8 19 15 26 15 8 0 19 11 24
25 6 16 17 25 30 25 12 0 18 5 15 10 -8 13 -32 13 -41 -1z"/>
<path d="M2125 1510 c3 -5 13 -10 21 -10 8 0 12 5 9 10 -3 6 -13 10 -21 10 -8
0 -12 -4 -9 -10z"/>
<path d="M2550 1499 c0 -5 5 -7 10 -4 6 3 10 8 10 11 0 2 -4 4 -10 4 -5 0 -10
-5 -10 -11z"/>
<path d="M4140 1500 c0 -5 9 -10 21 -10 11 0 17 5 14 10 -3 6 -13 10 -21 10
-8 0 -14 -4 -14 -10z"/>
<path d="M516 1484 c-6 -15 3 -18 28 -8 22 8 20 19 -3 21 -11 1 -22 -5 -25
-13z"/>
<path d="M4292 1484 c-14 -15 -7 -17 22 -5 15 6 16 9 5 13 -8 3 -20 -1 -27 -8z"/>
<path d="M4460 1470 c-8 -5 -11 -12 -8 -16 10 -9 38 3 38 16 0 12 -10 13 -30
0z"/>
<path d="M1034 1449 c-3 -6 -2 -15 3 -20 14 -14 -36 -109 -63 -121 -36 -17
-43 -58 -10 -58 14 0 52 49 48 63 -2 9 30 9 52 1 9 -3 16 -12 16 -20 0 -8 5
-14 10 -14 6 0 10 6 10 14 0 8 14 26 31 40 17 14 25 26 19 26 -8 0 -10 9 -6
24 6 26 -10 44 -57 64 -35 15 -44 15 -53 1z"/>
<path d="M1750 1438 c0 -7 9 -19 20 -26 12 -7 18 -16 16 -21 -8 -12 31 -44 44
-36 8 5 6 13 -6 26 -9 11 -22 29 -28 41 -13 25 -46 37 -46 16z"/>
<path d="M1630 1410 c0 -18 37 -31 49 -16 6 7 8 16 4 19 -10 11 -53 8 -53 -3z"/>
<path d="M1942 1394 c4 -21 22 -23 26 -1 2 10 -3 17 -13 17 -10 0 -15 -6 -13
-16z"/>
<path d="M2017 1390 c10 -12 21 -16 26 -11 13 13 -1 31 -23 31 -19 0 -19 -1
-3 -20z"/>
<path d="M858 1386 c-23 -17 -23 -26 1 -26 11 0 21 -5 23 -12 2 -6 9 -8 16 -4
8 5 8 13 0 31 -13 28 -16 29 -40 11z"/>
<path d="M4220 1390 c0 -5 5 -10 10 -10 6 0 10 5 10 10 0 6 -4 10 -10 10 -5 0
-10 -4 -10 -10z"/>
<path d="M1962 1348 c3 -7 13 -15 22 -16 12 -3 17 1 14 10 -3 7 -13 15 -22 16
-12 3 -17 -1 -14 -10z"/>
<path d="M2570 1350 c0 -5 5 -10 11 -10 5 0 7 5 4 10 -3 6 -8 10 -11 10 -2 0
-4 -4 -4 -10z"/>
<path d="M1595 1320 c-4 -6 -1 -18 7 -27 7 -9 12 -18 11 -20 -9 -12 0 -23 20
-24 12 0 16 -3 9 -6 -6 -2 -9 -9 -6 -14 3 -6 11 -5 20 2 11 9 14 8 14 -3 0 -8
-15 -22 -32 -31 -21 -10 -27 -16 -15 -16 9 -1 17 -5 17 -10 0 -15 44 -21 58
-8 13 14 6 81 -8 72 -11 -7 -46 38 -54 68 -6 27 -29 36 -41 17z"/>
<path d="M155 1310 c-16 -7 -11 -9 20 -9 29 -1 36 2 25 9 -17 11 -19 11 -45 0z"/>
<path d="M1918 1293 c7 -3 16 -2 19 1 4 3 -2 6 -13 5 -11 0 -14 -3 -6 -6z"/>
<path d="M1722 1273 c3 -15 56 -38 67 -28 2 3 -4 14 -14 25 -22 25 -58 27 -53
3z"/>
<path d="M2120 1270 c-12 -8 -9 -10 13 -10 16 0 26 4 22 10 -8 12 -16 12 -35
0z"/>
<path d="M1526 1263 c-12 -12 -5 -23 14 -23 11 0 20 4 20 9 0 11 -26 22 -34
14z"/>
<path d="M142 1233 c-5 -16 -13 -36 -17 -45 -5 -13 -2 -18 9 -18 9 0 21 -9 28
-20 17 -27 26 -25 26 5 0 15 -8 27 -19 30 -26 9 -24 23 6 37 32 14 32 38 1 38
-17 0 -27 -8 -34 -27z"/>
<path d="M4010 1250 c0 -5 7 -10 16 -10 8 0 12 5 9 10 -3 6 -10 10 -16 10 -5
0 -9 -4 -9 -10z"/>
<path d="M65 1229 c-4 -6 -5 -13 -2 -16 7 -7 27 6 27 18 0 12 -17 12 -25 -2z"/>
<path d="M4201 1224 c0 -11 3 -14 6 -6 3 7 2 16 -1 19 -3 4 -6 -2 -5 -13z"/>
<path d="M4686 1231 c-4 -6 -16 -11 -27 -11 -10 0 -19 -4 -19 -10 0 -5 -6 -10
-14 -10 -7 0 -19 -7 -26 -15 -7 -8 -22 -15 -34 -16 -20 0 -20 -1 -1 -8 19 -8
19 -8 -2 -19 -12 -7 -28 -12 -35 -12 -7 0 -31 -12 -53 -26 -23 -14 -31 -22
-18 -19 18 5 25 1 35 -19 15 -34 34 -33 47 4 5 17 15 30 21 30 24 0 49 -21 44
-35 -4 -8 -1 -15 6 -15 7 0 9 -8 5 -19 -5 -15 -2 -18 13 -14 24 6 117 82 117
95 0 5 5 12 11 16 15 10 24 51 13 58 -5 3 -9 14 -9 25 0 10 -6 19 -12 19 -7 0
-23 3 -34 6 -12 3 -25 1 -28 -5z"/>
<path d="M4986 1178 c6 -71 14 -74 14 -5 0 32 -4 57 -9 57 -5 0 -8 -23 -5 -52z"/>
<path d="M105 1210 c-3 -5 -2 -10 4 -10 5 0 13 5 16 10 3 6 2 10 -4 10 -5 0
-13 -4 -16 -10z"/>
<path d="M2160 1208 c0 -8 9 -23 20 -33 16 -15 20 -15 20 -3 0 8 -9 23 -20 33
-16 15 -20 15 -20 3z"/>
<path d="M2568 1203 c6 -2 18 -2 25 0 6 3 1 5 -13 5 -14 0 -19 -2 -12 -5z"/>
<path d="M7 1194 c-4 -4 -2 -15 4 -26 7 -14 7 -23 -2 -34 -7 -9 -8 -14 -1 -14
6 0 14 5 17 10 12 19 51 11 64 -14 14 -26 55 -37 87 -25 18 7 18 8 1 8 -12 1
-16 5 -11 14 6 9 5 9 -7 0 -16 -13 -62 -7 -54 7 3 4 -2 10 -10 14 -20 7 -19
36 0 36 8 0 15 5 15 10 0 6 -7 10 -15 10 -8 0 -15 -4 -15 -9 0 -20 -33 -21
-50 -1 -9 11 -20 17 -23 14z"/>
<path d="M1019 1168 c-8 -89 -4 -107 22 -101 27 7 35 50 16 82 -18 29 -36 39
-38 19z"/>
<path d="M1860 1145 c0 -8 2 -15 4 -15 2 0 11 -3 20 -6 12 -4 16 0 16 15 0 14
-6 21 -20 21 -11 0 -20 -7 -20 -15z"/>
<path d="M1940 1147 c0 -18 21 -37 41 -37 24 0 33 18 19 35 -15 19 -60 20 -60
2z"/>
<path d="M2130 1131 c0 -6 6 -21 13 -34 6 -12 13 -24 14 -25 1 -2 11 -1 22 3
37 11 23 49 -22 60 -17 5 -27 3 -27 -4z"/>
<path d="M34 1105 c-9 -19 -9 -27 1 -35 10 -8 13 -3 13 25 0 19 -1 35 -1 35
-1 0 -7 -11 -13 -25z"/>
<path d="M4821 1114 c0 -11 3 -14 6 -6 3 7 2 16 -1 19 -3 4 -6 -2 -5 -13z"/>
<path d="M1510 1095 c-4 -5 -11 -28 -14 -51 -6 -36 -5 -41 18 -54 15 -7 26
-17 26 -22 0 -13 -16 -9 -30 7 -8 10 -21 13 -33 9 -11 -3 -33 -7 -49 -8 -16
-1 -33 -8 -38 -16 -7 -11 -14 -12 -36 -2 -14 7 -27 11 -28 10 0 -2 -18 -22
-40 -45 -26 -28 -36 -45 -30 -55 5 -7 9 -22 9 -33 0 -16 9 -21 42 -26 24 -3
45 -8 48 -10 3 -3 -4 -24 -15 -47 -14 -28 -27 -42 -40 -42 -33 0 -25 -13 41
-63 45 -34 51 -34 43 -1 -5 18 0 34 15 55 12 16 26 40 31 54 8 22 6 27 -21 40
-24 13 -29 20 -23 38 9 32 33 47 77 47 51 0 77 15 77 45 0 29 0 28 35 15 l26
-10 -7 46 c-5 39 -3 48 15 66 13 11 21 29 19 41 -3 19 -9 22 -56 22 -30 0 -57
-4 -62 -10z"/>
<path d="M2240 1074 c0 -18 28 -49 36 -41 3 3 3 14 0 25 -8 25 -36 37 -36 16z"/>
<path d="M73 1050 c-13 -10 -23 -23 -23 -30 0 -6 -4 -8 -10 -5 -6 3 -10 -3
-10 -14 0 -12 -5 -21 -11 -21 -6 0 -9 7 -6 15 4 8 2 17 -3 20 -4 3 -8 -26 -8
-64 0 -56 3 -69 14 -64 8 3 14 8 14 12 0 4 6 16 14 26 13 18 14 18 9 -7 -3
-15 -11 -33 -19 -39 -8 -6 -14 -18 -14 -25 0 -8 -4 -14 -10 -14 -6 0 -9 -157
-10 -419 l0 -419 164 -1 163 -2 -24 98 c-13 54 -35 156 -49 228 -31 161 -32
164 -44 145 -8 -13 -10 -12 -10 2 0 9 5 20 11 24 7 4 9 20 4 43 -9 45 -24 264
-25 354 0 60 -2 67 -20 67 -15 0 -20 -7 -20 -28 0 -15 5 -33 11 -39 9 -9 8
-16 -5 -28 -18 -18 -21 -30 -6 -20 6 3 7 -1 4 -9 -8 -20 -14 -20 -29 1 -11 15
-12 14 -8 -11 4 -20 2 -27 -6 -22 -14 9 -15 72 -1 81 6 3 10 11 10 16 0 6 -4
7 -10 4 -5 -3 -10 2 -10 13 0 10 11 24 24 31 14 8 26 26 30 43 3 16 13 36 21
44 23 23 18 34 -15 34 -22 0 -28 -4 -24 -15 8 -19 -22 -20 -33 -1 -7 12 -12
11 -30 -4z m27 -70 c0 -5 -4 -10 -9 -10 -6 0 -13 5 -16 10 -3 6 1 10 9 10 9 0
16 -4 16 -10z m-30 -20 c0 -5 -4 -10 -10 -10 -5 0 -10 5 -10 10 0 6 5 10 10
10 6 0 10 -4 10 -10z m50 -201 c0 -5 -4 -9 -10 -9 -5 0 -6 -7 -3 -17 4 -11 3
-14 -5 -9 -18 11 -15 57 3 50 8 -4 15 -10 15 -15z m-30 -59 c0 -5 12 -10 28
-10 19 0 23 -3 13 -9 -7 -5 -11 -13 -7 -19 8 -13 46 -3 46 12 0 6 4 5 9 -3 11
-18 -12 -43 -32 -36 -9 4 -13 -1 -12 -14 1 -21 15 -43 15 -24 0 20 43 7 47
-15 3 -24 -7 -28 -25 -10 -9 9 -12 9 -12 -1 0 -11 -3 -11 -15 -1 -30 25 -35 3
-6 -25 34 -33 43 -85 15 -85 -9 0 -14 6 -11 13 8 20 -17 47 -34 36 -22 -14
-26 -11 -33 23 -4 20 -2 34 6 39 8 5 7 14 -5 32 -16 25 -13 107 4 107 5 0 9
-4 9 -10z m-60 -80 c0 -5 -4 -10 -10 -10 -5 0 -10 5 -10 10 0 6 5 10 10 10 6
0 10 -4 10 -10z m168 -103 c-7 -14 -13 -17 -16 -9 -6 19 6 44 18 37 7 -4 6
-14 -2 -28z m-6 -73 c0 -22 -6 -52 -13 -69 -7 -16 -12 -33 -11 -37 1 -3 -5 -9
-13 -12 -8 -3 -15 0 -15 6 0 18 43 158 47 154 3 -2 4 -21 5 -42z m-109 -1 c-7
-2 -19 -2 -25 0 -7 3 -2 5 12 5 14 0 19 -2 13 -5z m40 -67 c-3 -12 -6 -29 -5
-38 0 -10 -6 -18 -14 -18 -8 0 -14 -10 -15 -22 -1 -21 -2 -20 -14 7 -19 42
-18 85 3 105 15 16 19 16 35 2 11 -10 15 -22 10 -36z m-92 -68 c11 -21 11 -22
-4 -9 -10 7 -17 17 -17 22 0 15 9 10 21 -13z m136 -22 c-13 -28 -26 -25 -24 4
1 12 8 20 18 20 15 0 15 -4 6 -24z m68 14 c3 -6 -1 -7 -9 -4 -18 7 -21 14 -7
14 6 0 13 -4 16 -10z m-195 -34 c0 -2 -7 -6 -15 -10 -8 -3 -15 -1 -15 4 0 6 7
10 15 10 8 0 15 -2 15 -4z m33 -3 c-7 -2 -13 -9 -13 -14 0 -6 4 -8 9 -4 5 3
12 1 16 -5 3 -5 -3 -10 -14 -10 -21 0 -25 -8 -22 -42 2 -19 -7 -22 -27 -10
-15 10 -6 43 15 55 7 4 13 15 13 22 0 8 8 15 18 14 10 0 12 -3 5 -6z m-13
-119 c0 -8 -4 -12 -10 -9 -5 3 -10 10 -10 16 0 5 5 9 10 9 6 0 10 -7 10 -16z
m-23 -96 c-3 -7 -5 -2 -5 12 0 14 2 19 5 13 2 -7 2 -19 0 -25z"/>
<path d="M4395 1060 c-3 -5 -1 -10 4 -10 6 0 11 5 11 10 0 6 -2 10 -4 10 -3 0
-8 -4 -11 -10z"/>
<path d="M1882 1047 c-14 -17 9 -47 37 -47 24 0 27 17 7 43 -16 20 -30 22 -44
4z"/>
<path d="M10 1040 c0 -5 5 -10 10 -10 6 0 10 5 10 10 0 6 -4 10 -10 10 -5 0
-10 -4 -10 -10z"/>
<path d="M1385 1040 c-3 -5 1 -10 10 -10 9 0 13 5 10 10 -3 6 -8 10 -10 10 -2
0 -7 -4 -10 -10z"/>
<path d="M4260 1029 c0 -11 5 -17 10 -14 6 3 10 13 10 21 0 8 -4 14 -10 14 -5
0 -10 -9 -10 -21z"/>
<path d="M1647 1023 c-24 -23 38 -95 74 -86 33 9 32 22 -8 58 -38 35 -53 41
-66 28z"/>
<path d="M1059 995 c-1 -8 -2 -20 -3 -27 -1 -16 45 -18 51 -1 6 16 -14 43 -33
43 -8 0 -15 -7 -15 -15z"/>
<path d="M1153 1003 c-7 -2 -13 -15 -13 -29 0 -17 7 -25 25 -30 35 -9 40 -1
25 36 -13 31 -15 32 -37 23z"/>
<path d="M2240 970 c0 -5 5 -10 10 -10 6 0 10 5 10 10 0 6 -4 10 -10 10 -5 0
-10 -4 -10 -10z"/>
<path d="M646 955 c-3 -9 0 -15 9 -15 8 0 15 7 15 15 0 8 -4 15 -9 15 -5 0
-11 -7 -15 -15z"/>
<path d="M2085 950 c3 -5 11 -10 16 -10 6 0 7 5 4 10 -3 6 -11 10 -16 10 -6 0
-7 -4 -4 -10z"/>
<path d="M1065 918 c10 -32 21 -42 39 -35 20 8 21 37 1 37 -8 0 -15 5 -15 10
0 6 -7 10 -16 10 -11 0 -14 -6 -9 -22z"/>
<path d="M1176 905 c4 -8 8 -15 10 -15 2 0 4 7 4 15 0 8 -4 15 -10 15 -5 0 -7
-7 -4 -15z"/>
<path d="M2122 903 c2 -10 12 -19 23 -20 11 -2 14 0 8 3 -7 3 -13 12 -13 20 0
8 -5 14 -11 14 -6 0 -9 -8 -7 -17z"/>
<path d="M2294 904 c3 -8 6 -18 6 -20 0 -2 5 -4 10 -4 16 0 11 27 -6 34 -12 5
-15 2 -10 -10z"/>
<path d="M1657 838 c-15 -17 -26 -37 -23 -44 3 -7 -1 -15 -9 -17 -19 -8 -4
-71 18 -75 10 -2 26 7 36 19 l19 23 40 -36 c22 -20 37 -39 34 -43 -4 -4 -7
-21 -7 -37 0 -26 -5 -33 -32 -42 -43 -15 -51 -26 -25 -33 25 -6 30 -23 6 -23
-25 0 -12 -35 15 -38 14 -2 33 -15 44 -28 20 -26 63 -32 98 -14 13 7 19 7 19
0 0 -5 -8 -10 -17 -10 -27 0 -2 -17 35 -23 44 -9 43 14 -5 62 -34 35 -37 43
-39 100 -2 55 0 63 22 77 26 17 33 54 10 54 -7 0 -19 7 -26 15 -7 8 -26 15
-42 15 -31 0 -31 1 -11 -47 3 -7 -2 -13 -10 -13 -18 0 -33 74 -23 114 6 25
-18 60 -44 63 -8 1 -24 4 -35 7 -14 4 -28 -3 -48 -26z"/>
<path d="M2296 855 c4 -8 10 -15 15 -15 5 0 9 7 9 15 0 8 -7 15 -15 15 -9 0
-12 -6 -9 -15z"/>
<path d="M1460 834 c0 -10 7 -26 16 -36 15 -16 15 -18 1 -24 -13 -5 -14 -9 -4
-21 34 -42 49 -53 70 -53 21 0 23 4 21 59 -2 70 -7 81 -37 79 -12 -1 -32 2
-44 6 -18 6 -23 4 -23 -10z"/>
<path d="M2370 830 c0 -5 5 -10 11 -10 5 0 7 5 4 10 -3 6 -8 10 -11 10 -2 0
-4 -4 -4 -10z"/>
<path d="M4287 821 c3 -12 9 -21 14 -21 14 0 11 16 -5 29 -12 10 -13 8 -9 -8z"/>
<path d="M1890 801 c-17 -32 -13 -71 8 -71 23 0 62 28 62 44 0 15 -32 46 -48
46 -6 0 -16 -9 -22 -19z"/>
<path d="M2235 810 c-3 -5 -1 -18 4 -27 11 -19 11 -19 15 15 3 23 -8 30 -19
12z"/>
<path d="M1245 781 c-7 -12 12 -24 25 -16 11 7 4 25 -10 25 -5 0 -11 -4 -15
-9z"/>
<path d="M4686 768 c-15 -16 -26 -19 -58 -14 -37 6 -38 5 -28 -14 6 -12 18
-24 26 -27 13 -5 13 -7 2 -15 -11 -7 -10 -11 2 -21 8 -6 14 -23 12 -37 -3 -23
-1 -22 22 11 22 32 29 36 71 37 47 0 47 0 41 -28 -3 -16 -1 -32 4 -35 17 -10
11 -25 -10 -25 -11 0 -20 -4 -20 -9 0 -10 54 -31 81 -31 26 0 24 -21 -2 -27
-11 -3 -18 -11 -15 -18 2 -7 -1 -18 -7 -24 -8 -8 -5 -17 11 -34 13 -13 22 -36
22 -54 0 -36 34 -83 61 -83 12 0 19 -7 19 -19 0 -10 7 -24 15 -31 8 -7 15 -18
15 -25 0 -7 11 -15 25 -17 l25 -5 0 123 c0 119 -7 145 -29 107 -8 -16 -11 -15
-30 7 -25 30 -25 34 -6 50 8 7 15 9 15 4 0 -16 20 21 20 38 0 22 -28 30 -67
19 -26 -8 -37 -6 -59 11 -21 17 -27 19 -35 7 -7 -11 -9 -11 -9 -1 0 19 46 62
68 62 10 0 21 3 25 6 6 7 -17 34 -29 34 -10 0 -69 63 -69 75 0 9 -8 11 -35 7
-5 -1 -10 -9 -10 -17 0 -8 -9 -15 -20 -15 -19 0 -24 10 -21 38 2 16 0 15 -23
-10z"/>
<path d="M4871 751 c-12 -8 -13 -12 -1 -26 12 -14 15 -14 28 -1 8 8 11 19 8
25 -9 13 -16 14 -35 2z"/>
<path d="M1970 660 c-10 -6 -11 -13 -5 -19 13 -13 36 1 27 16 -5 8 -13 9 -22
3z"/>
<path d="M945 610 c3 -5 8 -10 11 -10 2 0 4 5 4 10 0 6 -5 10 -11 10 -5 0 -7
-4 -4 -10z"/>
<path d="M1533 594 c-3 -9 2 -32 12 -51 15 -28 23 -33 42 -28 14 3 33 -1 48
-11 33 -21 41 -13 20 19 -13 20 -13 26 -3 30 10 4 9 9 -4 20 -10 8 -18 19 -18
26 0 19 -89 14 -97 -5z"/>
<path d="M1705 600 c-3 -5 -2 -10 4 -10 5 0 13 5 16 10 3 6 2 10 -4 10 -5 0
-13 -4 -16 -10z"/>
<path d="M1957 561 c7 -25 39 -37 59 -20 22 18 12 32 -28 36 -32 3 -36 1 -31
-16z"/>
<path d="M4680 519 c0 -5 5 -7 10 -4 6 3 10 8 10 11 0 2 -4 4 -10 4 -5 0 -10
-5 -10 -11z"/>
<path d="M1365 510 c3 -5 10 -10 16 -10 5 0 9 5 9 10 0 6 -7 10 -16 10 -8 0
-12 -4 -9 -10z"/>
<path d="M281 474 c0 -11 3 -14 6 -6 3 7 2 16 -1 19 -3 4 -6 -2 -5 -13z"/>
<path d="M291 435 c0 -11 6 -31 14 -45 18 -32 19 -5 0 35 -10 23 -13 25 -14
10z"/>
<path d="M507 424 c-8 -8 1 -24 14 -24 5 0 9 7 9 15 0 15 -12 20 -23 9z"/>
<path d="M1752 371 c-11 -7 -11 -9 1 -14 9 -3 21 1 27 9 10 11 10 14 -1 14 -8
0 -20 -4 -27 -9z"/>
<path d="M897 364 c-8 -8 1 -24 14 -24 5 0 9 7 9 15 0 15 -12 20 -23 9z"/>
<path d="M320 350 c0 -5 5 -10 11 -10 5 0 7 5 4 10 -3 6 -8 10 -11 10 -2 0 -4
-4 -4 -10z"/>
<path d="M1708 336 c-16 -12 -16 -14 8 -25 14 -6 30 -9 35 -6 14 10 11 32 -7
39 -19 7 -15 8 -36 -8z"/>
<path d="M522 290 c-16 -26 -15 -38 2 -56 21 -20 40 -18 31 4 -4 9 -9 28 -12
42 -6 32 -7 33 -21 10z"/>
<path d="M954 285 c3 -9 6 -23 6 -31 0 -8 7 -14 16 -14 23 0 14 54 -10 58 -14
3 -17 0 -12 -13z"/>
<path d="M461 233 c-1 -23 3 -44 8 -48 16 -10 18 9 5 50 l-12 40 -1 -42z"/>
<path d="M900 250 c0 -5 9 -10 21 -10 11 0 17 5 14 10 -3 6 -13 10 -21 10 -8
0 -14 -4 -14 -10z"/>
<path d="M2590 175 c0 -61 -21 -98 -67 -119 -24 -11 -39 -24 -40 -37 -2 -17 5
-19 76 -19 l78 0 -9 47 c-4 27 -11 74 -14 106 -8 70 -24 85 -24 22z"/>
<path d="M560 180 c0 -20 -5 -30 -15 -30 -18 0 -18 -5 -4 -31 7 -15 7 -24 -2
-35 -8 -10 -8 -14 0 -14 6 0 10 -14 9 -32 l-3 -33 159 -3 c134 -2 162 0 176
13 11 10 16 24 13 36 -6 23 50 78 80 79 9 0 17 5 17 10 0 6 -8 14 -17 17 -10
4 -22 12 -26 20 -12 19 -27 16 -27 -7 0 -14 -5 -18 -17 -13 -14 5 -15 3 -6 -7
14 -15 -15 -47 -49 -52 -16 -2 -26 -13 -33 -35 -10 -35 -38 -45 -49 -17 -4 10
-14 14 -26 11 -11 -3 -20 -1 -20 3 0 5 -10 10 -22 12 -16 2 -22 9 -20 21 2 9
-1 17 -6 17 -9 0 -25 37 -23 52 0 3 -13 10 -30 13 -17 4 -33 13 -36 21 -9 25
-23 15 -23 -16z m40 -100 c0 -5 -2 -10 -4 -10 -3 0 -8 5 -11 10 -3 6 -1 10 4
10 6 0 11 -4 11 -10z"/>
<path d="M1250 180 c0 -5 7 -10 16 -10 8 0 12 5 9 10 -3 6 -10 10 -16 10 -5 0
-9 -4 -9 -10z"/>
<path d="M1042 158 c-19 -19 -14 -38 11 -35 30 3 29 -25 -2 -33 -31 -7 -40
-30 -12 -30 18 0 20 -3 9 -19 -7 -11 -21 -24 -33 -30 -16 -8 -12 -10 27 -10
38 -1 51 4 75 28 26 25 29 35 27 77 -4 58 -16 74 -46 55 -16 -10 -23 -10 -26
-2 -5 14 -15 14 -30 -1z"/>
<path d="M1269 131 c-28 -23 -20 -38 10 -19 22 13 36 38 22 38 -5 0 -19 -9
-32 -19z"/>
<path d="M2400 106 c0 -27 25 -42 34 -20 8 22 8 22 -14 34 -17 9 -20 8 -20
-14z"/>
<path d="M500 100 c0 -5 5 -10 10 -10 6 0 10 5 10 10 0 6 -4 10 -10 10 -5 0
-10 -4 -10 -10z"/>
<path d="M1760 81 c0 -5 7 -11 15 -15 9 -3 15 0 15 9 0 8 -7 15 -15 15 -8 0
-15 -4 -15 -9z"/>
<path d="M2285 60 c3 -5 8 -10 11 -10 2 0 4 5 4 10 0 6 -5 10 -11 10 -5 0 -7
-4 -4 -10z"/>
<path d="M955 40 c-3 -5 -1 -18 5 -27 10 -16 11 -16 7 4 -3 12 0 24 7 27 8 3
8 5 -1 5 -6 1 -15 -3 -18 -9z"/>
<path d="M2090 29 c0 -5 5 -7 10 -4 6 3 10 8 10 11 0 2 -4 4 -10 4 -5 0 -10
-5 -10 -11z"/>
<path d="M917 23 c-12 -11 -8 -23 8 -23 8 0 15 7 15 15 0 16 -12 20 -23 8z"/>
</g>
</svg>
