<?xml version="1.0" encoding="UTF-8"?>
<svg id="Layer_2" data-name="Layer 2" xmlns="http://www.w3.org/2000/svg" viewBox="0 0 194.95 143.61">
  <defs>
    <style>
      .cls-1, .cls-2 {
        fill: none;
      }

      .cls-1, .cls-2, .cls-3, .cls-4 {
        stroke-miterlimit: 10;
      }

      .cls-1, .cls-3, .cls-4 {
        stroke: #231f20;
      }

      .cls-5, .cls-6 {
        fill: #fff;
        stroke-width: 0px;
      }

      .cls-2 {
        stroke: #fff;
        stroke-width: .5px;
      }

      .cls-3 {
        fill: #d61f38;
      }

      .cls-4 {
        fill: #231f20;
        stroke-width: 2px;
      }

      .cls-6 {
        fill-rule: evenodd;
      }
    </style>
  </defs>
  <g id="Layer_6" data-name="Layer 6">
    <g>
      <path class="cls-3" d="M167.64,24.7c.13,7.24-4.58,18.96-11.16,31.44-.36.68-.99,1.93-3.85,7.01,0,.01-5.16-22.78-5.15-22.79,4.42-3.31,11.5-8.69,20.16-15.66Z"/>
      <path class="cls-3" d="M3.41,42.62c15.01,1.08,22.1,1.59,22.1,1.59,0,0-2.59,18.61-9.4,53.75l2.08,3.54s-2.6,11.34-1.25,11.65c.69,2.77,1.78,6.14,3.54,9.78,1.98,4.11,4.22,7.36,6.16,9.78.07,3.52.73,6.06,2.16,6.87,2.6,1.46,3.74,3.54,3.74,3.54h10.61l35.78-13.31s19.24,1.04,33.5-8.11l6.66-2.08s34.33-39.32,33.08-47.23c.58-4.66.78-10.63-.35-17.38-2.72-16.21-11.49-27.17-16.08-32.13-4.87-5.14-12.15-11.4-22.23-16.01-28.12-12.85-55.63-2.66-62.23-.01C34.41,16.76,17.56,26.67.7,36.59c.57.87,2.47,5.19,2.7,6.03Z"/>
      <rect class="cls-5" x="92.56" y="132.83" width="10.12" height="6.7"/>
      <rect class="cls-5" x="104.31" y="132.83" width="10.12" height="6.7"/>
      <polygon class="cls-5" points="37.74 139.94 36.51 139.94 41.51 132.42 42.74 132.42 37.74 139.94"/>
      <polygon class="cls-5" points="41.44 139.94 40.21 139.94 45.21 132.42 46.44 132.42 41.44 139.94"/>
      <polygon class="cls-5" points="45.15 139.94 43.92 139.94 48.92 132.42 50.15 132.42 45.15 139.94"/>
      <polygon class="cls-5" points="48.85 139.94 47.62 139.94 52.62 132.42 53.85 132.42 48.85 139.94"/>
      <polygon class="cls-5" points="52.55 139.94 51.32 139.94 56.32 132.42 57.55 132.42 52.55 139.94"/>
      <polygon class="cls-5" points="56.26 139.94 55.02 139.94 60.03 132.42 61.26 132.42 56.26 139.94"/>
      <polygon class="cls-5" points="59.96 139.94 58.73 139.94 63.73 132.42 64.96 132.42 59.96 139.94"/>
      <polygon class="cls-5" points="63.66 139.94 62.43 139.94 67.43 132.42 68.66 132.42 63.66 139.94"/>
      <polygon class="cls-5" points="67.36 139.94 66.13 139.94 71.13 132.42 72.37 132.42 67.36 139.94"/>
      <polygon class="cls-5" points="71.07 139.94 69.84 139.94 74.84 132.42 76.07 132.42 71.07 139.94"/>
      <polygon class="cls-5" points="74.77 139.94 73.54 139.94 78.54 132.42 79.77 132.42 74.77 139.94"/>
      <polygon class="cls-5" points="78.47 139.94 77.24 139.94 82.24 132.42 83.47 132.42 78.47 139.94"/>
      <polygon class="cls-5" points="82.18 139.94 80.95 139.94 85.95 132.42 87.18 132.42 82.18 139.94"/>
      <polygon class="cls-5" points="85.88 139.94 84.65 139.94 89.65 132.42 90.88 132.42 85.88 139.94"/>
      <path class="cls-5" d="M54.38,123.48s5.3-2.34,30-13.45c5.75-.21,11.51-.42,17.26-.62l44.31-34.91,1.42-7.02c2.37-1.7,3.88-3.16,4.77-4.12.24-.26-.28-4.94-.28-4.94-.03.05-17.7,18.97-39.24,34.26-27.82,19.76-58.27,30.74-58.25,30.79Z"/>
      <g>
        <polyline class="cls-2" points="139.67 48.25 135.19 61.96 111.65 81.19 109.41 81.44"/>
        <circle class="cls-5" cx="140" cy="47.23" r="1.71"/>
        <g>
          <circle class="cls-2" cx="141.55" cy="54.58" r="1.71"/>
          <path class="cls-2" d="M141.1,56.14l-2.43,7.43-25.45,20.79c-5.59.77-11.18,1.54-16.77,2.31"/>
        </g>
        <g>
          <circle class="cls-2" cx="134.54" cy="49.73" r="1.71"/>
          <path class="cls-2" d="M134.26,51.4l-2.43,7.43c-6.83,5.58-13.65,11.15-20.48,16.73"/>
        </g>
      </g>
      <path class="cls-4" d="M16.1,97.96c.44,1.03,1.1,2.27,2.08,3.54.51.66,1.02,1.22,1.51,1.7,0,0,6.95-3.27,8.73-5.37s7.77-.58,7.77-.58l12.86,6.42s4.63,2.59,8.39-.07l27.28-8.11,21.91-7.25c.76-.35,1.97-1.07,2.74-2.44.2-.37.32-.67.45-1.03.31-.84.68-2.12.79-3.81.49-7.11.99-14.22,1.48-21.33,0,0,1.52-4.17-4.29-4.29l-5.22.12-4.01,1.63-21.39-2.17-30.88-3.65c-2.05-.32-4.39-.53-6.96-.51-6.07.05-11.1,1.38-14.67,2.68-2.86,14.84-5.72,29.68-8.58,44.52Z"/>
      <path class="cls-3" d="M194.24,51.46c-4.51,19.58-53.49,63.66-66.38,70.12-5.83,3.11-11.07,3.52-15.42,2.09-6.19-2.03-9.19-7.34-9.47-7.85-.37-.68-2.82-5.41-1.58-11.15,1.19-5.5,5.24-9.46,9.82-12.63,10.33-7.14,40.99-22.4,83.02-40.59Z"/>
      <path class="cls-5" d="M124.89,91.96c5.68.19,10.14,4.95,9.95,10.63-.19,5.68-4.95,10.14-10.63,9.95-5.68-.19-10.14-4.95-9.95-10.63.19-5.68,4.95-10.14,10.63-9.95ZM123.29,94.31c-.03-.15-.12-.29-.26-.37-.13-.08-.29-.11-.44-.08-.1.02-.2.05-.32.08h0c-.08.03-.17.05-.25.07l-.07.02c-.06.02-.12.04-.18.06-.04.01-.07.03-.11.04-.04.02-.09.03-.13.05-.05.02-.1.04-.14.06-.03.01-.06.02-.09.04-.06.02-.12.05-.18.07l-.05.02c-.7.31-1.36.71-1.96,1.2l-.04.03s-.1.08-.15.12h-.01s-.02.03-.03.03c0,0-.02.01-.02.02h0s-.09.09-.13.12c-.03.03-.07.06-.1.09h-.02s-.02.03-.03.04c-.01.01-.02.02-.03.03l-.02.02s-.07.07-.11.11c-.02.02-.04.04-.06.07-.05.05-.09.1-.13.14l-.03.03c-.4.44-.76.92-1.06,1.44v.02c-.05.06-.08.12-.12.19l-.03.06c-.03.05-.06.1-.08.16-.02.03-.03.07-.05.1-.02.04-.04.08-.06.13-.02.05-.04.09-.07.14-.01.03-.03.06-.04.09-.03.06-.06.13-.08.19l-.02.05c-.08.19-.15.38-.21.56-.05.15-.04.31.04.45.07.14.2.24.35.29.05.01.1.02.15.02.25,0,.48-.15.57-.4.02-.07.04-.13.07-.2,0,0,0-.02.01-.03.08-.21.17-.43.27-.64.01-.02.02-.04.03-.07l.03-.05s.03-.05.04-.08c.03-.05.05-.1.08-.15l.02-.04c.03-.06.07-.12.1-.18h0c.23-.4.49-.77.79-1.11h.01c.04-.06.09-.11.13-.16l.03-.03s.08-.08.12-.12l.05-.05s.07-.07.1-.1c.03-.02.05-.05.08-.07.03-.03.06-.05.09-.08.03-.03.07-.06.11-.09.02-.02.04-.03.06-.05.04-.04.09-.07.13-.11l.03-.02c.52-.42,1.09-.77,1.7-1.04h.03c.06-.04.11-.06.16-.08l.07-.03s.09-.03.13-.05c.03-.01.07-.03.1-.04.04-.01.07-.02.1-.04.05-.02.1-.03.15-.05l.07-.02c.07-.02.14-.04.21-.06h.01c.08-.03.16-.05.24-.06l.37-.09-.03-.1c.12-.13.17-.31.13-.5ZM132.94,100.29c-.04-.19-.1-.38-.16-.58l-.02-.06c-.02-.06-.04-.12-.06-.19-.01-.04-.02-.07-.04-.11-.02-.04-.03-.09-.05-.13-.02-.05-.04-.1-.06-.14-.01-.03-.02-.06-.04-.09-.02-.06-.05-.12-.07-.18l-.02-.05c-.28-.63-.63-1.22-1.04-1.76v-.02c-.06-.06-.1-.11-.15-.17l-.05-.06s-.07-.09-.11-.13v-.02s-.03-.02-.04-.03c0,0-.02-.02-.02-.03h-.01c-.03-.05-.07-.09-.1-.13-.03-.04-.07-.07-.1-.11h-.01s-.02-.03-.03-.04c0-.01-.02-.02-.03-.03l-.02-.02s-.08-.08-.12-.12l-.06-.06s-.1-.09-.15-.14l-.02-.02c-.44-.4-.92-.76-1.44-1.06l-.03-.02c-.06-.03-.12-.07-.17-.1l-.07-.04s-.09-.05-.14-.08c-.04-.02-.08-.04-.11-.06-.04-.02-.08-.04-.11-.06-.05-.02-.1-.05-.16-.07-.03-.01-.05-.02-.08-.04-.07-.03-.14-.06-.21-.09l-.04-.02c-.19-.08-.38-.15-.57-.21-.15-.05-.31-.04-.45.04-.14.07-.24.2-.29.35-.05.18-.02.37.09.51l-.03.1.35.12c.15.05.3.11.46.17l.04.02c.06.02.11.05.17.07.02.01.05.02.07.03.04.02.09.04.13.06.04.02.07.03.1.05.03.02.06.03.09.05.04.02.09.05.13.07l.05.03c.05.03.11.06.16.09h.02c.45.27.87.59,1.26.94h.01c.05.05.09.1.13.14l.04.04s.07.07.11.11c.02.02.05.05.07.07.03.03.06.06.08.09.03.03.06.07.09.1.02.02.04.04.06.07.03.04.07.08.1.12l.03.04s.08.1.12.15v.02c.38.48.69,1,.93,1.55v.02c.03.06.06.12.09.19,0,.02.01.03.02.05l.02.04s.03.08.04.11c.02.07.05.13.07.2h0c.05.16.1.31.14.46v.03c.03.07.04.13.06.2.06.26.29.44.54.45.05,0,.09,0,.14-.01h0c.15-.03.29-.12.37-.26.08-.13.11-.29.08-.44ZM125.8,110.19c.03.15.12.29.26.37.09.06.19.09.29.09.05,0,.1,0,.15-.02.19-.04.39-.1.59-.16h.04c.07-.03.14-.06.21-.08l.08-.03c.05-.02.11-.04.16-.06.04-.01.08-.03.11-.04.04-.02.08-.03.12-.05.05-.02.1-.04.15-.06l.08-.04c.06-.03.12-.05.18-.08l.03-.02c.46-.22.91-.48,1.32-.78l.03-.02c.05-.04.11-.08.16-.12l.04-.03s.1-.08.15-.12c.03-.02.05-.04.08-.06.04-.03.08-.07.12-.1l.02-.02s.02-.02.04-.03c.01,0,.02-.02.03-.03h.02s.07-.07.1-.1c.04-.04.09-.08.13-.12h.01s.02-.02.02-.03l.03-.03s.09-.09.14-.14l.04-.04c.05-.05.11-.11.16-.17h0c.46-.51.87-1.08,1.2-1.68l.02-.04c.03-.06.06-.11.09-.17.01-.03.03-.05.04-.08.02-.05.05-.09.07-.14.02-.04.04-.08.06-.12.02-.04.03-.07.05-.11.02-.06.05-.11.07-.17l.03-.07c.03-.08.06-.15.09-.23v-.02c.05-.12.09-.22.12-.31.05-.15.04-.31-.04-.45s-.2-.24-.35-.29c-.18-.06-.37-.02-.52.09l-.1-.03-.12.35c-.03.08-.05.15-.08.23v.02c-.03.07-.06.13-.08.2l-.03.07s-.04.1-.06.14c-.01.03-.03.07-.05.1-.02.03-.03.07-.05.1-.02.04-.04.09-.06.13l-.03.06c-.03.05-.05.11-.08.16v.02c-.34.59-.74,1.13-1.2,1.61l-.03.03s-.08.08-.12.12c-.02.02-.04.04-.06.05-.04.04-.07.07-.11.1-.03.03-.06.05-.08.08-.03.03-.06.05-.09.08-.03.03-.07.06-.1.09-.02.02-.04.03-.06.05-.05.04-.09.07-.13.11l-.04.03c-.41.31-.85.58-1.32.8h-.01c-.06.03-.11.06-.16.08l-.07.03s-.09.04-.13.05c-.03.01-.07.03-.1.04-.03.01-.07.03-.1.04-.05.02-.09.04-.14.05-.02,0-.04.02-.07.02-.06.02-.13.04-.19.06h-.03c-.15.06-.31.1-.47.14l-.37.09.03.1c-.12.13-.18.32-.14.51ZM130.01,102.43c.1-3.02-2.27-5.54-5.28-5.64s-5.54,2.27-5.64,5.28,2.27,5.54,5.28,5.64,5.54-2.27,5.64-5.28ZM116.25,104.53h0c.02.09.05.17.07.26l.02.06c.02.06.04.13.06.19.01.03.02.07.04.1.02.05.03.09.05.14.02.05.03.09.05.13.01.03.03.07.04.1.02.06.05.11.07.17l.03.06c.03.07.06.13.09.2h0c.26.55.58,1.07.94,1.55l.02.02c.04.06.09.11.13.17h.01s.04.06.04.06c.04.04.07.09.11.13v.02s.03.02.04.03c0,.01.02.02.03.03h.01c.03.05.07.09.1.13.03.04.07.08.11.11h.01s.02.03.02.04c0,0,.02.02.03.03h.01c.04.06.08.1.12.14l.05.05c.05.05.1.1.15.15l.02.02c.5.46,1.06.86,1.66,1.19l.05.03c.05.03.11.06.17.09.03.01.06.03.09.04.05.02.09.05.14.07.04.02.09.04.13.06.03.02.07.03.1.05.06.03.12.05.17.07l.07.03c.08.03.16.06.24.09h.01c.12.05.22.09.32.12.05.02.11.03.16.03.1,0,.2-.02.29-.07.14-.07.24-.2.29-.35.05-.18.02-.37-.09-.51l.04-.1-.36-.12c-.08-.03-.16-.05-.23-.08-.08-.03-.14-.06-.21-.08l-.05-.02c-.05-.02-.1-.04-.15-.07-.03-.01-.06-.03-.09-.04-.04-.02-.07-.03-.11-.05-.04-.02-.08-.04-.12-.06-.02-.01-.04-.02-.06-.03h-.01s-.1-.06-.15-.08l-.03-.02c-.52-.29-1.01-.64-1.45-1.04h0c-.05-.05-.1-.1-.14-.14l-.04-.04s-.07-.07-.11-.11c-.02-.02-.04-.05-.07-.07-.03-.03-.06-.07-.09-.1-.03-.03-.06-.07-.09-.1-.02-.02-.04-.05-.07-.08-.03-.04-.06-.08-.1-.11l-.04-.05s-.08-.1-.11-.14v-.02c-.37-.47-.67-.98-.91-1.53l-.02-.04c-.02-.05-.04-.1-.06-.15l-.03-.08s-.03-.08-.05-.12c-.01-.04-.03-.08-.04-.12-.01-.03-.02-.06-.03-.09-.02-.05-.04-.1-.05-.16l-.02-.06c-.02-.07-.04-.14-.06-.21h0c-.02-.09-.04-.17-.06-.25l-.09-.36-.1.02c-.13-.12-.32-.17-.5-.14-.15.03-.29.12-.37.26-.09.13-.11.29-.08.44.02.1.05.2.08.32Z"/>
      <g>
        <path class="cls-5" d="M139.66,76.84c-.12,0-.25.09-.28.21-.03.09.02.17.09.21l-.62,2.29c-5.67,4.22-11.45,8.57-17.12,12.79.01.01-.35.37-.29.37.09,0,.46-.38.47-.39,5.62-4.18,11.45-8.52,17.07-12.7l.63-2.35c.09-.03.18-.1.2-.2.03-.12-.04-.22-.17-.22Z"/>
        <path class="cls-5" d="M143.8,79.04c-.1,0-.19.06-.25.14l-2.21-.07-17.68,13.13s.08.05.12.08l17.59-13.06,2.15.07c0,.08.07.15.17.15.12,0,.25-.09.28-.21s-.04-.22-.17-.22Z"/>
        <path class="cls-5" d="M150.56,73.61c-.12,0-.25.09-.28.21-.03.09.02.17.1.21l-.85,3.15-4.75,3.52-3.53-.11-16.6,12.32s.07.05.11.08l16.51-12.26,3.53.11,4.86-3.61.86-3.21c.09-.03.18-.1.2-.2.03-.12-.04-.22-.17-.22Z"/>
        <path class="cls-5" d="M153.15,73.86c-.06-.09-.21-.09-.32,0-.09.06-.13.16-.11.24l-1.23.92-.75,2.78-6.26,4.64-2.88-.09-15.64,11.61s.07.06.1.09l15.56-11.55,2.88.09,6.37-4.73.75-2.78,1.18-.87c.07.04.18.03.27-.03.11-.08.15-.22.08-.31Z"/>
        <path class="cls-5" d="M149.59,81.15c-.1,0-.19.06-.25.14l-1.57-.05-3.59,2.67-1.87-.06-14.23,10.56.13.06,14.12-10.48,1.87.06,3.59-2.67,1.51.05c0,.08.07.15.17.15.12,0,.25-.09.28-.21.03-.12-.04-.22-.17-.22Z"/>
        <path class="cls-5" d="M148.23,82.94c-.06-.09-.21-.09-.32,0-.09.06-.13.16-.11.24l-3.84,2.85-1.79-.06-12.12,9h.24s11.9-8.85,11.9-8.85l1.79.06,3.89-2.89c.07.04.18.03.26-.03.11-.08.15-.22.08-.31Z"/>
        <path class="cls-5" d="M140.58,89.26c-.06-.09-.21-.09-.32,0-.09.06-.13.16-.11.24-2.99,2.22-5.97,4.43-8.96,6.65-.58.43.14.06.14.06.09-.06,8.8-6.54,8.89-6.6.01,0,.15.05.26-.03.11-.08.15-.22.08-.31Z"/>
        <path class="cls-5" d="M145.77,85.85c-.11,0-.23.08-.26.19-.02.09.02.16.09.19l-.25.95-13.66,10.28s.05.06.08.09l13.7-10.31.27-1c.09-.03.16-.1.19-.18.03-.11-.04-.2-.15-.21Z"/>
        <path class="cls-5" d="M152.81,80.17c-.12,0-.24.09-.27.2-.02.09.02.17.09.2l-.18.68-4.12,3.1-.74,2.78-15.26,11.48s.05.06.08.1l15.31-11.51.74-2.78,4.12-3.1.2-.74c.09-.03.17-.1.19-.19.03-.11-.04-.21-.16-.21Z"/>
        <path class="cls-5" d="M158.44,79.84c-.06-.08-.2-.09-.31,0-.08.06-.12.16-.11.24l-1.67,1.25-1.94-.06-4.73,3.52-.83,3.11-16.09,11.97s.05.07.08.1l16.14-12,.83-3.11,4.63-3.44,1.94.06,1.73-1.28c.07.04.17.03.26-.03.11-.08.14-.21.08-.3Z"/>
        <path class="cls-5" d="M155.22,82.81c-.1,0-.19.05-.25.14l-.66-.02-4.11,3.04-.84,3.12-16.43,12.14s.05.07.08.1l16.48-12.17.84-3.12,4-2.96.6.02c0,.08.07.15.17.15.12,0,.25-.09.28-.21.03-.12-.04-.22-.16-.22Z"/>
        <path class="cls-5" d="M163.2,79.77c-.1,0-.19.06-.25.14l-1.38-.04-9.27,6.88-.61,2.27-18.11,13.44s.06.07.08.1l18.16-13.48.61-2.27,9.17-6.8,1.32.04c0,.08.07.15.17.15.12,0,.25-.09.28-.21.03-.12-.04-.22-.17-.22Z"/>
        <path class="cls-5" d="M161.39,82.09c-.1,0-.19.06-.25.14l-.56-.02-4.34,3.22-.61,2.27-21.24,15.76s.06.07.08.1l21.28-15.8.61-2.27,4.23-3.14.5.02c0,.08.07.15.17.15.12,0,.25-.09.28-.21.03-.12-.04-.22-.17-.22Z"/>
        <path class="cls-5" d="M161.43,84.81c-.12,0-.25.09-.28.21-.03.09.02.17.09.21l-.62,2.31-2.66,1.98-2.48-.08c-7.1,5.27-14.21,10.53-21.31,15.8,0,.02,0,.05,0,.08,0,.04-.02.08-.03.11,7.12-5.28,14.25-10.56,21.37-15.83l2.48.08,2.77-2.06.64-2.37c.09-.03.18-.1.2-.2.03-.12-.04-.22-.17-.22Z"/>
        <path class="cls-5" d="M158.98,91.22c-.1,0-.19.06-.25.14l-3.52-.11c-7.35,5.42-14.7,10.85-22.06,16.27h0l-.21.29c7.43-5.47,14.86-10.94,22.29-16.42l3.46.11c0,.08.07.15.17.15.12,0,.25-.09.28-.21.03-.12-.04-.22-.17-.22Z"/>
        <path class="cls-5" d="M132.53,82.08c-.1,0-.19.06-.25.14l-1.57-.05-3.59,2.67-1.87-.06-22.18,16.61-.17.28,22.38-16.74,1.87.06,3.59-2.67,1.51.05c0,.08.07.15.17.15.12,0,.25-.09.28-.21.03-.12-.04-.22-.17-.22Z"/>
        <path class="cls-5" d="M156.28,96.56c-.1,0-.19.06-.25.14l-1.38-.04-9.27,6.88-.61,2.27-24.12,17.9s.14,0,.16.04l24.09-17.88.61-2.27,9.17-6.8,1.32.04c0,.08.07.15.17.15.12,0,.25-.09.28-.21.03-.12-.04-.22-.17-.22Z"/>
        <path class="cls-5" d="M154.47,98.88c-.1,0-.19.06-.25.14l-.56-.02-4.34,3.22-.61,2.27-24.82,18.48s.48-.3.51-.26l24.45-18.15.61-2.27,4.23-3.14.5.02c0,.08.07.15.17.15.12,0,.25-.09.28-.21.03-.12-.04-.22-.17-.22Z"/>
      </g>
      <line class="cls-5" x1="129.49" y1="95.27" x2="129.68" y2="95.41"/>
      <path class="cls-5" d="M154.13,94.48c-.1,0-.21.06-.26.15l-1.47-.05-9.82,7.35-.65,2.43-26.07,19.52s.09,0,.12.04l26.09-19.5.65-2.43,9.7-7.26,1.4.04c0,.09.08.16.18.16.13,0,.26-.1.3-.22.03-.13-.04-.23-.17-.24Z"/>
      <path class="cls-5" d="M149.2,99.23c-.1,0-.19.06-.25.14l-.56-.02-4.34,3.22-.61,2.27-25.68,19.17s.16-.05.19-.02l25.62-19.08.61-2.27,4.23-3.14.5.02c0,.08.07.15.17.15.12,0,.25-.09.28-.21.03-.12-.04-.22-.17-.22Z"/>
      <path class="cls-5" d="M127.15,86.78c-.07-.09-.21-.09-.32,0-.09.06-.13.16-.11.24-3.85,2.93-7.78,5.86-11.78,8.8-2.5,1.84-5.3,3.95-7.78,5.73l-5.07,3.7-.29.16s-.04.19-.03.19c.05.11,15.72-11.55,25.03-18.49.01,0,.15.05.27-.03.11-.08.15-.22.08-.3Z"/>
      <g>
        <path class="cls-5" d="M133.45,107.3c-2.82,2.09-18.92,13.45-21.73,15.54.03.01.08.01.11.03h.03c2.83-2.11,18.7-13.28,21.53-15.39-.07,0,.13-.18.06-.18Z"/>
        <path class="cls-5" d="M118.09,116.25l-7.92,5.88s.09.04.13.06l7.99-5.93c-.07,0-.13,0-.2-.02Z"/>
        <path class="cls-5" d="M116.06,115.72l-7.43,5.51s.08.05.13.07l7.47-5.55c-.06-.01-.11-.02-.17-.03Z"/>
        <path class="cls-5" d="M114.62,115.18s-.09-.04-.14-.06l-6.72,4.99-.6-.02c.07.05.15.1.23.15h.4s6.84-5.06,6.84-5.06Z"/>
        <path class="cls-5" d="M113.52,114.42s-.08-.05-.12-.08l-5.82,4.32-1.86-.06c.06.05.11.1.17.15l1.71.05,5.92-4.39Z"/>
        <path class="cls-5" d="M108.09,116.88l4.22-3.07s-.11-.09-.14-.12l-4.1,3.05-1.79-.06-1.35,1s.06.06.09.09l1.28-.95,1.79.06Z"/>
        <path class="cls-5" d="M110.2,112.54h.13l.07-.26s-.06-.09-.1-.13l-.1.39Z"/>
        <path class="cls-5" d="M104.12,116.63s.03.07.05.11l5.75-4.39.03-.12s-.06-.09-.1-.13l-.05.19-5.69,4.34Z"/>
        <path class="cls-5" d="M110.26,110.32l-6.9,5.2s.04.07.07.1l6.87-5.18s-.03-.08-.04-.12Z"/>
        <path class="cls-5" d="M109.99,108.98l-7.15,5.33s.04.07.06.11l7.12-5.31s-.02-.09-.03-.13Z"/>
        <path class="cls-5" d="M109.88,107.36l-7.5,5.57s.04.08.05.12l7.47-5.55s-.01-.09-.02-.14Z"/>
        <path class="cls-5" d="M110.29,105.41l-8.31,6.17s.03.08.05.13l8.27-6.14c0-.05,0-.1,0-.16Z"/>
        <path class="cls-5" d="M115.88,99.64l-14.19,10.32s-.1.2-.08.24l14.27-10.4c0-.05,0-.11,0-.16Z"/>
        <path class="cls-5" d="M115.96,97.98c-3.05,2.26-11.3,8.04-14.35,10.3.01.05-.01.12,0,.17,3.04-2.25,11.3-8.05,14.34-10.3,0-.05,0-.11.01-.17Z"/>
        <path class="cls-5" d="M116.14,96.31c-3.2,2.35-11.33,8.16-14.52,10.52,0,.05,0,.11,0,.16,3.18-2.35,11.32-8.17,14.5-10.52,0-.05.01-.1.02-.16Z"/>
      </g>
      <path class="cls-5" d="M123.76,15.92c-1.01-.84-3.08-1.89-4.71-1.12-3.62,1.72-1.57,12.1-2.91,12.34-1.62.3-3.54-14.99-10.98-16.98-.54-.15-1.81-.48-2.57.17-2.23,1.92.27,11.24,6.3,16.58,3.27,2.89,8.83,5.73,8.83,5.73,0,0,4.17-1.89,6.19-4.39,2.67-3.32,3.09-9.64-.15-12.33Z"/>
      <path class="cls-5" d="M102.01,19.96c-1.02-3.98-4.01-13.25-6.21-12.85-1.35.25-2.11,4.1-1.54,7.12,1.05,5.62,6.85,9.32,7.97,8.52.28-.2.31-.74-.22-2.79Z"/>
      <path class="cls-6" d="M125.28,112.5l-3.63-.46s-6.2,5.41-10.11.88c-3.91-4.53,2.8-9.38,2.8-9.38l.1-3.2s-10.47,7.12-4.65,13.86c5.82,6.74,15.49-1.69,15.49-1.69Z"/>
      <path class="cls-5" d="M113.7,123.49s.1.04.1.04c.05.11,17.15-12.68,26.45-19.62.01,0,.15.05.27-.03.11-.08.15-.22.08-.3-.07-.09-.21-.09-.32,0-.09.06-.13.16-.11.24-3.85,2.93-7.78,5.86-11.78,8.8"/>
      <path class="cls-5" d="M132.02,82.94c-.06-.09-.21-.09-.32,0-.09.06-.13.16-.11.24l-3.84,2.85-1.79-.06-23.68,17.3v.17l23.7-17.32,1.79.06,3.89-2.89c.07.04.18.03.26-.03.11-.08.15-.22.08-.31Z"/>
      <path class="cls-2" d="M124.55,102.25l2.81-.06s.01,0,0-.01l-1.44-1.37-1.44-1.37s-.01,0-.01,0l.07,2.81ZM124.55,102.25l-2.81.06s-.01,0,0,.01l2.88,2.75s.01,0,.01,0l-.07-2.81Z"/>
      <path class="cls-1" d="M194.24,51.46c-4.51,19.58-53.49,63.66-66.38,70.12-5.83,3.11-11.07,3.52-15.42,2.09-6.19-2.03-9.19-7.34-9.47-7.85-.37-.68-2.82-5.41-1.58-11.15,1.19-5.5,5.24-9.46,9.82-12.63,10.33-7.14,40.99-22.4,83.02-40.59Z"/>
    </g>
  </g>
</svg>