<?xml version="1.0" standalone="no"?>
<!DOCTYPE svg PUBLIC "-//W3C//DTD SVG 20010904//EN"
 "http://www.w3.org/TR/2001/REC-SVG-20010904/DTD/svg10.dtd">
<svg version="1.0" xmlns="http://www.w3.org/2000/svg"
 width="150.000000pt" height="150.000000pt" viewBox="0 0 150.000000 150.000000"
 preserveAspectRatio="xMidYMid meet">

<g transform="translate(0.000000,150.000000) scale(0.100000,-0.100000)"
fill="#000000" stroke="none">
<path d="M796 1458 c-33 -22 -62 -54 -88 -97 -21 -36 -38 -68 -38 -71 0 -4 19
-10 42 -13 72 -10 137 -78 139 -146 l2 -36 7 35 c4 19 8 30 9 23 3 -32 109 44
137 100 21 40 34 135 20 142 -14 7 74 -2 99 -10 11 -4 2 5 -20 19 -41 27 -162
70 -225 81 -30 5 -44 1 -84 -27z"/>
<path d="M219 1273 c-144 -148 -212 -316 -212 -523 0 -123 19 -212 69 -315
128 -264 387 -428 674 -427 283 0 529 150 659 402 97 186 111 372 46 578 -34
106 -115 241 -115 191 0 -7 -20 -53 -43 -103 -129 -271 -405 -501 -732 -610
-97 -33 -261 -59 -332 -54 -193 16 -243 271 -70 359 43 23 85 22 227 -1 91
-14 293 -12 376 6 42 8 78 13 81 11 5 -6 -102 -42 -182 -61 -33 -8 -49 -15
-35 -15 20 -1 22 -3 10 -11 -12 -8 -11 -17 13 -65 16 -32 22 -55 15 -55 -6 0
-9 -3 -6 -6 19 -19 238 126 344 228 98 94 126 132 69 93 -191 -129 -553 -104
-743 52 -117 96 -149 241 -77 348 14 19 23 35 22 35 -1 0 -28 -26 -58 -57z
m1162 -300 c9 -27 20 -65 24 -84 l7 -34 -24 29 -24 29 -29 -49 c-16 -27 -46
-72 -67 -100 l-38 -51 16 -39 c9 -21 24 -68 34 -104 l16 -65 17 49 c9 27 17
57 17 65 0 9 20 45 45 80 l45 65 0 -45 c0 -71 -27 -178 -64 -254 -33 -70 -104
-175 -118 -175 -5 0 -8 38 -8 83 0 99 -26 209 -68 293 l-30 59 40 45 c51 58
108 141 143 208 15 29 32 51 38 49 6 -2 18 -26 28 -54z m-269 -363 c14 -30 30
-66 33 -80 7 -24 6 -24 -27 8 l-35 33 -29 -24 c-42 -36 -176 -121 -212 -136
-18 -8 -32 -18 -32 -24 0 -30 153 -177 184 -177 7 0 40 18 74 39 62 40 102 96
102 141 0 11 4 20 9 20 12 0 25 -121 17 -148 -8 -25 -81 -80 -149 -113 l-48
-24 -57 30 c-65 34 -218 181 -247 237 -10 21 -17 39 -15 40 3 2 57 29 120 61
63 31 149 84 190 116 41 33 80 58 85 57 6 -1 22 -26 37 -56z m-484 -242 c11
-18 19 -35 16 -39 -6 -10 -175 -49 -213 -49 -17 0 -31 -4 -31 -9 0 -15 131
-78 196 -95 34 -9 79 -16 100 -16 l39 1 -35 29 c-19 16 -51 32 -70 35 -45 9
-74 25 -64 35 5 4 31 15 57 23 l48 16 71 -60 c40 -33 100 -74 135 -91 35 -17
60 -35 55 -40 -17 -17 -130 -30 -217 -25 -117 7 -237 46 -330 109 -74 49 -170
142 -161 156 3 5 43 9 89 10 78 2 233 25 245 37 16 16 52 2 70 -27z"/>
<path d="M568 703 c6 -2 18 -2 25 0 6 3 1 5 -13 5 -14 0 -19 -2 -12 -5z"/>
</g>
</svg>
