<?xml version="1.0" encoding="UTF-8"?>
<svg id="Layer_2" data-name="Layer 2" xmlns="http://www.w3.org/2000/svg" xmlns:xlink="http://www.w3.org/1999/xlink" viewBox="0 0 3000 2998.8">
  <defs>
    <style>
      .cls-1 {
        fill: #fff;
      }

      .cls-2 {
        fill: #ed1c24;
      }

      .cls-3 {
        fill: #ffd609;
      }

      .cls-4 {
        fill: url(#Dégradé_sans_nom_18);
      }

      .cls-5 {
        fill: url(#Dégradé_sans_nom_11);
      }

      .cls-6 {
        fill: url(#Dégradé_sans_nom_20);
      }

      .cls-7 {
        fill: url(#Dégradé_sans_nom_20-2);
      }

      .cls-8 {
        fill: url(#Dégradé_sans_nom_18-3);
      }

      .cls-9 {
        fill: url(#Dégradé_sans_nom_18-2);
      }

      .cls-10 {
        fill: url(#Dégradé_sans_nom_18-4);
      }
    </style>
    <radialGradient id="Dégradé_sans_nom_11" data-name="Dégradé sans nom 11" cx="2103.86" cy="1328.16" fx="2103.86" fy="1328.16" r="2191.31" gradientUnits="userSpaceOnUse">
      <stop offset=".04" stop-color="#ed1c24"/>
      <stop offset=".95" stop-color="#ffd609"/>
    </radialGradient>
    <radialGradient id="Dégradé_sans_nom_20" data-name="Dégradé sans nom 20" cx="4793.48" cy="1322.72" fx="4793.48" fy="1322.72" r="533.58" gradientTransform="translate(-3054 1536.49) rotate(-31.15)" gradientUnits="userSpaceOnUse">
      <stop offset="0" stop-color="#ed1c24"/>
      <stop offset=".97" stop-color="#ffd609"/>
    </radialGradient>
    <radialGradient id="Dégradé_sans_nom_20-2" data-name="Dégradé sans nom 20" cx="1604.07" cy="276.06" fx="1604.07" fy="276.06" r="1171.74" gradientTransform="matrix(1, 0, 0, 1, 0, 0)" xlink:href="#Dégradé_sans_nom_20"/>
    <radialGradient id="Dégradé_sans_nom_18" data-name="Dégradé sans nom 18" cx="692.44" cy="908.67" fx="692.44" fy="908.67" r="2594.75" gradientUnits="userSpaceOnUse">
      <stop offset=".46" stop-color="#ed1c24"/>
      <stop offset="1" stop-color="#2b76c1"/>
    </radialGradient>
    <radialGradient id="Dégradé_sans_nom_18-2" data-name="Dégradé sans nom 18" cx="775.65" cy="2382.35" fx="775.65" fy="2382.35" r="848.81" xlink:href="#Dégradé_sans_nom_18"/>
    <radialGradient id="Dégradé_sans_nom_18-3" data-name="Dégradé sans nom 18" cx="1599.6" cy="1969.8" fx="1599.6" fy="1969.8" r="788.7" xlink:href="#Dégradé_sans_nom_18"/>
    <radialGradient id="Dégradé_sans_nom_18-4" data-name="Dégradé sans nom 18" cx="2402.6" cy="1366.89" fx="2402.6" fy="1366.89" r="811.43" xlink:href="#Dégradé_sans_nom_18"/>
  </defs>
  <g id="Calque_1" data-name="Calque 1">
    <g>
      <path class="cls-5" d="m2278.75,1106.75c-97.39,130.36-210.51,255.15-340.09,370-433.6,384.35-950.33,579.47-1410.01,574.13-29.95-.34-59.64-1.55-89.03-3.58-7.8-1.85-15.3-3.92-22.8-6.42-3.96-1.42-7.8-2.8-11.64-4.27-3.88-1.55-7.63-3.15-11.38-4.78-44.9-20.34-82.7-53.82-108.64-95.67,0-.17-.09-.17-.17-.34-15.21-24.69-26.37-52.14-32.28-81.66-3.23-15.34-4.96-31.24-5.17-47.4-1.59-118.03,77.78-218.01,185.9-245.72.26,0,.43-.09.69-.17h.09l.9-.13c6.12-1.59,12.32-2.84,18.57-3.84.17-.09.34-.17.52-.17,3.02-.52,5.95-.99,8.96-1.29.47,0,.99-.13,1.42-.22,3.4-.39,6.77-.73,10.26-1.03,5.21-.34,10.56-.6,15.9-.65,3.49-.04,6.98,0,10.34.13,25.55,5.77,51.8,10.9,78.69,15.38h.09c290.02,48.01,650.41,16.16,1017.95-107.26,48.09-16.16,95.15-33.53,141.04-51.97,94.11-37.84,183.45-80.2,267.22-126.26.6-.3,1.25-.65,1.85-1.03,2.46-1.03,4.91-2.11,7.37-3.19,4.74-2.07,9.7-4.31,14.44-6.46,2.33-.99,4.83-2.24,7.07-3.4,2.24-.91,4.48-1.98,6.72-3.06.17-.09.26-.17.47-.26,4.18-1.98,8.4-4.01,12.63-6.08,4.18-1.98,8.32-4.14,12.45-6.29,69.16-35.47,130.83-77.14,183.23-124.02.26-.09.6-.43.82-.6.86-.73,1.77-1.51,2.67-2.24,4.74-3.66,9.31-7.46,13.79-11.12,1.34-1.08,2.58-2.15,3.88-3.23q.09-.09.09-.17c.43-.26.86-.6,1.25-.99.09-.09.26-.17.35-.26.09,0,.17-.17.26-.26,1.08-1.38,2.2-2.71,3.23-4.09.09,0,.09-.04.09-.04Z"/>
      <path class="cls-6" d="m1350.05,389.37s-.09.09-.09.13c-9.35,19.44-18.53,39.6-27.45,60.42.78-1.34,1.59-2.63,2.37-3.92,8.7-20.08,17.58-39.56,26.72-58.35-.56.56-1.03,1.12-1.55,1.72Zm967.96-143.97c-.09-.04-.22-.09-.3-.13,1.38.9,2.72,1.77,4.05,2.67-1.25-.86-2.5-1.72-3.75-2.54Z"/>
      <path class="cls-7" d="m2602.9,499.31c-46.76,157.98-122.94,317.21-225.68,470.88-.17.39-.43.65-.6.99l-.09.09c-2.33,3.66-4.87,7.2-7.28,10.86-.99,1.42-1.85,3.06-2.93,4.48-4.22,6.46-8.53,12.88-13.01,19.35-5.47,7.97-10.9,16.03-16.76,24.18-.35.47-.52.82-.86,1.25-3.4,4.7-6.72,9.44-10.13,14.01-14.87,20.38-30.42,40.94-46.8,61.36,0,0,0,.04-.09.04-1.03,1.38-2.15,2.71-3.23,4.09-.09.09-.17.26-.26.26-.09.09-.26.17-.35.26-.39.39-.82.73-1.25.99q0,.09-.09.17c-1.29,1.08-2.54,2.15-3.88,3.23-4.48,3.66-9.05,7.46-13.79,11.12-.9.73-1.81,1.51-2.67,2.24-.21.17-.56.52-.82.6-52.4,46.89-114.07,88.56-183.23,124.02-4.14,2.15-8.27,4.31-12.45,6.29-4.22,2.07-8.45,4.09-12.63,6.08-.22.09-.3.17-.47.26-2.24,1.08-4.48,2.15-6.72,3.06-2.24,1.16-4.74,2.41-7.07,3.4-4.74,2.15-9.7,4.4-14.44,6.46-2.46,1.08-4.91,2.15-7.37,3.19-4.31,1.94-8.66,3.79-13.06,5.65-16.55,6.68-33.91,13.14-52.1,19.35-92.22,31.63-206.03,56.5-348.06,67.14-153.24,11.38-296.52-8.36-413-36.07-.86-.17-1.68-.34-2.54-.52,117.86-15.13,245.5-81.58,346.64-188.06,189.44-199.26,223.65-475.66,76.45-617.44-72.35-69.68-175.09-93.9-283.29-76.75,1.16-2.03,2.33-3.96,3.53-5.9-.09.22-.17.39-.26.6.17-.34.43-.69.56-1.03,58.99-99.07,145.05-146.3,207.88-180.6,126.87-69.25,241.88-80.84,319.58-87.95,34.3-3.02,143.11-11.16,284.63,15.17,8.23,1.51,16.51,3.15,24.95,4.91,57.44,12.11,111.48,28.18,161.9,46.93,25.21,16.68,49.86,34.04,73.95,52.19,5.99,4.31,11.89,8.88,17.71,13.53.47.3.91.73,1.47.99,6.08,4.78,12.15,9.7,18.27,14.52,6.25,4.96,12.45,9.95,18.53,14.95,6.03,5.13,12.11,10.21,18.1,15.25,45.46,38.74,88.73,80.15,129.37,123.98,3.96,4.27,5.43,10.34,3.75,15.94Z"/>
      <path class="cls-4" d="m2998.54,1455.63c-6.25-244.04-73.22-486.22-194.22-698.37-8.75-15.6-17.88-30.98-27.49-46.2-21.89-35.77-45.42-70.54-70.29-104.29-7.15-9.52-22.11-6.81-25.42,4.52-126.48,435.71-480.7,882.55-996.01,1193.94-319.02,192.8-650.06,311.74-965.42,349.1-.43.09-8.1,1.47-8.53,1.55-44.6,5.39-76.96,6.51-115.45,10.51-11.12,1.16-20.51,2.24-33.1,2.37l-71.58,1.12c-18.31.22-69.16-2.46-86.92-6.68-.13,0-.21,0-.34-.04-12.41-2.89-24.43-6.46-36.29-10.51-5.95-2.15-11.76-4.35-17.62-6.64-5.73-2.37-11.51-4.91-17.11-7.41-67.74-31.5-124.54-82.61-163.02-146.17-.09-.13-.13-.3-.26-.43-22.62-37.45-38.96-79.03-47.4-123.5-4.57-23.14-6.85-47.1-6.85-71.53,0-177.59,122.64-326.43,287.34-365.77.35-.13.69-.22,1.03-.26h.17l1.34-.3c9.31-2.15,18.74-3.96,28.31-5.39.3-.04.52-.22.78-.22,4.57-.69,9.05-1.25,13.66-1.72.69-.09,1.47-.17,2.24-.3,5.13-.47,10.21-.91,15.47-1.34,8.06-.47,16.12-.78,24.22-.78,17.11,0,33.96,1.21,50.42,3.45,18.4,2.46,36.46,6.29,53.91,11.42.13.13.39.13.6.13,177.8,35.77,526.86,87.01,878.19,31.29,100.58-15.94,188.62-35.47,265.97-57.36,94.11-37.84,183.45-80.2,267.22-126.26-3.66,1.55-7.41,3.1-11.2,4.61-16.55,6.68-33.91,13.14-52.1,19.35-92.22,31.63-206.03,56.5-348.06,67.14-153.24,11.38-296.52-8.36-413-36.07-.86-.17-1.68-.34-2.54-.52-7.84-1.59-15.64-3.32-23.31-5.13-5.65-1.21-11.33-2.54-16.81-4.01-4.48-1.03-8.96-2.11-13.27-3.23-1.21-.34-2.33-.6-3.45-.99-6.29-1.59-12.41-3.15-18.57-4.83-1.12-.22-2.37-.56-3.62-.95-44.08-11.85-86.75-25.86-127.77-41.58-1.51-.52-3.02-1.12-4.48-1.77-7.28-2.89-14.56-5.73-21.63-8.66-5.99-2.46-11.94-5-17.88-7.46-16.59-7.2-33.14-14.52-49.04-22.32-4.87-2.28-9.7-4.61-14.57-6.98-4.52-2.37-9.14-4.7-13.57-7.07-4.7-2.24-8.88-4.65-13.49-6.94-4.91-2.37-9.65-5.17-14.44-7.93-6.51-3.71-12.88-7.2-19.18-10.82-3.79-2.2-7.63-4.48-11.42-6.72-3.97-2.46-8.1-4.87-12.11-7.37-5.6-3.36-10.9-6.81-16.29-10.21-5.04-3.23-10.04-6.51-15-9.65-4.35-2.97-8.62-5.82-13.1-8.75-2.84-2.2-5.73-4.01-8.53-6.12-19.87-14.01-38.78-28.4-57.06-43.61-2.84-2.24-5.82-4.74-8.75-7.2-4.14-3.49-8.06-6.94-11.89-10.3-4.96-4.48-10-9.01-14.91-13.45-4.7-4.35-9.44-8.75-13.79-13.27-.43-.17-.86-.73-1.25-.99-4.14-4.05-8.19-8.14-12.2-12.24-6.16-6.16-11.98-12.32-17.58-18.66-3.15-3.28-6.21-6.64-9.18-10.08-.6-.69-1.25-1.38-1.85-2.03-3.1-3.53-6.16-7.2-9.05-10.64-8.06-9.35-15.6-18.83-22.97-28.74-2.46-3.1-4.7-6.29-6.94-9.39-1.94-2.46-3.71-5.04-5.43-7.5-1.29-1.68-2.54-3.36-3.66-5.17-2.03-3.02-4.05-6.03-6.16-9.09-1.46-2.11-3.02-4.35-4.27-6.51-1.59-2.46-3.23-4.83-4.61-7.24-1.9-2.97-3.84-6.08-5.6-9.01-.78-1.42-1.68-2.67-2.37-4.14-2.33-3.71-4.44-7.54-6.59-11.33-.22-.34-.47-.78-.69-1.25-2.54-4.48-5.04-9.05-7.37-13.53-.47-.82-.95-1.68-1.34-2.59-4.52-8.75-8.88-17.58-12.93-26.59-.78-1.34-1.34-2.89-1.98-4.22-30.73-69.42-45.42-143.03-41.37-218.27,3.32-58.99,17.8-115.66,42.45-168.97,20.08-43.78,46.88-85.41,79.64-124.28,21.03-25.12,44.56-49.13,70.29-71.75-203.74,145.61-369.18,340.91-479.02,567.75-.22.34-.35.69-.56,1.12-25.25,52.4-47.66,106.53-66.92,162.12C25.15,1171.08-3.68,1347.29.38,1530.35c.43,16.07.99,32.19,1.85,48.14.47,9.74,1.03,19.26,1.81,28.83.26,4.14.56,8.23.9,12.2.78,9.65,1.68,19.13,2.71,28.79.73,7.84,1.55,15.6,2.59,23.44,0,.34.09.82.09,1.21.22,2.28.56,4.65.78,7.07.99,8.4,2.15,16.81,3.28,25.21,16.76,120.53,46.07,236.58,92.26,346.34,10.6,25.51,22.19,50.55,34.82,75.28,264.89,572.28,901.94,947.49,1537.61,859.06,749.48-75.89,1354.68-777.57,1319.47-1530.28Zm-1143.43,1330.93c-36.03,9.91-72.22,18.27-108.59,24.99-63.99,11.94-128.42,19-192.8,21.5-267.65,10.17-533.79-60.46-761.37-202.8-57.7-36.03-112.86-76.75-165-121.78-21.76-18.87-43.01-38.61-63.69-58.95-10.21-10-20.3-20.3-30.12-30.64-30.73-32.41-59.99-66.54-87.78-102.48-8.32-10.82-.17-26.37,13.45-25.6,45.76,2.93,92.39,3.88,139.66,3.02h.9c112.56-2.03,228.87-14.44,347.37-37.28,39.69-7.71,79.59-16.55,119.58-26.55,41.37-10.34,82.78-21.93,124.28-34.78,6.98-2.24,14.52.6,18.23,6.89,1.34,2.2,2.59,4.35,3.92,6.46,23.27,38.57,48.22,75.59,74.77,110.92.09.09.09.17.17.17,6.46,8.75,2.59,21.42-7.84,24.69-38.35,12.28-76.66,23.53-114.71,33.61-41.54,11.07-82.78,20.9-124.02,29.3-79.2,16.46-157.64,28.23-234.64,35.34-14.52,1.29-19.74,20-7.89,28.57,21.07,15.13,42.49,29.65,64.25,43.48,1.34.78,2.67,1.59,4.01,2.37,64.51,39.39,132.38,72.48,202.67,98.94,74.98,28.18,152.51,48.87,231.58,61.71,51.06,8.32,102.73,13.36,154.7,15.04,15.73.43,22.75-19.82,9.74-28.83-44.77-31.07-87.35-64.6-128.12-100.71-17.45-15.43-34.95-13.14-58-16.5-26.42-3.88-52.57-9.91-78-18.01-21.2-6.72-41.89-14.91-61.92-24.48-8.92-4.27-42.23-19.65-14.57-26.72,32.84-8.4,65.5-18.14,97.91-29.22,39.39-13.36,78.52-28.74,117-46.11,6.38-2.84,13.75-1.25,18.31,3.88,28.35,31.98,58,62.23,88.9,90.93,75.2,69.9,157.64,130.18,245.16,180.13,21.25,12.2,42.84,23.7,64.51,34.6,32.58,16.38,65.76,31.33,99.5,44.86,14.18,5.69,13.19,26.03-1.51,29.99Zm529.05-331.95c-.56,13.4-1.25,26.8-2.24,40.25-.35,5.65-3.06,10.99-7.41,14.74-55.85,48.18-116.48,92.31-181.64,131.61-20.94,12.67-42.1,24.74-63.43,36.07-39.22,20.94-79.2,39.65-119.5,56.28-5.34,2.24-11.42,2.24-16.72-.22-33.18-14.39-65.98-30.21-97.95-47.36-23.1-12.41-45.81-25.43-68.17-39.21-95.58-58.87-184.48-130.14-263.99-213.44-30.73-32.06-59.94-65.89-87.52-101.44-11.68-14.87-22.97-29.95-34-45.38-8.01-11.2-15.77-22.41-23.4-33.96-11.46-17.15-22.62-34.56-33.44-52.49-7.71-12.76-15.21-25.64-22.49-38.65-6.38-11.33-1.34-25.47,10.73-30.25,46.8-18.62,93.73-38.91,140.27-60.68,84.51-39.47,168.49-84.16,251.23-134.11,13.53-8.23,26.98-16.59,40.33-24.95,62.87-39.47,123.16-80.84,180.73-124.19,13.96-10.34,27.54-20.9,41.11-31.54.09-.09.22-.13.3-.22,9.31-7.5,18.53-15.13,27.71-22.88,7.5-6.33,14.95-12.63,22.41-19.05l.04-.09c17.32-14.78,34.3-29.73,50.98-44.99,5.04-4.57,10.13-9.18,15.17-13.79,1.12-.99,2.24-2.2,3.36-3.23,14.01,19.82,27.58,40.12,40.68,60.67,2.03,3.32,4.14,6.51,6.03,9.7,1.21,1.9,2.37,3.84,3.53,5.77,16.85,27.49,31.46,56.32,43.91,86.06,4.48,10.77,8.75,21.76,12.97,32.54.69,1.47,1.12,2.89,1.68,4.35,3.83,9.95,7.5,19.95,11.03,29.91.3.82.56,1.68.86,2.37,3.84,10.69,7.54,21.42,11.29,32.06.34,1.25.73,2.37,1.16,3.62,3.32,10.3,6.72,20.47,9.95,30.81.04.22.13.43.13.69,2.54,9.31,4.96,18.57,7.28,27.8-.56-.78-1.21-1.68-1.81-2.46.43.99.69,1.98.99,2.8-1.42-1.51-2.8-3.06-4.31-4.65-3.49-3.66-7.11-7.58-10.77-11.29-7.28-7.54-14.69-15.04-22.19-22.45-3.75-3.66-7.54-7.46-11.38-11.16-7.84-7.28-15.69-14.61-23.61-21.89-8.06-7.24-16.12-14.44-24.52-21.5-4.18-3.45-8.45-6.98-12.5-10.56-4.22-3.58-8.53-7.07-12.89-10.43-3.66-3.02-7.5-6.03-11.29-9.09-46.89,39.3-95.84,77.61-146.65,114.46-59.51,43.09-121.74,84.33-186.42,123.46-44.39,26.8-88.99,52.01-133.85,75.76-24.86,13.14-49.86,25.81-74.77,38.09-11.68,5.73-15.69,20.56-7.97,31.5,25.12,36.16,51.93,70.76,80.15,103.73,81.19,95.15,173.97,176.55,274.68,243.61,6.12,4.14,14.01,4.7,20.6,1.68,44.3-19.87,87.87-42.62,130.36-68.39,52.96-32.06,102.61-67.57,148.97-105.92,11.03-17.97,21.76-36.24,31.63-54.81,34.52-64.25,61.24-134.88,60.98-207.84,25.68,99.33,27.58,202.11,23.57,304.19Zm454.5-953.22c-.35,10.82,0,21.72-.43,32.49-.09,1.34-.17,2.59-.17,3.79-.73,11.25-1.51,22.58-2.33,33.91-.09.82-.17,1.59-.17,2.59-.78,10.51-1.68,21.16-2.63,31.67-.17,1.59-.3,3.1-.56,4.61-.95,9.74-2.03,19.56-3.19,29.3,0,.69-.09,1.42-.17,2.11-21.42,205.6-90.28,404.86-202.24,580.72-14.35,22.49-29.3,44.43-44.95,66.02-28.96,39.95-60.2,78.34-93.77,115.19-8.49,9.35-23.96,2.37-22.75-10.3v-.34c6.38-63.82,8.23-128.16,5.52-192.58-7.11-160.57-43.22-321.48-110.58-474.89-4.96-11.51-10.26-23.1-15.73-34.6-19.39-41.15-41.15-81.79-65.24-121.61-2.59-4.35-5.21-8.66-7.89-13.01-3.19-5.04-2.46-11.68,1.68-16.03,35.08-35.77,68.6-72.14,100.49-109.11,97.87-113.68,180.73-232.62,247.01-353.45.9-1.68,1.85-3.36,2.76-5.04,22.84-41.89,43.7-84.07,62.49-126.31.69-1.68,1.51-3.28,2.2-4.96,4.61-10.34,19.22-10.34,24-.09,19.31,41.41,36.29,83.47,51.07,125.87.26.86.52,1.85.6,2.71v.09c.3.91.65,1.77.91,2.67.09.43.17.78.34,1.16v.09c3.62,11.42,7.28,22.75,10.73,34.17,3.53,11.12,6.81,22.45,10,33.61.52,1.51.78,2.93,1.25,4.44,2.89,10.26,5.64,20.6,8.32,30.81.17.86.35,1.68.6,2.46,2.84,10.99,5.56,22.06,8.23,32.92.26,1.25.6,2.5.99,3.71,2.28,10.56,4.78,20.99,6.98,31.63.09.26.17.43.17.69,1.59,9.48,2.76,19.26,4.18,28.66-1.21-1.68-2.84-3.4-4.18-5.13-3.19-3.88-6.46-8.1-9.74-12.2-6.55-8.14-13.27-16.29-20.08-24.43-3.36-3.88-6.81-7.97-10.26-12.02-7.2-7.97-14.35-16.03-21.63-24-7.24-7.89-14.7-15.73-22.37-23.61-2.58-2.5-5.04-4.96-7.54-7.54-14.05,28.44-29.13,56.84-44.95,85.07-60.03,106.4-132.77,211.11-217.32,311.82-3.28,4.01-3.97,9.39-1.77,14.09,20.08,41.58,37.79,83.82,53.22,126.56,31.16,86.66,52.92,175.17,65.5,264.12,1.85,13.19,19.74,15.77,24.95,3.53,28.31-65.24,50.81-132.86,67.18-201.89,5.47-22.84,10.26-45.94,14.22-69.04,2.41-2.76,4.78-5.47,7.2-8.32,3.71-4.44,7.24-8.75,10.86-13.1,3.66-4.44,7.2-8.75,10.64-13.36,6.55-7.97,12.93-16.12,19.13-24.09.6-.78,1.21-1.59,1.85-2.37,3.53-4.78,7.07-9.65,10.52-14.35,3.1-4.27,6.12-8.4,9.14-12.58,3.19-4.31,6.46-8.92,9.52-13.45,3.02-4.52,6.12-9.01,9.31-13.53,6.21-9.05,12.02-18.14,17.88-27.19,5.69-9.18,11.33-18.31,16.89-27.45,2.67-4.57,5.34-9.18,8.06-13.7,5.21-9.22,10.39-18.4,15.43-27.62,2.46-4.61,4.96-9.27,7.33-13.79.99-1.85,1.94-3.71,2.84-5.69.26,9.48.35,19.13.43,28.79v.69Z"/>
      <path class="cls-9" d="m1855.1,2786.56c-36.03,9.91-72.22,18.27-108.59,24.99-63.99,11.94-128.42,19-192.8,21.5-267.65,10.17-533.79-60.46-761.37-202.8-57.7-36.03-112.86-76.75-165-121.78-21.76-18.87-43.01-38.61-63.69-58.95-10.21-10-20.3-20.3-30.12-30.64-30.73-32.41-59.99-66.54-87.78-102.48-8.32-10.82-.17-26.37,13.45-25.6,45.76,2.93,92.39,3.88,139.66,3.02h.9c112.56-2.03,228.87-14.44,347.37-37.28,39.69-7.71,79.59-16.55,119.58-26.55,41.37-10.34,82.78-21.93,124.28-34.78,6.98-2.24,14.52.6,18.23,6.89,1.34,2.2,2.59,4.35,3.92,6.46,23.27,38.57,48.22,75.59,74.77,110.92.09.09.09.17.17.17,6.46,8.75,2.59,21.42-7.84,24.69-38.35,12.28-76.66,23.53-114.71,33.61-41.54,11.07-82.78,20.9-124.02,29.3-79.2,16.46-157.64,28.23-234.64,35.34-14.52,1.29-19.74,20-7.89,28.57,21.07,15.13,42.49,29.65,64.25,43.48,1.34.78,2.67,1.59,4.01,2.37,64.51,39.39,132.38,72.48,202.67,98.94,74.98,28.18,152.51,48.87,231.58,61.71,51.06,8.32,102.73,13.36,154.7,15.04,15.73.43,22.75-19.82,9.74-28.83-44.77-31.07-87.35-64.6-128.12-100.71-17.45-15.43-34.95-13.14-58-16.5-26.42-3.88-52.57-9.91-78-18.01-21.2-6.72-41.89-14.91-61.92-24.48-8.92-4.27-42.23-19.65-14.57-26.72,32.84-8.4,65.5-18.14,97.91-29.22,39.39-13.36,78.52-28.74,117-46.11,6.38-2.84,13.75-1.25,18.31,3.88,28.35,31.98,58,62.23,88.9,90.93,75.2,69.9,157.64,130.18,245.16,180.13,21.25,12.2,42.84,23.7,64.51,34.6,32.58,16.38,65.76,31.33,99.5,44.86,14.18,5.69,13.19,26.03-1.51,29.99Z"/>
      <path class="cls-8" d="m2360.59,2150.42c25.68,99.33,27.58,202.11,23.57,304.19-.56,13.4-1.25,26.8-2.24,40.25-.35,5.65-3.06,10.99-7.41,14.74-55.85,48.18-116.48,92.31-181.64,131.61-20.94,12.67-42.1,24.74-63.43,36.07-39.22,20.94-79.2,39.65-119.5,56.28-5.34,2.24-11.42,2.24-16.72-.22-33.18-14.39-65.98-30.21-97.95-47.36-23.1-12.41-45.81-25.43-68.17-39.21-95.58-58.87-184.48-130.14-263.99-213.44-30.73-32.06-59.94-65.89-87.52-101.44-11.68-14.87-22.97-29.95-34-45.38-8.01-11.2-15.77-22.41-23.4-33.96-11.46-17.15-22.62-34.56-33.44-52.49-7.71-12.76-15.21-25.64-22.49-38.65-6.38-11.33-1.34-25.47,10.73-30.25,46.8-18.62,93.73-38.91,140.27-60.68,84.51-39.47,168.49-84.16,251.23-134.11,13.53-8.23,26.98-16.59,40.33-24.95,62.87-39.47,123.16-80.84,180.73-124.19,13.96-10.34,27.54-20.9,41.11-31.54.09-.09.22-.13.3-.22,9.31-7.5,18.53-15.13,27.71-22.88,7.5-6.33,14.95-12.63,22.41-19.05l.04-.09c17.32-14.78,34.3-29.73,50.98-44.99,5.04-4.57,10.13-9.18,15.17-13.79,1.12-.99,2.24-2.2,3.36-3.23,14.01,19.82,27.58,40.12,40.68,60.67,2.03,3.32,4.14,6.51,6.03,9.7,1.21,1.9,2.37,3.84,3.53,5.77,16.85,27.49,31.46,56.32,43.91,86.06,4.48,10.77,8.75,21.76,12.97,32.54.69,1.47,1.12,2.89,1.68,4.35,3.83,9.95,7.5,19.95,11.03,29.91.3.82.56,1.68.86,2.37,3.84,10.69,7.54,21.42,11.29,32.06.34,1.25.73,2.37,1.16,3.62,3.32,10.3,6.72,20.47,9.95,30.81.04.22.13.43.13.69,2.54,9.31,4.96,18.57,7.28,27.8-.56-.78-1.21-1.68-1.81-2.46.43.99.69,1.98.99,2.8-1.42-1.51-2.8-3.06-4.31-4.65-3.49-3.66-7.11-7.58-10.77-11.29-7.28-7.54-14.69-15.04-22.19-22.45-3.75-3.66-7.54-7.46-11.38-11.16-7.84-7.28-15.69-14.61-23.61-21.89-8.06-7.24-16.12-14.44-24.52-21.5-4.18-3.45-8.45-6.98-12.5-10.56-4.22-3.58-8.53-7.07-12.89-10.43-3.66-3.02-7.5-6.03-11.29-9.09-46.89,39.3-95.84,77.61-146.65,114.46-59.51,43.09-121.74,84.33-186.42,123.46-44.39,26.8-88.99,52.01-133.85,75.76-24.86,13.14-49.86,25.81-74.77,38.09-11.68,5.73-15.69,20.56-7.97,31.5,25.12,36.16,51.93,70.76,80.15,103.73,81.19,95.15,173.97,176.55,274.68,243.61,6.12,4.14,14.01,4.7,20.6,1.68,44.3-19.87,87.87-42.62,130.36-68.39,52.96-32.06,102.61-67.57,148.97-105.92,11.03-17.97,21.76-36.24,31.63-54.81,34.52-64.25,61.24-134.88,60.98-207.84Z"/>
      <path class="cls-10" d="m2838.66,1500.7v.69c-.35,10.82,0,21.72-.43,32.49-.09,1.34-.17,2.59-.17,3.79-.73,11.25-1.51,22.58-2.33,33.91-.09.82-.17,1.59-.17,2.59-.78,10.51-1.68,21.16-2.63,31.67-.17,1.59-.3,3.1-.56,4.61-.95,9.74-2.03,19.56-3.19,29.3,0,.69-.09,1.42-.17,2.11-21.42,205.6-90.28,404.86-202.24,580.72-14.35,22.49-29.3,44.43-44.95,66.02-28.96,39.95-60.2,78.34-93.77,115.19-8.49,9.35-23.96,2.37-22.75-10.3v-.34c6.38-63.82,8.23-128.16,5.52-192.58-7.11-160.57-43.22-321.48-110.58-474.89-4.96-11.51-10.26-23.1-15.73-34.6-19.39-41.15-41.15-81.79-65.24-121.61-2.59-4.35-5.21-8.66-7.89-13.01-3.19-5.04-2.46-11.68,1.68-16.03,35.08-35.77,68.6-72.14,100.49-109.11,97.87-113.68,180.73-232.62,247.01-353.45.9-1.68,1.85-3.36,2.76-5.04,22.84-41.89,43.7-84.07,62.49-126.31.69-1.68,1.51-3.28,2.2-4.96,4.61-10.34,19.22-10.34,24-.09,19.31,41.41,36.29,83.47,51.07,125.87.26.86.52,1.85.6,2.71v.09c.3.91.65,1.77.91,2.67.09.43.17.78.34,1.16v.09c3.62,11.42,7.28,22.75,10.73,34.17,3.53,11.12,6.81,22.45,10,33.61.52,1.51.78,2.93,1.25,4.44,2.89,10.26,5.64,20.6,8.32,30.81.17.86.35,1.68.6,2.46,2.84,10.99,5.56,22.06,8.23,32.92.26,1.25.6,2.5.99,3.71,2.28,10.56,4.78,20.99,6.98,31.63.09.26.17.43.17.69,1.59,9.48,2.76,19.26,4.18,28.66-1.21-1.68-2.84-3.4-4.18-5.13-3.19-3.88-6.46-8.1-9.74-12.2-6.55-8.14-13.27-16.29-20.08-24.43-3.36-3.88-6.81-7.97-10.26-12.02-7.2-7.97-14.35-16.03-21.63-24-7.24-7.89-14.7-15.73-22.37-23.61-2.58-2.5-5.04-4.96-7.54-7.54-14.05,28.44-29.13,56.84-44.95,85.07-60.03,106.4-132.77,211.11-217.32,311.82-3.28,4.01-3.97,9.39-1.77,14.09,20.08,41.58,37.79,83.82,53.22,126.56,31.16,86.66,52.92,175.17,65.5,264.12,1.85,13.19,19.74,15.77,24.95,3.53,28.31-65.24,50.81-132.86,67.18-201.89,5.47-22.84,10.26-45.94,14.22-69.04,2.41-2.76,4.78-5.47,7.2-8.32,3.71-4.44,7.24-8.75,10.86-13.1,3.66-4.44,7.2-8.75,10.64-13.36,6.55-7.97,12.93-16.12,19.13-24.09.6-.78,1.21-1.59,1.85-2.37,3.53-4.78,7.07-9.65,10.52-14.35,3.1-4.27,6.12-8.4,9.14-12.58,3.19-4.31,6.46-8.92,9.52-13.45,3.02-4.52,6.12-9.01,9.31-13.53,6.21-9.05,12.02-18.14,17.88-27.19,5.69-9.18,11.33-18.31,16.89-27.45,2.67-4.57,5.34-9.18,8.06-13.7,5.21-9.22,10.39-18.4,15.43-27.62,2.46-4.61,4.96-9.27,7.33-13.79.99-1.85,1.94-3.71,2.84-5.69.26,9.48.35,19.13.43,28.79Z"/>
      <path class="cls-3" d="m1721.99,16.15c-.22.04-.47.09-.69.13-.6-.09-1.16-.17-1.77-.26-97.52,19.91-186.25,87.39-265.37,195.69-3.23,4.48-6.51,9.01-9.7,13.62-2.76,3.88-5.43,7.76-8.06,11.72-17.02,25.04-33.53,52.01-49.51,80.84-12.63,22.67-24.91,46.5-36.84,71.49-.04.04-.09.09-.09.13-9.35,19.44-18.53,39.6-27.45,60.42-1.21,1.94-2.37,3.88-3.53,5.9-.13.22-.3.47-.43.73-19.13,32.15-38.96,69.47-46.2,120.88-10.17,72.44,13.44,111.74-14.74,180.22-15.81,38.35-35.68,56.19-44.51,63.3-9.22,7.54-43.7,35.38-90.88,29.6-6.98-.95-38.74-5.47-64.38-31.24-34.52-34.65-42.88-93.08-31.2-137.25,8.58-32.66,30.51-66.62,17.88-78.52l-.56-.56c-.52-.3-1.12-.82-1.98-1.29-23.44-13.96-51.63,11.25-61.79,36.28-6.25,15.47-10.39,31.37-12.33,48.74-3.45,30.29-.3,65.16,9.09,109.41,19.52,91.7,41.76,107.78,32.1,155.95-1.94,9.95-13.01,59.68-56.58,89.89-35.08,24.43-75.41,24.91-100.45,22.37-8.75-.95-15.69-2.24-19.87-3.06-128.72-24.13-250.15-249.64-247.79-452.52,2.59-211.59,139.45-364.31,228.26-441.49,72.35-37.58,148.28-69.34,227.1-94.85C1174.97,28.81,1318.72,3.69,1468.17.37c86.32-1.9,171.17,3.45,253.82,15.77Z"/>
      <path class="cls-3" d="m1721.3,16.27c-97.18,19.91-185.65,86.66-264.55,193.49-37.23,50.55-72.4,109.97-105.15,177.89-9.14,18.79-18.01,38.27-26.72,58.35-.78,1.29-1.59,2.59-2.37,3.92,8.92-20.81,18.1-40.98,27.45-60.42,0-.04.04-.09.09-.13,32.45-67.79,67.27-127.12,104.11-177.67,79.12-108.29,167.85-175.78,265.37-195.69.6.09,1.16.17,1.77.26Z"/>
      <path class="cls-2" d="m2321.76,247.94c-50.42-18.75-104.46-34.82-161.9-46.93-8.45-1.77-16.72-3.4-24.95-4.91-141.52-26.33-250.33-18.19-284.63-15.17-77.7,7.11-192.71,18.7-319.58,87.95-62.83,34.3-148.89,81.53-207.88,180.6-.13.34-.39.69-.56,1.03.09-.22.17-.39.26-.6.78-1.34,1.59-2.63,2.37-3.92,8.7-20.08,17.58-39.56,26.72-58.35,32.75-67.91,67.91-127.34,105.15-177.89,78.9-106.83,167.37-173.58,264.55-193.49,100.36,15.04,197.62,40.16,290.58,74.42,89.42,32.88,174.87,74.12,255.46,122.77,17.02,10.3,33.79,20.86,50.38,31.8,1.38.9,2.72,1.77,4.05,2.67Z"/>
      <path class="cls-2" d="m1721.3,16.27c-97.18,19.91-185.65,86.66-264.55,193.49-37.23,50.55-72.4,109.97-105.15,177.89-9.14,18.79-18.01,38.27-26.72,58.35-.78,1.29-1.59,2.59-2.37,3.92,8.92-20.81,18.1-40.98,27.45-60.42,0-.04.04-.09.09-.13,32.45-67.79,67.27-127.12,104.11-177.67,79.12-108.29,167.85-175.78,265.37-195.69.6.09,1.16.17,1.77.26Z"/>
      <path class="cls-1" d="m1855.1,2786.56c-36.03,9.91-72.22,18.27-108.59,24.99-63.99,11.94-128.42,19-192.8,21.5-267.65,10.17-533.79-60.46-761.37-202.8-57.7-36.03-112.86-76.75-165-121.78-21.76-18.87-43.01-38.61-63.69-58.95-10.21-10-20.3-20.3-30.12-30.64-30.73-32.41-59.99-66.54-87.78-102.48-8.32-10.82-.17-26.37,13.45-25.6,45.76,2.93,92.39,3.88,139.66,3.02h.9c112.56-2.03,228.87-14.44,347.37-37.28,39.69-7.71,79.59-16.55,119.58-26.55,41.37-10.34,82.78-21.93,124.28-34.78,6.98-2.24,14.52.6,18.23,6.89,1.34,2.2,2.59,4.35,3.92,6.46,23.27,38.57,48.22,75.59,74.77,110.92.09.09.09.17.17.17,6.46,8.75,2.59,21.42-7.84,24.69-38.35,12.28-76.66,23.53-114.71,33.61-41.54,11.07-82.78,20.9-124.02,29.3-79.2,16.46-157.64,28.23-234.64,35.34-14.52,1.29-19.74,20-7.89,28.57,21.07,15.13,42.49,29.65,64.25,43.48,1.34.78,2.67,1.59,4.01,2.37,64.51,39.39,132.38,72.48,202.67,98.94,74.98,28.18,152.51,48.87,231.58,61.71,51.06,8.32,102.73,13.36,154.7,15.04,15.73.43,22.75-19.82,9.74-28.83-44.77-31.07-87.35-64.6-128.12-100.71-17.45-15.43-34.95-13.14-58-16.5-26.42-3.88-52.57-9.91-78-18.01-21.2-6.72-41.89-14.91-61.92-24.48-8.92-4.27-42.23-19.65-14.57-26.72,32.84-8.4,65.5-18.14,97.91-29.22,39.39-13.36,78.52-28.74,117-46.11,6.38-2.84,13.75-1.25,18.31,3.88,28.35,31.98,58,62.23,88.9,90.93,75.2,69.9,157.64,130.18,245.16,180.13,21.25,12.2,42.84,23.7,64.51,34.6,32.58,16.38,65.76,31.33,99.5,44.86,14.18,5.69,13.19,26.03-1.51,29.99Z"/>
      <path class="cls-1" d="m2838.66,1500.7v.69c-.35,10.82,0,21.72-.43,32.49-.09,1.34-.17,2.59-.17,3.79-.73,11.25-1.51,22.58-2.33,33.91-.09.82-.17,1.59-.17,2.59-.78,10.51-1.68,21.16-2.63,31.67-.17,1.59-.3,3.1-.56,4.61-.95,9.74-2.03,19.56-3.19,29.3,0,.69-.09,1.42-.17,2.11-21.42,205.6-90.28,404.86-202.24,580.72-14.35,22.49-29.3,44.43-44.95,66.02-28.96,39.95-60.2,78.34-93.77,115.19-8.49,9.35-23.96,2.37-22.75-10.3v-.34c6.38-63.82,8.23-128.16,5.52-192.58-7.11-160.57-43.22-321.48-110.58-474.89-4.96-11.51-10.26-23.1-15.73-34.6-19.39-41.15-41.15-81.79-65.24-121.61-2.59-4.35-5.21-8.66-7.89-13.01-3.19-5.04-2.46-11.68,1.68-16.03,35.08-35.77,68.6-72.14,100.49-109.11,97.87-113.68,180.73-232.62,247.01-353.45.9-1.68,1.85-3.36,2.76-5.04,22.84-41.89,43.7-84.07,62.49-126.31.69-1.68,1.51-3.28,2.2-4.96,4.61-10.34,19.22-10.34,24-.09,19.31,41.41,36.29,83.47,51.07,125.87.26.86.52,1.85.6,2.71v.09c.3.91.65,1.77.91,2.67.09.43.17.78.34,1.16v.09c3.62,11.42,7.28,22.75,10.73,34.17,3.53,11.12,6.81,22.45,10,33.61.52,1.51.78,2.93,1.25,4.44,2.89,10.26,5.64,20.6,8.32,30.81.17.86.35,1.68.6,2.46,2.84,10.99,5.56,22.06,8.23,32.92.26,1.25.6,2.5.99,3.71,2.28,10.56,4.78,20.99,6.98,31.63.09.26.17.43.17.69,1.59,9.48,2.76,19.26,4.18,28.66-1.21-1.68-2.84-3.4-4.18-5.13-3.19-3.88-6.46-8.1-9.74-12.2-6.55-8.14-13.27-16.29-20.08-24.43-3.36-3.88-6.81-7.97-10.26-12.02-7.2-7.97-14.35-16.03-21.63-24-7.24-7.89-14.7-15.73-22.37-23.61-2.58-2.5-5.04-4.96-7.54-7.54-14.05,28.44-29.13,56.84-44.95,85.07-60.03,106.4-132.77,211.11-217.32,311.82-3.28,4.01-3.97,9.39-1.77,14.09,20.08,41.58,37.79,83.82,53.22,126.56,31.16,86.66,52.92,175.17,65.5,264.12,1.85,13.19,19.74,15.77,24.95,3.53,28.31-65.24,50.81-132.86,67.18-201.89,5.47-22.84,10.26-45.94,14.22-69.04,2.41-2.76,4.78-5.47,7.2-8.32,3.71-4.44,7.24-8.75,10.86-13.1,3.66-4.44,7.2-8.75,10.64-13.36,6.55-7.97,12.93-16.12,19.13-24.09.6-.78,1.21-1.59,1.85-2.37,3.53-4.78,7.07-9.65,10.52-14.35,3.1-4.27,6.12-8.4,9.14-12.58,3.19-4.31,6.46-8.92,9.52-13.45,3.02-4.52,6.12-9.01,9.31-13.53,6.21-9.05,12.02-18.14,17.88-27.19,5.69-9.18,11.33-18.31,16.89-27.45,2.67-4.57,5.34-9.18,8.06-13.7,5.21-9.22,10.39-18.4,15.43-27.62,2.46-4.61,4.96-9.27,7.33-13.79.99-1.85,1.94-3.71,2.84-5.69.26,9.48.35,19.13.43,28.79Z"/>
      <path class="cls-1" d="m2384.16,2454.61c-.56,13.4-1.25,26.8-2.24,40.25-.35,5.65-3.06,10.99-7.41,14.74-55.85,48.18-116.48,92.31-181.64,131.61-20.94,12.67-42.1,24.74-63.43,36.07-39.22,20.94-79.2,39.65-119.5,56.28-5.34,2.24-11.42,2.24-16.72-.22-33.18-14.39-65.98-30.21-97.95-47.36-23.1-12.41-45.81-25.43-68.17-39.21-95.58-58.87-184.48-130.14-263.99-213.44-30.73-32.06-59.94-65.89-87.52-101.44-11.68-14.87-22.97-29.95-34-45.38-8.01-11.2-15.77-22.41-23.4-33.96-11.46-17.15-22.62-34.56-33.44-52.49-7.71-12.76-15.21-25.64-22.49-38.65-6.38-11.33-1.34-25.47,10.73-30.25,46.8-18.62,93.73-38.91,140.27-60.68,84.51-39.47,168.49-84.16,251.23-134.11,13.53-8.23,26.98-16.59,40.33-24.95,62.87-39.47,123.16-80.84,180.73-124.19,13.96-10.34,27.54-20.9,41.11-31.54.09-.09.22-.13.3-.22,9.31-7.5,18.53-15.13,27.71-22.88,7.5-6.33,14.95-12.63,22.41-19.05l.04-.09c17.32-14.78,34.3-29.73,50.98-44.99,5.04-4.57,10.13-9.18,15.17-13.79,1.12-.99,2.24-2.2,3.36-3.23,14.01,19.82,27.58,40.12,40.68,60.67,2.03,3.32,4.14,6.51,6.03,9.7,1.21,1.9,2.37,3.84,3.53,5.77,16.85,27.49,31.46,56.32,43.91,86.06,4.48,10.77,8.75,21.76,12.97,32.54.69,1.47,1.12,2.89,1.68,4.35,3.83,9.95,7.5,19.95,11.03,29.91.3.82.56,1.68.86,2.37,3.84,10.69,7.54,21.42,11.29,32.06.34,1.25.73,2.37,1.16,3.62,3.32,10.3,6.72,20.47,9.95,30.81.04.22.13.43.13.69,2.54,9.31,4.96,18.57,7.28,27.8-.56-.78-1.21-1.68-1.81-2.46.43.99.69,1.98.99,2.8-1.42-1.51-2.8-3.06-4.31-4.65-3.49-3.66-7.11-7.58-10.77-11.29-7.28-7.54-14.69-15.04-22.19-22.45-3.75-3.66-7.54-7.46-11.38-11.16-7.84-7.28-15.69-14.61-23.61-21.89-8.06-7.24-16.12-14.44-24.52-21.5-4.18-3.45-8.45-6.98-12.5-10.56-4.22-3.58-8.53-7.07-12.89-10.43-3.66-3.02-7.5-6.03-11.29-9.09-46.89,39.3-95.84,77.61-146.65,114.46-59.51,43.09-121.74,84.33-186.42,123.46-44.39,26.8-88.99,52.01-133.85,75.76-24.86,13.14-49.86,25.81-74.77,38.09-11.68,5.73-15.69,20.56-7.97,31.5,25.12,36.16,51.93,70.76,80.15,103.73,81.19,95.15,173.97,176.55,274.68,243.61,6.12,4.14,14.01,4.7,20.6,1.68,44.3-19.87,87.87-42.62,130.36-68.39,52.96-32.06,102.61-67.57,148.97-105.92,11.03-17.97,21.76-36.24,31.63-54.81,34.52-64.25,61.24-134.88,60.98-207.84,25.68,99.33,27.58,202.11,23.57,304.19Z"/>
    </g>
  </g>
</svg>